<?xml version="1.0" encoding="UTF-8"?>
<svg width="54px" height="54px" viewBox="0 0 54 54" version="1.1" xmlns="http://www.w3.org/2000/svg" xmlns:xlink="http://www.w3.org/1999/xlink">
    <!-- Generator: Sketch 59 (86127) - https://sketch.com -->
    <title>email-icon</title>
    <desc>Created with Sketch.</desc>
    <g id="Symbols" stroke="none" stroke-width="1" fill="none" fill-rule="evenodd">
        <g id="Contact-Bar" transform="translate(-120.000000, -32.000000)" fill="#FFFFFF" fill-rule="nonzero">
            <g id="email-icon">
                <g transform="translate(120.000000, 32.000000)">
                    <path d="M40.2762431,0 L19.0939227,0 C18.8552486,0 18.6762431,0.0592755214 18.4972376,0.237102086 L9.54696133,9.00987925 C9.3679558,9.18770582 9.30828729,9.36553238 9.30828729,9.60263447 L9.30828729,14.9967069 L0.954696133,21.8726674 C0.35801105,22.4061471 0,23.1174533 0,23.9473106 L0,53.1701427 C0,53.6443469 0.35801105,54 0.835359116,54 L53.1646409,54 C53.641989,54 54,53.6443469 54,53.1701427 L54,23.9473106 C54,23.1767289 53.641989,22.4061471 53.0453039,21.8726674 L44.6917127,14.9967069 L44.6917127,4.32711306 C44.6320442,1.89681668 42.6629834,0 40.2762431,0 Z M12.4110497,9.60263447 C12.4110497,9.4248079 12.5900552,9.24698134 12.7690608,9.24698134 L16.9458564,9.24698134 C17.960221,9.24698134 18.7955801,8.41712404 18.7955801,7.40944018 L18.7955801,3.43798024 C18.7955801,3.26015368 18.9745856,3.08232711 19.1535912,3.08232711 L40.2762431,3.08232711 C40.9922652,3.08232711 41.5292818,3.61580681 41.5292818,4.32711306 L41.5292818,29.1635565 L27.6265193,40.129528 C27.2685083,40.4259056 26.7314917,40.4259056 26.3734807,40.129528 L12.4110497,28.6893524 L12.4110497,9.60263447 Z M49.2861878,26.5554336 C49.8232044,26.1405049 50.6585635,26.4961581 50.6585635,27.2074643 L50.6585635,49.909989 C50.6585635,50.3841932 50.3005525,50.7398463 49.8232044,50.7398463 L4.11712707,50.7398463 C3.63977901,50.7398463 3.28176796,50.3841932 3.28176796,49.909989 L3.28176796,27.1481888 C3.28176796,26.4368825 4.11712707,26.0812294 4.65414365,26.4961581 L25.5977901,43.7453348 C26.4331492,44.3973655 27.6265193,44.3973655 28.4022099,43.7453348 L49.2861878,26.5554336 Z" id="Shape"></path>
                    <path d="M16.63,12.01 L37.7,12.01 C38.4,12.01 38.96,11.45 38.96,10.75 C38.96,10.05 38.4,9.49 37.7,9.49 L16.63,9.49 C15.93,9.49 15.37,10.05 15.37,10.75 C15.44,11.45 16,12.01 16.63,12.01 Z" id="Path"></path>
                    <path d="M16.63,19.85 L37.7,19.85 C38.4,19.85 38.96,19.29 38.96,18.59 C38.96,17.89 38.4,17.4 37.77,17.4 L16.63,17.4 C15.93,17.4 15.37,17.96 15.37,18.66 C15.37,19.36 16,19.85 16.63,19.85 Z" id="Path"></path>
                    <path d="M38.96,26.01 C38.96,25.31 38.4,24.75 37.7,24.75 L16.63,24.75 C15.93,24.75 15.37,25.31 15.37,26.01 C15.37,26.71 15.93,27.27 16.63,27.27 L37.7,27.27 C38.4,27.27 38.96,26.71 38.96,26.01 Z" id="Path"></path>
                </g>
            </g>
        </g>
    </g>
</svg>