<?xml version="1.0" encoding="UTF-8"?>
<svg width="32px" height="32px" viewBox="0 0 32 32" version="1.1" xmlns="http://www.w3.org/2000/svg" xmlns:xlink="http://www.w3.org/1999/xlink">
    <!-- Generator: Sketch 59 (86127) - https://sketch.com -->
    <title>instagram-icon</title>
    <desc>Created with Sketch.</desc>
    <g id="Symbols" stroke="none" stroke-width="1" fill="none" fill-rule="evenodd">
        <g id="Contact-Bar" transform="translate(-1223.000000, -60.000000)" fill="#FFFFFF">
            <g id="Social-networks">
                <g transform="translate(1095.000000, 31.000000)">
                    <g id="Social-Media" transform="translate(0.000000, 29.000000)">
                        <path d="M156,29 L132,29 C131.448,29 131,28.552 131,28 L131,13 L135,13 C134.479,13.75 134.303,15.149 134.303,16.037 C134.303,21.392 138.67,25.749 144.037,25.749 C149.405,25.749 153.772,21.392 153.772,16.037 C153.772,15.149 153.646,13.771 153,13 L157,13 L157,28 C157,28.552 156.552,29 156,29 M144.037,9.898 C147.436,9.898 150.191,12.647 150.191,16.037 C150.191,19.428 147.436,22.177 144.037,22.177 C140.639,22.177 137.884,19.428 137.884,16.037 C137.884,12.647 140.639,9.898 144.037,9.898 M152,4 L155,4 C155.552,4 156,4.448 156,5 L156,8 C156,8.552 155.552,9 155,9 L152,9 C151.448,9 151,8.552 151,8 L151,5 C151,4.448 151.448,4 152,4 M156.196,0 L131.804,0 C129.703,0 128,1.699 128,3.795 L128,28.205 C128,30.301 129.703,32 131.804,32 L156.196,32 C158.297,32 160,30.301 160,28.205 L160,3.795 C160,1.699 158.297,0 156.196,0" id="instagram-icon"></path>
                    </g>
                </g>
            </g>
        </g>
    </g>
</svg>