<?xml version="1.0" encoding="UTF-8"?>
<svg width="32px" height="32px" viewBox="0 0 32 32" version="1.1" xmlns="http://www.w3.org/2000/svg" xmlns:xlink="http://www.w3.org/1999/xlink">
    <!-- Generator: Sketch 59 (86127) - https://sketch.com -->
    <title>linkedin-icon</title>
    <desc>Created with Sketch.</desc>
    <g id="Symbols" stroke="none" stroke-width="1" fill="none" fill-rule="evenodd">
        <g id="Contact-Bar" transform="translate(-1159.000000, -60.000000)" fill="#FFFFFF">
            <g id="Social-networks">
                <g transform="translate(1095.000000, 31.000000)">
                    <g id="Social-Media" transform="translate(0.000000, 29.000000)">
                        <path d="M91.269,27.267 L86.523,27.267 L86.523,19.841 C86.523,18.07 86.493,15.792 84.057,15.792 C81.588,15.792 81.211,17.722 81.211,19.714 L81.211,27.267 L76.47,27.267 L76.47,11.996 L81.02,11.996 L81.02,14.084 L81.085,14.084 C81.718,12.883 83.266,11.617 85.575,11.617 C90.381,11.617 91.269,14.779 91.269,18.892 L91.269,27.267 Z M71.119,9.91 C69.594,9.91 68.365,8.677 68.365,7.157 C68.365,5.638 69.594,4.405 71.119,4.405 C72.637,4.405 73.87,5.638 73.87,7.157 C73.87,8.677 72.637,9.91 71.119,9.91 L71.119,9.91 Z M73.493,27.267 L68.742,27.267 L68.742,11.996 L73.493,11.996 L73.493,27.267 Z M94.667,0 L65.334,0 C64.597,0 64,0.597 64,1.333 L64,30.666 C64,31.403 64.597,32 65.334,32 L94.667,32 C95.403,32 96,31.403 96,30.666 L96,1.333 C96,0.597 95.403,0 94.667,0 L94.667,0 Z" id="linkedin-icon"></path>
                    </g>
                </g>
            </g>
        </g>
    </g>
</svg>