<?xml version="1.0" encoding="UTF-8"?>
<svg width="189px" height="215px" viewBox="0 0 189 215" version="1.1" xmlns="http://www.w3.org/2000/svg" xmlns:xlink="http://www.w3.org/1999/xlink">
    <!-- Generator: Sketch 59 (86127) - https://sketch.com -->
    <title>Ramirez Logo vertical</title>
    <desc>Created with Sketch.</desc>
    <g id="Symbols" stroke="none" stroke-width="1" fill="none" fill-rule="evenodd">
        <g id="Header-Mobile-Menu" transform="translate(-94.000000, -63.000000)">
            <g id="Ramirez-Logo-vertical" transform="translate(95.000000, 64.000000)">
                <g id="Ramirez-Logo">
                    <g id="text" transform="translate(17.166727, 179.156442)" fill="#D8D8D8">
                        <path d="M85.7364952,25.597455 C86.0073518,25.597455 86.2610384,25.6272312 86.4971258,25.6866978 C86.7327839,25.7461644 86.9474087,25.8333477 87.1401419,25.948205 L88.8331028,25.948205 L88.8331028,26.3543455 C88.8331028,26.4897114 88.7472528,26.5758651 88.5746945,26.6128065 L87.8668617,26.711231 C88.0063678,26.9778868 88.0759063,27.2753056 88.0759063,27.6034874 C88.0759063,27.9070417 88.0175283,28.1829221 87.9007724,28.4311287 C87.7835872,28.6793353 87.6213308,28.8915873 87.4144324,29.0680134 C87.2071048,29.2443967 86.9607155,29.3797626 86.6756937,29.4741111 C86.3902426,29.5685026 86.0773195,29.6156554 85.7364952,29.6156554 C85.4454639,29.6156554 85.1703148,29.5807734 84.9119065,29.5110525 C84.7805561,29.5930872 84.6809702,29.6813003 84.6131487,29.7756488 C84.5453272,29.8699974 84.5114165,29.9622865 84.5114165,30.052559 C84.5114165,30.2002387 84.5710822,30.3120067 84.6899844,30.387906 C84.8093158,30.4638053 84.9672797,30.5181662 85.1643054,30.5509887 C85.361331,30.5838111 85.5849701,30.6043198 85.8352227,30.6125147 C86.0854753,30.6207096 86.3408789,30.6340531 86.6014334,30.6525024 C86.8624173,30.6709516 87.1178209,30.7027443 87.3680735,30.7478806 C87.6183261,30.7930169 87.8419652,30.8668567 88.0389908,30.9694001 C88.2360164,31.0719865 88.3939803,31.2134878 88.5133117,31.39399 C88.6322139,31.5744921 88.6918796,31.8083255 88.6918796,32.0954899 C88.6918796,32.3621457 88.6249167,32.6205637 88.49142,32.8708297 C88.3583526,33.1210529 88.166478,33.3436021 87.9157961,33.5384775 C87.6655435,33.73331 87.3599177,33.8892275 86.9989187,34.0061442 C86.6374904,34.1230608 86.2292739,34.1814977 85.7734107,34.1814977 C85.3179768,34.1814977 84.9187745,34.1363614 84.5762332,34.0461318 C84.2336919,33.9558593 83.9490994,33.8348666 83.7237433,33.683068 C83.4979579,33.5312694 83.3284043,33.3559159 83.2155116,33.1569645 C83.1026189,32.9580131 83.0463872,32.7497942 83.0463872,32.5323936 C83.0463872,32.2247204 83.1438269,31.9631703 83.3387063,31.7478291 C83.5335856,31.532445 83.8014375,31.3611675 84.1422617,31.2339965 C83.9658401,31.1519618 83.8250462,31.0422103 83.7203093,30.9047849 C83.6160016,30.7673596 83.5636331,30.5838111 83.5636331,30.3540538 C83.5636331,30.2638242 83.5799446,30.1705054 83.6125676,30.0740974 C83.6456198,29.9776894 83.695842,29.8823112 83.7636635,29.7879626 C83.8314849,29.6936141 83.9143301,29.6033416 84.0130576,29.5171879 C84.1113558,29.4310772 84.2263947,29.3551779 84.3577451,29.289533 C84.0499731,29.1172257 83.8087347,28.888541 83.6344593,28.603436 C83.4597547,28.3183309 83.372617,27.9850005 83.372617,27.6034874 C83.372617,27.2999332 83.4309949,27.0240528 83.5481801,26.7758462 C83.664936,26.5276825 83.8280509,26.3164174 84.0375248,26.1420506 C84.2469987,25.9677268 84.4963928,25.8333477 84.7857071,25.7389992 C85.0750214,25.6446507 85.3918077,25.597455 85.7364952,25.597455 Z M124.977647,25.597455 C125.248504,25.597455 125.50219,25.6272312 125.738278,25.6866978 C125.973936,25.7461644 126.188561,25.8333477 126.381294,25.948205 L128.074255,25.948205 L128.074255,26.3543455 C128.074255,26.4897114 127.987975,26.5758651 127.815846,26.6128065 L127.108013,26.711231 C127.24752,26.9778868 127.317058,27.2753056 127.317058,27.6034874 C127.317058,27.9070417 127.25868,28.1829221 127.141495,28.4311287 C127.024739,28.6793353 126.862483,28.8915873 126.655155,29.0680134 C126.448257,29.2443967 126.201867,29.3797626 125.916416,29.4741111 C125.631394,29.5685026 125.318471,29.6156554 124.977647,29.6156554 C124.686186,29.6156554 124.411467,29.5807734 124.152629,29.5110525 C124.021708,29.5930872 123.922122,29.6813003 123.8543,29.7756488 C123.786479,29.8699974 123.752568,29.9622865 123.752568,30.052559 C123.752568,30.2002387 123.812234,30.3120067 123.931136,30.387906 C124.050038,30.4638053 124.208432,30.5181662 124.405028,30.5509887 C124.602054,30.5838111 124.826122,30.6043198 125.076374,30.6125147 C125.326627,30.6207096 125.582031,30.6340531 125.842585,30.6525024 C126.10314,30.6709516 126.358973,30.7027443 126.609225,30.7478806 C126.859478,30.7930169 127.083117,30.8668567 127.280143,30.9694001 C127.477168,31.0719865 127.635132,31.2134878 127.754034,31.39399 C127.873366,31.5744921 127.932602,31.8083255 127.932602,32.0954899 C127.932602,32.3621457 127.866068,32.6205637 127.732572,32.8708297 C127.599504,33.1210529 127.40763,33.3436021 127.156948,33.5384775 C126.906695,33.73331 126.60107,33.8892275 126.239641,34.0061442 C125.878642,34.1230608 125.470426,34.1814977 125.014563,34.1814977 C124.559129,34.1814977 124.159926,34.1363614 123.817385,34.0461318 C123.474414,33.9558593 123.190251,33.8348666 122.964466,33.683068 C122.73911,33.5312694 122.569556,33.3559159 122.456663,33.1569645 C122.343771,32.9580131 122.287539,32.7497942 122.287539,32.5323936 C122.287539,32.2247204 122.384979,31.9631703 122.579858,31.7478291 C122.774737,31.532445 123.042589,31.3611675 123.383414,31.2339965 C123.206992,31.1519618 123.066198,31.0422103 122.961461,30.9047849 C122.856724,30.7673596 122.804785,30.5838111 122.804785,30.3540538 C122.804785,30.2638242 122.821096,30.1705054 122.853719,30.0740974 C122.886772,29.9776894 122.936994,29.8823112 123.004815,29.7879626 C123.072207,29.6936141 123.155482,29.6033416 123.254209,29.5171879 C123.352508,29.4310772 123.467546,29.3551779 123.598897,29.289533 C123.291125,29.1172257 123.049886,28.888541 122.875611,28.603436 C122.700906,28.3183309 122.613769,27.9850005 122.613769,27.6034874 C122.613769,27.2999332 122.672147,27.0240528 122.789332,26.7758462 C122.906088,26.5276825 123.069203,26.3164174 123.278677,26.1420506 C123.48815,25.9677268 123.737115,25.8333477 124.02643,25.7389992 C124.316173,25.6446507 124.63296,25.597455 124.977647,25.597455 Z M44.6036399,30.4832843 C44.7268346,30.4832843 44.8367225,30.5058524 44.9328744,30.5509887 C45.0294556,30.5961249 45.1092961,30.6586807 45.1732543,30.738656 C45.2367832,30.8186742 45.2848592,30.9109633 45.3179114,31.0155661 C45.3505344,31.120169 45.3668459,31.2339965 45.3668459,31.3570915 C45.3668459,31.5416697 45.3402324,31.7334559 45.2870055,31.9324073 C45.2337785,32.1314016 45.1578013,32.3282935 45.0590739,32.5231689 C44.9607757,32.7180014 44.8384395,32.9077282 44.6929238,33.0923493 C44.5474082,33.2769274 44.382147,33.4471753 44.1971404,33.6030927 L44.012563,33.4246071 C43.959336,33.3753949 43.9327226,33.3179877 43.9327226,33.2523428 C43.9327226,33.1990116 43.9614823,33.143621 44.0190018,33.0861709 C44.0597805,33.0410776 44.112149,32.9805383 44.1756779,32.9046819 C44.2392069,32.8287827 44.3040236,32.7415993 44.3696988,32.6431319 C44.435374,32.5447073 44.4958982,32.4359856 44.5512714,32.3170095 C44.6066446,32.1980334 44.6465649,32.0708624 44.6714613,31.9354965 L44.5911916,31.9354965 C44.4847377,31.9354965 44.3881565,31.9170472 44.3018773,31.8801058 C44.2155981,31.8432074 44.1409087,31.7909059 44.0773797,31.7232015 C44.0138508,31.65554 43.964487,31.5755219 43.9297178,31.4832328 C43.8945193,31.3909008 43.8773493,31.2893871 43.8773493,31.1786488 C43.8773493,31.0842574 43.8945193,30.9950574 43.9297178,30.9109633 C43.964487,30.8268691 44.0138508,30.7530292 44.0773797,30.6894437 C44.1409087,30.6258582 44.2177444,30.5755733 44.3083161,30.5386749 C44.3984585,30.5017335 44.4967567,30.4832843 44.6036399,30.4832843 Z M84.7947213,31.4124392 C84.5607802,31.5232204 84.3710519,31.6585863 84.2251069,31.8185798 C84.0795913,31.9785733 84.0066188,32.1693298 84.0066188,32.3908493 C84.0066188,32.5303341 84.0426758,32.6605943 84.1143605,32.7815869 C84.1864745,32.9026225 84.2959331,33.0072254 84.4440243,33.0954385 C84.5916862,33.1836086 84.7771221,33.2533725 85.0011905,33.3046442 C85.2248296,33.3559159 85.4883889,33.3815732 85.7922977,33.3815732 C86.0876215,33.3815732 86.3524686,33.3548862 86.5864097,33.301555 C86.8203508,33.2482239 87.0182349,33.1723246 87.1804913,33.0739 C87.3423185,32.9754326 87.4668009,32.858516 87.5526508,32.7231501 C87.63893,32.5877413 87.681855,32.438045 87.681855,32.2739326 C87.681855,32.1180581 87.63893,31.9929465 87.5526508,31.898598 C87.4668009,31.8042066 87.3496157,31.7313964 87.2019538,31.6801247 C87.0542919,31.628853 86.8838798,31.5909248 86.6907174,31.5662972 C86.4979843,31.5416697 86.2949491,31.5242501 86.081612,31.5139958 C85.8678457,31.5037415 85.6506453,31.4924574 85.4287232,31.4801436 C85.2072303,31.4678298 84.9960395,31.4452617 84.7947213,31.4124392 Z M124.035873,31.4124392 C123.801932,31.5232204 123.612204,31.6585863 123.466259,31.8185798 C123.320743,31.9785733 123.247771,32.1693298 123.247771,32.3908493 C123.247771,32.5303341 123.283828,32.6605943 123.355512,32.7815869 C123.427626,32.9026225 123.537085,33.0072254 123.684747,33.0954385 C123.832838,33.1836086 124.018274,33.2533725 124.241913,33.3046442 C124.465981,33.3559159 124.729541,33.3815732 125.03302,33.3815732 C125.328773,33.3815732 125.593191,33.3548862 125.827132,33.301555 C126.061073,33.2482239 126.259387,33.1723246 126.421214,33.0739 C126.58347,32.9754326 126.707523,32.858516 126.793803,32.7231501 C126.880082,32.5877413 126.923007,32.438045 126.923007,32.2739326 C126.923007,32.1180581 126.880082,31.9929465 126.793803,31.898598 C126.707523,31.8042066 126.590768,31.7313964 126.443106,31.6801247 C126.295014,31.628853 126.125032,31.5909248 125.931869,31.5662972 C125.739136,31.5416697 125.536101,31.5242501 125.322335,31.5139958 C125.108997,31.5037415 124.891368,31.4924574 124.669875,31.4801436 C124.448382,31.4678298 124.236762,31.4452617 124.035873,31.4124392 Z M137.398417,23.677619 L137.398417,25.8251528 L139.184096,25.8251528 L139.184096,26.6189419 L137.398417,26.6189419 L137.398417,30.3602322 C137.398417,30.6227691 137.462375,30.8176445 137.589433,30.9448155 C137.716491,31.0719865 137.880894,31.135572 138.081783,31.135572 C138.196822,31.135572 138.296408,31.120169 138.380541,31.089406 C138.464674,31.0586429 138.537646,31.0247907 138.599029,30.9878923 C138.660841,30.9509509 138.71278,30.9170987 138.756134,30.8863357 C138.799059,30.8555727 138.837262,30.8401697 138.869885,30.8401697 C138.927405,30.8401697 138.978915,30.8750516 139.023986,30.9448155 L139.344206,31.4678298 C139.155336,31.644256 138.927405,31.7826681 138.660841,31.883195 C138.393847,31.9837219 138.119128,32.0339639 137.835823,32.0339639 C137.343044,32.0339639 136.964446,31.8965385 136.700028,31.6216878 C136.435181,31.3468372 136.302972,30.9509509 136.302972,30.434072 L136.302972,26.6189419 L135.551785,26.6189419 C135.48611,26.6189419 135.430736,26.5994629 135.385665,26.560505 C135.340594,26.5215042 135.317844,26.4610079 135.317844,26.3789731 L135.317844,25.9420695 L136.339887,25.8128391 L136.592286,23.8868248 C136.600442,23.8252987 136.627055,23.7750567 136.672127,23.7360559 C136.717198,23.697098 136.774717,23.677619 136.844685,23.677619 L137.398417,23.677619 Z M108.781196,23.677619 L108.781196,25.8251528 L110.566446,25.8251528 L110.566446,26.6189419 L108.781196,26.6189419 L108.781196,30.3602322 C108.781196,30.6227691 108.844725,30.8176445 108.971783,30.9448155 C109.09927,31.0719865 109.263244,31.135572 109.464562,31.135572 C109.579171,31.135572 109.678757,31.120169 109.76289,31.089406 C109.847023,31.0586429 109.919996,31.0247907 109.981378,30.9878923 C110.04319,30.9509509 110.095559,30.9170987 110.138484,30.8863357 C110.181409,30.8555727 110.219612,30.8401697 110.252235,30.8401697 C110.309755,30.8401697 110.361264,30.8750516 110.406336,30.9448155 L110.726556,31.4678298 C110.537686,31.644256 110.309755,31.7826681 110.04319,31.883195 C109.776197,31.9837219 109.501477,32.0339639 109.218172,32.0339639 C108.725823,32.0339639 108.346796,31.8965385 108.082378,31.6216878 C107.817531,31.3468372 107.685322,30.9509509 107.685322,30.434072 L107.685322,26.6189419 L106.934135,26.6189419 C106.868459,26.6189419 106.813086,26.5994629 106.768015,26.560505 C106.722944,26.5215042 106.700194,26.4610079 106.700194,26.3789731 L106.700194,25.9420695 L107.722237,25.8128391 L107.974636,23.8868248 C107.982792,23.8252987 108.009405,23.7750567 108.054476,23.7360559 C108.099548,23.697098 108.157067,23.677619 108.227035,23.677619 L108.781196,23.677619 Z M34.2265277,25.5913195 C34.5755077,25.5913195 34.885426,25.6487696 35.1562826,25.7636268 C35.4271392,25.878484 35.6550708,26.0384775 35.8396482,26.2435643 C36.0242255,26.4486941 36.1637317,26.6969006 36.2581666,26.9881411 C36.3526016,27.2794245 36.3998191,27.5993685 36.3998191,27.948102 L36.3998191,31.9354965 L35.9134791,31.9354965 C35.8065959,31.9354965 35.720746,31.9191067 35.6550708,31.8862842 C35.5893956,31.8534617 35.5460413,31.7836979 35.5254374,31.6770356 L35.4026719,31.0986306 C35.2382693,31.2463103 35.0781591,31.3786299 34.9223415,31.4955466 C34.7665238,31.6124632 34.6021212,31.7108878 34.429992,31.7909059 C34.2574337,31.8708812 34.0737148,31.9313776 33.8788354,31.9724378 C33.683956,32.0134552 33.4671849,32.0339639 33.2293806,32.0339639 C32.9872837,32.0339639 32.7606398,32.0001117 32.5490197,31.9324073 C32.3378289,31.8647458 32.15411,31.7631892 31.9982923,31.6278233 C31.8420454,31.4924574 31.7179923,31.3211798 31.6257036,31.1140336 C31.5334149,30.9068444 31.4870559,30.661727 31.4870559,30.3786814 C31.4870559,30.1325343 31.5548774,29.8956547 31.690091,29.6679568 C31.8257339,29.4403018 32.044222,29.2382613 32.3459846,29.0618351 C32.6477472,28.8854518 33.0426569,28.7408613 33.5311431,28.6280206 C34.0192001,28.5152229 34.6167157,28.4506077 35.3224022,28.4342179 L35.3224022,27.948102 C35.3224022,27.4640027 35.218953,27.0978926 35.0116254,26.849686 C34.8042978,26.6015224 34.4973843,26.4773976 34.091314,26.4773976 C33.8243207,26.4773976 33.5998231,26.5112498 33.4169627,26.5789543 C33.2345315,26.6466157 33.0765676,26.722515 32.943071,26.8066092 C32.8095743,26.8907034 32.6949646,26.9666027 32.5983834,27.0343071 C32.5018023,27.1019686 32.4065088,27.1358208 32.3120739,27.1358208 C32.2382429,27.1358208 32.1734262,27.1163418 32.118053,27.0773839 C32.0626798,27.0383831 32.0184671,26.9902006 31.9858441,26.9327505 L31.7888185,26.5820434 C32.133506,26.2497427 32.504807,26.0015361 32.9031508,25.8374666 C33.3010653,25.6733543 33.742334,25.5913195 34.2265277,25.5913195 Z M98.1576947,23.677619 L98.1576947,25.8251528 L99.9429443,25.8251528 L99.9429443,26.6189419 L98.1576947,26.6189419 L98.1576947,30.3602322 C98.1576947,30.6227691 98.2212236,30.8176445 98.3482816,30.9448155 C98.4757687,31.0719865 98.6397421,31.135572 98.8410602,31.135572 C98.9556699,31.135572 99.0552559,31.120169 99.1393888,31.089406 C99.2235218,31.0586429 99.2964942,31.0247907 99.3578769,30.9878923 C99.4196889,30.9509509 99.4720573,30.9170987 99.5149823,30.8863357 C99.5579073,30.8555727 99.5961105,30.8401697 99.6287335,30.8401697 C99.686253,30.8401697 99.7377629,30.8750516 99.7828341,30.9448155 L100.103054,31.4678298 C99.9141846,31.644256 99.686253,31.7826681 99.4196889,31.883195 C99.1526955,31.9837219 98.8779757,32.0339639 98.5946709,32.0339639 C98.1023215,32.0339639 97.7237232,31.8965385 97.4588761,31.6216878 C97.194029,31.3468372 97.0618201,30.9509509 97.0618201,30.434072 L97.0618201,26.6189419 L96.3106331,26.6189419 C96.2449579,26.6189419 96.1895847,26.5994629 96.1445134,26.560505 C96.0994422,26.5215042 96.076692,26.4610079 96.076692,26.3789731 L96.076692,25.9420695 L97.0987356,25.8128391 L97.3511344,23.8868248 C97.3592902,23.8252987 97.3859037,23.7750567 97.4309749,23.7360559 C97.4760461,23.697098 97.5335656,23.677619 97.6035333,23.677619 L98.1576947,23.677619 Z M61.0949853,25.6036333 C61.4684325,25.6036333 61.8131201,25.6661891 62.1294771,25.7913006 C62.4454049,25.9164122 62.7184077,26.0969144 62.9480563,26.3328071 C63.1777049,26.5686999 63.3575606,26.8599404 63.4867648,27.2066144 C63.6159689,27.5532455 63.6807856,27.948102 63.6807856,28.391141 C63.6807856,28.5634054 63.6623279,28.6783055 63.6254124,28.7357127 C63.5884969,28.7931627 63.5185292,28.8218663 63.4159385,28.8218663 L59.2668107,28.8218663 C59.2749664,29.2156931 59.3281934,29.5582482 59.4264916,29.8494887 C59.525219,30.1407721 59.6604327,30.38383 59.8329911,30.5786625 C60.0055494,30.7735379 60.2107308,30.9191582 60.4485352,31.0155661 C60.6867688,31.1119741 60.9533328,31.1601566 61.2490859,31.1601566 C61.5238057,31.1601566 61.7607516,31.1283639 61.9599235,31.0647784 C62.1590953,31.0011929 62.330366,30.9325017 62.4741646,30.8586618 C62.617534,30.784822 62.737724,30.7160879 62.8343052,30.6525024 C62.9304571,30.5889169 63.0137315,30.5571241 63.0836993,30.5571241 C63.1738417,30.5571241 63.2433802,30.592006 63.2927439,30.661727 L63.6005159,31.0617321 C63.4653023,31.2258016 63.3030459,31.3683756 63.114176,31.4893682 C62.9253061,31.6104038 62.7235587,31.709858 62.5080754,31.7878168 C62.292592,31.8657755 62.0698114,31.9242124 61.8397335,31.9631703 C61.6100849,32.0021711 61.3821533,32.0216501 61.1567972,32.0216501 C60.7258305,32.0216501 60.3287745,31.94884 59.9652,31.8032197 C59.6020547,31.6575566 59.2882731,31.444232 59.0234261,31.1632458 C58.758579,30.8822597 58.5525391,30.534556 58.4048772,30.1202205 C58.256786,29.7059279 58.1829551,29.2300664 58.1829551,28.6926359 C58.1829551,28.2577917 58.249918,27.851694 58.3834147,27.474257 C58.5164821,27.0968629 58.7083568,26.7697108 58.9586094,26.4928006 C59.2092912,26.2158905 59.514917,25.9984898 59.875916,25.8405558 C60.2373443,25.6825789 60.6434145,25.6036333 61.0949853,25.6036333 Z M75.6293811,25.6036333 C76.0028284,25.6036333 76.3475159,25.6661891 76.6634437,25.7913006 C76.9798008,25.9164122 77.2523743,26.0969144 77.4824522,26.3328071 C77.7121008,26.5686999 77.8919564,26.8599404 78.0211606,27.2066144 C78.1503648,27.5532455 78.2147522,27.948102 78.2147522,28.391141 C78.2147522,28.5634054 78.1962945,28.6783055 78.159379,28.7357127 C78.1224635,28.7931627 78.0529251,28.8218663 77.9503344,28.8218663 L73.8007773,28.8218663 C73.808933,29.2156931 73.8625892,29.5582482 73.9608874,29.8494887 C74.0596148,30.1407721 74.1948285,30.38383 74.3673869,30.5786625 C74.539516,30.7735379 74.7446974,30.9191582 74.982931,31.0155661 C75.2211646,31.1119741 75.4877287,31.1601566 75.7830525,31.1601566 C76.0582016,31.1601566 76.2951474,31.1283639 76.4943193,31.0647784 C76.6934912,31.0011929 76.8647618,30.9325017 77.0081312,30.8586618 C77.1519299,30.784822 77.2721198,30.7160879 77.3682718,30.6525024 C77.464853,30.5889169 77.5481274,30.5571241 77.6176659,30.5571241 C77.7082375,30.5571241 77.777776,30.592006 77.8271397,30.661727 L78.1349118,31.0617321 C77.9996981,31.2258016 77.8374417,31.3683756 77.6485718,31.4893682 C77.459702,31.6104038 77.2575253,31.709858 77.042042,31.7878168 C76.8265586,31.8657755 76.6042072,31.9242124 76.3741294,31.9631703 C76.1444808,32.0021711 75.9165492,32.0216501 75.6907638,32.0216501 C75.2597971,32.0216501 74.8627411,31.94884 74.4995958,31.8032197 C74.1364505,31.6575566 73.822669,31.444232 73.5578219,31.1632458 C73.2929748,30.8822597 73.086935,30.534556 72.9388438,30.1202205 C72.7911819,29.7059279 72.7173509,29.2300664 72.7173509,28.6926359 C72.7173509,28.2577917 72.7843139,27.851694 72.9173813,27.474257 C73.050878,27.0968629 73.2427526,26.7697108 73.4930052,26.4928006 C73.7432578,26.2158905 74.0493129,25.9984898 74.4103119,25.8405558 C74.7717401,25.6825789 75.1778104,25.6036333 75.6293811,25.6036333 Z M92.4181965,25.6036333 C92.8736305,25.6036333 93.285281,25.6795326 93.6522895,25.8312883 C94.0197273,25.9830869 94.3317918,26.198471 94.5880539,26.4773976 C94.8447453,26.7563672 95.0417709,27.0937737 95.1791308,27.48966 C95.3164907,27.8855033 95.3851707,28.3275555 95.3851707,28.8157309 C95.3851707,29.3079822 95.3164907,29.7510213 95.1791308,30.1448481 C95.0417709,30.5386749 94.8447453,30.8750516 94.5880539,31.1540212 C94.3317918,31.4329908 94.0197273,31.6473022 93.6522895,31.7970414 C93.285281,31.9467805 92.8736305,32.0216501 92.4181965,32.0216501 C91.9623333,32.0216501 91.5511121,31.9467805 91.1836743,31.7970414 C90.8162365,31.6473022 90.5033135,31.4329908 90.2449052,31.1540212 C89.9864968,30.8750516 89.7873249,30.5386749 89.6478188,30.1448481 C89.5083126,29.7510213 89.4383449,29.3079822 89.4383449,28.8157309 C89.4383449,28.3275555 89.5083126,27.8855033 89.6478188,27.48966 C89.7873249,27.0937737 89.9864968,26.7563672 90.2449052,26.4773976 C90.5033135,26.198471 90.8162365,25.9830869 91.1836743,25.8312883 C91.5511121,25.6795326 91.9623333,25.6036333 92.4181965,25.6036333 Z M24.7547031,25.6036333 C25.1281504,25.6036333 25.4728379,25.6661891 25.7887657,25.7913006 C26.1051228,25.9164122 26.3776964,26.0969144 26.6077742,26.3328071 C26.8374228,26.5686999 27.0172785,26.8599404 27.1464826,27.2066144 C27.2756868,27.5532455 27.3400743,27.948102 27.3400743,28.391141 C27.3400743,28.5634054 27.3216165,28.6783055 27.284701,28.7357127 C27.2477856,28.7931627 27.1782471,28.8218663 27.0756564,28.8218663 L22.9262281,28.8218663 C22.9344697,29.2156931 22.9877825,29.5582482 23.0862953,29.8494887 C23.1848081,30.1407721 23.3202364,30.38383 23.4926231,30.5786625 C23.6648381,30.7735379 23.8700194,30.9191582 24.108253,31.0155661 C24.3464866,31.1119741 24.6130507,31.1601566 24.9083745,31.1601566 C25.1835236,31.1601566 25.4204695,31.1283639 25.6196413,31.0647784 C25.8188132,31.0011929 25.9900839,30.9325017 26.1334533,30.8586618 C26.2772519,30.784822 26.3974419,30.7160879 26.4935938,30.6525024 C26.590175,30.5889169 26.6734494,30.5571241 26.7429879,30.5571241 C26.8335596,30.5571241 26.903098,30.592006 26.9524618,30.661727 L27.2602338,31.0617321 C27.1250201,31.2258016 26.9627637,31.3683756 26.7738939,31.4893682 C26.585024,31.6104038 26.3828474,31.709858 26.167364,31.7878168 C25.9518806,31.8657755 25.7295293,31.9242124 25.4994514,31.9631703 C25.2698028,32.0021711 25.0418712,32.0216501 24.8160858,32.0216501 C24.3851191,32.0216501 23.9880631,31.94884 23.6249178,31.8032197 C23.2617726,31.6575566 22.9477764,31.444232 22.6830581,31.1632458 C22.4183398,30.8822597 22.2121282,30.534556 22.0643805,30.1202205 C21.9166327,29.7059279 21.8427588,29.2300664 21.8427588,28.6926359 C21.8427588,28.2577917 21.9094213,27.851694 22.0428321,27.474257 C22.1762,27.0968629 22.3680746,26.7697108 22.6184131,26.4928006 C22.8687945,26.2158905 23.174549,25.9984898 23.5357198,25.8405558 C23.8970622,25.6825789 24.3031324,25.6036333 24.7547031,25.6036333 Z M120.980474,25.7021007 L120.980474,31.9354965 L119.884599,31.9354965 L119.884599,25.7021007 L120.980474,25.7021007 Z M29.9215392,22.8715162 L29.9215392,31.9354965 L28.8257076,31.9354965 L28.8257076,22.8715162 L29.9215392,22.8715162 Z M130.230805,22.8715162 L130.230805,26.5389666 C130.497799,26.2558781 130.793122,26.0292529 131.117206,25.859005 C131.441719,25.6887572 131.815166,25.6036333 132.237977,25.6036333 C132.578372,25.6036333 132.879276,25.6600536 133.139831,25.7728514 C133.400385,25.8856492 133.618015,26.0456427 133.79229,26.2528318 C133.966566,26.4599781 134.099204,26.7092144 134.189346,27.0004549 C134.279489,27.2917383 134.324989,27.6137418 134.324989,27.9665512 L134.324989,31.9354965 L133.229115,31.9354965 L133.229115,27.9665512 C133.229115,27.4947657 133.121373,27.1286556 132.90589,26.8681782 C132.690406,26.6076578 132.361172,26.4773976 131.917757,26.4773976 C131.593673,26.4773976 131.290623,26.5553564 131.009464,26.711231 C130.728735,26.8671485 130.469039,27.0784136 130.230805,27.3450265 L130.230805,31.9354965 L129.134931,31.9354965 L129.134931,22.8715162 L130.230805,22.8715162 Z M53.3118292,25.689787 C53.3938159,25.689787 53.4616373,25.7102956 53.5148643,25.751313 C53.5680912,25.7923304 53.6050067,25.8436021 53.6256107,25.9051281 L54.9125014,29.9417778 C54.9575726,30.0853815 54.9974928,30.2268828 55.0322621,30.3663676 C55.0670313,30.5058524 55.100942,30.6432777 55.1339943,30.7786436 C55.1545982,30.6432777 55.1812117,30.5017335 55.2138347,30.3540538 C55.2468869,30.2063741 55.2816562,30.0689488 55.3185716,29.9417778 L56.5376409,25.9297557 C56.5582449,25.8641108 56.5968773,25.8097499 56.6543968,25.766716 C56.7119163,25.7236392 56.7797377,25.7021007 56.8578612,25.7021007 L57.6824499,25.7021007 L55.6632592,31.9354965 L54.7953162,31.9354965 C54.688433,31.9354965 54.6146021,31.8657755 54.5738234,31.7262907 L53.194644,27.4988846 C53.162021,27.404536 53.1354075,27.3091578 53.1148035,27.2127498 C53.0941995,27.1163418 53.0735956,27.0209636 53.0529916,26.9266151 C53.0323876,27.0209636 53.0122128,27.1173716 52.9916089,27.215839 C52.9710049,27.3142635 52.9443914,27.4106715 52.9113392,27.50502 L51.5141313,31.7262907 C51.4690601,31.8657755 51.3849271,31.9354965 51.2617324,31.9354965 L50.4367145,31.9354965 L48.4175237,25.7021007 L49.2794572,25.7021007 C49.3695996,25.7021007 49.4434306,25.724626 49.5009501,25.7697622 C49.5584695,25.8148985 49.5975312,25.8682297 49.6181352,25.9297557 L50.812308,29.9417778 C50.844931,30.0894575 50.8758369,30.2320314 50.9045967,30.3694568 C50.9333564,30.5068821 50.9578236,30.6453372 50.9784276,30.784822 C51.0114799,30.6453372 51.0483953,30.5068821 51.0891741,30.3694568 C51.130382,30.2320314 51.173307,30.0894575 51.2183782,29.9417778 L52.5361749,25.9051281 C52.5563496,25.8436021 52.5924066,25.7923304 52.6439166,25.751313 C52.6949973,25.7102956 52.759814,25.689787 52.8375082,25.689787 L53.3118292,25.689787 Z M17.1805917,23.1176633 C17.738788,23.1176633 18.2210072,23.1740407 18.6273349,23.2868814 C19.0336198,23.3996792 19.3691643,23.5627618 19.6338826,23.7760436 C19.8986009,23.9893682 20.0945534,24.2467994 20.2217831,24.5483371 C20.3490127,24.8498319 20.4126275,25.1872384 20.4126275,25.5605565 C20.4126275,25.8723486 20.3633926,26.163589 20.2648797,26.4343208 C20.1664099,26.7050955 20.0237702,26.9481535 19.8370465,27.1635376 C19.65028,27.3788787 19.4225201,27.5624701 19.153681,27.7142687 C18.8848419,27.8660243 18.5801175,27.9808816 18.2394649,28.0588403 C18.3872126,28.1449939 18.5185631,28.2701055 18.6334732,28.4342179 L21.2067824,31.9354965 L20.1479092,31.9354965 C19.9304084,31.9354965 19.7703411,31.8514023 19.6677504,31.6832139 L17.3776173,28.5326424 C17.3078213,28.4342179 17.231887,28.3634243 17.1498145,28.3203475 C17.0677419,28.2772707 16.9446331,28.2557752 16.7804451,28.2557752 L15.8755008,28.2557752 L15.8755008,31.9354965 L14.6873375,31.9354965 L14.6873375,23.1176633 L17.1805917,23.1176633 Z M105.430044,25.7021007 L105.430044,31.9354965 L104.334169,31.9354965 L104.334169,25.7021007 L105.430044,25.7021007 Z M67.1624302,25.7021007 C67.2487094,25.7021007 67.3208233,25.724626 67.3779136,25.7697622 C67.435433,25.8148985 67.476641,25.8682297 67.5011082,25.9297557 L69.0833227,29.9417778 C69.1408422,30.0894575 69.1859134,30.2371371 69.2189656,30.3848168 C69.2515886,30.5325394 69.2824946,30.6781597 69.3112543,30.8217205 C69.3438773,30.6781597 69.3790758,30.5325394 69.4159913,30.3848168 C69.4529067,30.2371371 69.5001242,30.0894575 69.5572144,29.9417778 L71.1578867,25.9297557 C71.1827832,25.8641108 71.2227034,25.8097499 71.2780766,25.766716 C71.3334498,25.7236392 71.4021298,25.7021007 71.4841165,25.7021007 L72.3400404,25.7021007 L69.7975943,31.9354965 L68.8064567,31.9354965 L66.2640105,25.7021007 L67.1624302,25.7021007 Z M117.771403,25.5913195 C117.943532,25.5913195 118.099779,25.6107985 118.239285,25.6497993 C118.378791,25.6887572 118.507995,25.7431181 118.626897,25.8128391 L118.485245,26.6312557 C118.456485,26.7337991 118.392956,26.7850708 118.294658,26.7850708 C118.237139,26.7850708 118.148713,26.7655919 118.029811,26.7266339 C117.910909,26.687676 117.744789,26.6681542 117.531023,26.6681542 C117.14942,26.6681542 116.830487,26.7789354 116.573796,27.0004549 C116.317534,27.2219744 116.102909,27.5440208 115.93035,27.9665512 L115.93035,31.9354965 L114.834905,31.9354965 L114.834905,25.7021007 L115.462468,25.7021007 C115.5818,25.7021007 115.663786,25.724626 115.708858,25.7697622 C115.753929,25.8148985 115.784835,25.8928572 115.801146,26.0035956 L115.874977,26.9758273 C116.088744,26.5409832 116.352303,26.2015172 116.666085,25.9574725 C116.980295,25.7133848 117.348592,25.5913195 117.771403,25.5913195 Z M38.4391845,25.7021007 C38.5297562,25.7021007 38.5954314,25.7164311 38.6362101,25.7451776 C38.6774181,25.7738811 38.7143336,25.8148985 38.7473858,25.8682297 L40.2737979,28.20652 C40.3107133,28.0916628 40.3643696,27.9768056 40.433908,27.8619484 L41.7761719,25.8928572 C41.8169506,25.8354072 41.8581586,25.7892412 41.8993666,25.7544022 C41.9401453,25.7195203 41.9916553,25.7021007 42.053038,25.7021007 L43.0626334,25.7021007 L40.9636022,28.6803221 L43.1489126,31.9354965 L42.0963922,31.9354965 C42.0058205,31.9354965 41.9349943,31.9118986 41.8839136,31.8647458 C41.8324036,31.8175501 41.7903372,31.7652486 41.7577142,31.7078415 L40.1879479,29.2649054 C40.1591882,29.3838815 40.115834,29.4905438 40.0583145,29.5848923 L38.6057334,31.7078415 C38.5645254,31.7652486 38.5203127,31.8175501 38.4730953,31.8647458 C38.4258778,31.9118986 38.3614903,31.9354965 38.2795036,31.9354965 L37.300385,31.9354965 L39.4861246,28.741891 L37.3866642,25.7021007 L38.4391845,25.7021007 Z M35.3224022,29.1295395 C34.8176046,29.1459293 34.3887841,29.1859598 34.0359408,29.2495453 C33.6826683,29.3131308 33.3955002,29.3961953 33.1740073,29.4987387 C32.9525145,29.6012821 32.7911166,29.7223177 32.6906721,29.8618025 C32.5902277,30.0012873 32.5400055,30.1571619 32.5400055,30.3294691 C32.5400055,30.4935386 32.566619,30.6350828 32.6198459,30.754059 C32.6730729,30.8729922 32.7451869,30.9704299 32.8353293,31.0463292 C32.9254717,31.1222284 33.0323549,31.1776191 33.1555496,31.2124581 C33.2787443,31.24734 33.4118117,31.2647595 33.5556103,31.2647595 C33.7483435,31.2647595 33.9251944,31.2452806 34.0848753,31.2063226 C34.2449854,31.1673647 34.3960813,31.1119741 34.5377337,31.0401937 C34.6789569,30.9683704 34.8145998,30.88123 34.943804,30.7786436 C35.0730081,30.6761002 35.1992076,30.5591836 35.3224022,30.4278936 L35.3224022,29.1295395 Z M92.4181965,26.4651268 C92.106132,26.4651268 91.8352754,26.5184579 91.6056268,26.6250773 C91.3755489,26.7317397 91.1836743,26.8855977 91.0300029,27.0866085 C90.8759023,27.2876194 90.7608633,27.5347962 90.6848861,27.8280962 C90.6093382,28.1213961 90.5711349,28.4526671 90.5711349,28.8218663 C90.5711349,29.1910655 90.6093382,29.5213068 90.6848861,29.8125902 C90.7608633,30.1038307 90.8759023,30.3489481 91.0300029,30.5478995 C91.1836743,30.7468509 91.3755489,30.8996792 91.6056268,31.0063415 C91.8352754,31.1130038 92.106132,31.166335 92.4181965,31.166335 C93.0337406,31.166335 93.4934671,30.9601755 93.7969467,30.5478995 C94.1008555,30.1356234 94.2528099,29.5602648 94.2528099,28.8218663 C94.2528099,28.079349 94.1008555,27.500944 93.7969467,27.0866085 C93.4934671,26.6722731 93.0337406,26.4651268 92.4181965,26.4651268 Z M85.7364952,26.3851086 C85.2973728,26.3851086 84.9621287,26.4979063 84.7303339,26.7235448 C84.4981098,26.9491832 84.3822123,27.2527375 84.3822123,27.6342505 C84.3822123,27.8188715 84.4122598,27.9880896 84.4714963,28.1419048 C84.531162,28.2957628 84.6182997,28.4280395 84.7333386,28.5388207 C84.8479483,28.6495591 84.9896007,28.7357127 85.1578666,28.7972387 C85.3261325,28.8588077 85.5192949,28.8895707 85.7364952,28.8895707 C85.9584174,28.8895707 86.1541552,28.8588077 86.3245674,28.7972387 C86.4949795,28.7357127 86.6374904,28.6495591 86.7525294,28.5388207 C86.8675683,28.4280395 86.9534182,28.2957628 87.0109377,28.1419048 C87.0684572,27.9880896 87.0972169,27.8188715 87.0972169,27.6342505 C87.0972169,27.2527375 86.9813195,26.9491832 86.7495246,26.7235448 C86.5173005,26.4979063 86.1799102,26.3851086 85.7364952,26.3851086 Z M124.977647,26.3851086 C124.538525,26.3851086 124.203281,26.4979063 123.971056,26.7235448 C123.739262,26.9491832 123.623364,27.2527375 123.623364,27.6342505 C123.623364,27.8188715 123.652982,27.9880896 123.712648,28.1419048 C123.772314,28.2957628 123.859451,28.4280395 123.97449,28.5388207 C124.0891,28.6495591 124.230753,28.7357127 124.399018,28.7972387 C124.567284,28.8588077 124.760447,28.8895707 124.977647,28.8895707 C125.199569,28.8895707 125.395307,28.8588077 125.565719,28.7972387 C125.736131,28.7357127 125.878642,28.6495591 125.993681,28.5388207 C126.108291,28.4280395 126.19457,28.2957628 126.252089,28.1419048 C126.309609,27.9880896 126.338369,27.8188715 126.338369,27.6342505 C126.338369,27.2527375 126.222471,26.9491832 125.990676,26.7235448 C125.758452,26.4979063 125.421062,26.3851086 124.977647,26.3851086 Z M24.7791704,26.4097362 C24.2499055,26.4097362 23.833104,26.5625216 23.5295386,26.8681782 C23.2258444,27.1737919 23.0370603,27.597352 22.9631865,28.1388585 L26.3553754,28.1388585 C26.3553754,27.8845165 26.3201769,27.6517129 26.2506384,27.4404048 C26.1806707,27.2291396 26.0780801,27.0466209 25.9428664,26.8927629 C25.8072235,26.7389477 25.6419623,26.6199716 25.447083,26.5358774 C25.2522036,26.4517832 25.029423,26.4097362 24.7791704,26.4097362 Z M61.1194525,26.4097362 C60.5901876,26.4097362 60.1738153,26.5625216 59.8699065,26.8681782 C59.566427,27.1737919 59.3775571,27.597352 59.3037261,28.1388585 L62.6956575,28.1388585 C62.6956575,27.8845165 62.6608883,27.6517129 62.5909206,27.4404048 C62.5213821,27.2291396 62.4187914,27.0466209 62.2831485,26.8927629 C62.1479348,26.7389477 61.9826737,26.6199716 61.7877943,26.5358774 C61.5924857,26.4517832 61.3701343,26.4097362 61.1194525,26.4097362 Z M75.6538483,26.4097362 C75.1245834,26.4097362 74.7077819,26.5625216 74.4043024,26.8681782 C74.1003936,27.1737919 73.9119529,27.597352 73.8376927,28.1388585 L77.2300533,28.1388585 C77.2300533,27.8845165 77.1952841,27.6517129 77.1253164,27.4404048 C77.0553487,27.2291396 76.952758,27.0466209 76.8175444,26.8927629 C76.6819014,26.7389477 76.5170695,26.6199716 76.3217609,26.5358774 C76.1268815,26.4517832 75.9045302,26.4097362 75.6538483,26.4097362 Z M17.1805917,24.059132 L15.8755008,24.059132 L15.8755008,27.3881034 L17.1252184,27.3881034 C17.4740697,27.3881034 17.7808545,27.3460563 18.0455728,27.2619621 C18.3102911,27.1778679 18.5319127,27.0589347 18.7104377,26.9050767 C18.8889627,26.7512615 19.0233607,26.5676702 19.1136749,26.3543455 C19.2039461,26.1410209 19.2491032,25.9051281 19.2491032,25.6467101 C19.2491032,25.1215934 19.0756863,24.7257501 18.7288954,24.4590943 C18.3821046,24.1924385 17.8660176,24.059132 17.1805917,24.059132 Z M65.2462594,22.6561321 C65.3651616,22.853067 65.4514408,23.0499589 65.5046677,23.2468509 C65.5583239,23.4437857 65.5849374,23.6406777 65.5849374,23.8376125 C65.5849374,24.2108877 65.4935072,24.5667863 65.3106469,24.9052225 C65.1282157,25.2436587 64.8749584,25.5544211 64.5504456,25.8374666 L64.2117675,25.6282609 C64.1791446,25.6077522 64.1576821,25.5851841 64.1473801,25.5605565 C64.1370781,25.5359289 64.1319271,25.5113442 64.1319271,25.4867167 C64.1319271,25.4292666 64.1525311,25.3800543 64.1933098,25.339037 C64.258985,25.2610782 64.3229432,25.1759543 64.3843259,25.0836652 C64.4457086,24.9913762 64.5010819,24.8949682 64.5504456,24.7944413 C64.5998093,24.6939573 64.638871,24.5883247 64.6676308,24.4775435 C64.6963905,24.3668052 64.7105557,24.2498885 64.7105557,24.1267935 C64.7105557,23.9955465 64.6912395,23.8601806 64.6521778,23.7206958 C64.613116,23.5812111 64.5465823,23.4335314 64.4521474,23.2776568 C64.4233877,23.2325205 64.4087932,23.1873842 64.4087932,23.142248 C64.4087932,23.0438235 64.4641664,22.9720002 64.5753421,22.9269068 L65.2462594,22.6561321 Z M104.88833,22.9576698 C104.995214,22.9576698 105.095658,22.9781785 105.190093,23.0191959 C105.284528,23.0602132 105.367373,23.1166336 105.439487,23.188414 C105.511172,23.2601944 105.568691,23.3442886 105.611616,23.4406965 C105.65497,23.5371045 105.676433,23.6386182 105.676433,23.7452805 C105.676433,23.8519428 105.65497,23.95144 105.611616,24.0437291 C105.568691,24.1360182 105.511172,24.2180958 105.439487,24.2898762 C105.367373,24.3616566 105.284528,24.4180769 105.190093,24.4590943 C105.095658,24.5001117 104.995214,24.5206203 104.88833,24.5206203 C104.781877,24.5206203 104.682291,24.5001117 104.590002,24.4590943 C104.497713,24.4180769 104.415297,24.3616566 104.343613,24.2898762 C104.271928,24.2180958 104.215267,24.1360182 104.174488,24.0437291 C104.13328,23.95144 104.112676,23.8519428 104.112676,23.7452805 C104.112676,23.6386182 104.13328,23.5371045 104.174488,23.4406965 C104.215267,23.3442886 104.271928,23.2601944 104.343613,23.188414 C104.415297,23.1166336 104.497713,23.0602132 104.590002,23.0191959 C104.682291,22.9781785 104.781877,22.9576698 104.88833,22.9576698 Z M120.43876,22.9576698 C120.545644,22.9576698 120.646088,22.9781785 120.740523,23.0191959 C120.834958,23.0602132 120.917803,23.1166336 120.989917,23.188414 C121.061602,23.2601944 121.119121,23.3442886 121.162046,23.4406965 C121.2054,23.5371045 121.226863,23.6386182 121.226863,23.7452805 C121.226863,23.8519428 121.2054,23.95144 121.162046,24.0437291 C121.119121,24.1360182 121.061602,24.2180958 120.989917,24.2898762 C120.917803,24.3616566 120.834958,24.4180769 120.740523,24.4590943 C120.646088,24.5001117 120.545644,24.5206203 120.43876,24.5206203 C120.331877,24.5206203 120.232721,24.5001117 120.140003,24.4590943 C120.047714,24.4180769 119.965727,24.3616566 119.894042,24.2898762 C119.821929,24.2180958 119.765697,24.1360182 119.724489,24.0437291 C119.68371,23.95144 119.663106,23.8519428 119.663106,23.7452805 C119.663106,23.6386182 119.68371,23.5371045 119.724489,23.4406965 C119.765697,23.3442886 119.821929,23.2601944 119.894042,23.188414 C119.965727,23.1166336 120.047714,23.0602132 120.140003,23.0191959 C120.232721,22.9781785 120.331877,22.9576698 120.43876,22.9576698 Z M118.061575,-5.32907052e-15 C119.029534,-5.32907052e-15 119.938255,0.19946626 120.78774,0.598484591 C121.637226,0.997502922 122.384549,1.5620495 123.030141,2.29212433 C123.675303,3.02219916 124.185252,3.9051023 124.558699,4.94083375 C124.932576,5.9765223 125.119299,7.13110115 125.119299,8.40448449 C125.119299,9.69490119 124.932576,10.8579324 124.558699,11.8936638 C124.185252,12.9293524 123.675303,13.8165031 123.030141,14.5550732 C122.384549,15.2936432 121.637226,15.8624374 120.78774,16.2614558 C119.938255,16.6604312 119.029534,16.8599403 118.061575,16.8599403 C117.093188,16.8599403 116.180174,16.6604312 115.322104,16.2614558 C114.464463,15.8624374 113.717139,15.2936432 113.080132,14.5550732 C112.443126,13.8165031 111.937899,12.9293524 111.564022,11.8936638 C111.190146,10.8579324 111.003422,9.69490119 111.003422,8.40448449 C111.003422,7.13110115 111.190146,5.9765223 111.564022,4.94083375 C111.937899,3.9051023 112.443126,3.02219916 113.080132,2.29212433 C113.717139,1.5620495 114.464463,0.997502922 115.322104,0.598484591 C116.180174,0.19946626 117.093188,-5.32907052e-15 118.061575,-5.32907052e-15 Z M92.874489,-5.32907052e-15 C93.7917957,-5.32907052e-15 94.5944927,0.114599781 95.2821507,0.343799342 C95.970238,0.572998904 96.5179607,0.857417454 96.9257479,1.19701209 L96.6707736,4.3550491 C96.2801564,4.01545447 95.8002552,3.72258359 95.2314993,3.47639357 C94.6623141,3.23020356 94.021015,3.10710855 93.307602,3.10710855 C92.7130911,3.10710855 92.1696609,3.23869878 91.6768823,3.50187926 C91.1841036,3.76501683 90.7509906,4.13009715 90.3775433,4.59699151 C90.0036668,5.06392876 89.7147817,5.62847534 89.5108881,6.29063125 C89.3074237,6.95283005 89.2052623,7.69140011 89.2052623,8.50638433 C89.2052623,9.28738763 89.3031312,10.0047625 89.4984399,10.6584232 C89.6937485,11.3121268 89.9611711,11.8724257 90.3011369,12.3393201 C90.6406734,12.8062573 91.0441682,13.1712948 91.5111919,13.4344752 C91.9782156,13.6976557 92.4838717,13.829246 93.0273019,13.829246 C93.6728935,13.829246 94.1909979,13.7019033 94.5816152,13.4472181 L94.5816152,10.5947519 L92.415621,10.5947519 L92.415621,7.84418552 L97.7413224,7.84418552 L97.7413224,15.2809004 C97.214633,15.7733233 96.5518714,16.1595559 95.7538962,16.4397268 C94.9554917,16.7198549 93.9956893,16.8599403 92.874489,16.8599403 C91.9400123,16.8599403 91.0398757,16.673174 90.1736497,16.2996414 C89.3074237,15.9261087 88.54293,15.3828002 87.8801684,14.6696729 C87.2178361,13.9565886 86.6911466,13.0779331 86.3005294,12.0337064 C85.9099121,10.9895226 85.7146035,9.78826289 85.7146035,8.42997017 C85.7146035,7.07167745 85.9142046,5.86617013 86.3134069,4.81349113 C86.7126091,3.76081212 87.2474543,2.87790898 87.9188009,2.16478171 C88.5897182,1.45165443 89.3537827,0.912593537 90.2118529,0.547556122 C91.0694939,0.182518707 91.9571823,-5.32907052e-15 92.874489,-5.32907052e-15 Z M130.278881,0.305613717 L130.278881,11.3842933 C130.278881,12.1143681 130.49136,12.6916576 130.915888,13.1161187 C131.340845,13.5405798 131.909601,13.7528318 132.623014,13.7528318 C133.336427,13.7528318 133.909905,13.5405798 134.343018,13.1161187 C134.776131,12.6916576 134.992902,12.1228634 134.992902,11.4097361 L134.992902,0.305613717 L138.407154,0.305613717 L138.407154,11.6644213 C138.407154,12.4794056 138.258634,13.2052757 137.961164,13.8419459 C137.664123,14.478659 137.252043,15.0177628 136.725354,15.4592144 C136.199093,15.900666 135.58312,16.2402177 134.878292,16.4779125 C134.173035,16.7156073 133.413263,16.8344976 132.597688,16.8344976 C131.782543,16.8344976 131.022342,16.7156073 130.317084,16.4779125 C129.612256,16.2402177 128.996712,15.900666 128.470023,15.4592144 C127.943333,15.0177628 127.531254,14.478659 127.234213,13.8419459 C126.936743,13.2052757 126.788222,12.4794056 126.788222,11.6644213 L126.788222,0.305613717 L130.278881,0.305613717 Z M28.8179811,0.305613717 L31.6716333,7.36030071 C31.9094376,7.92059967 32.1429495,8.51487956 32.3721688,9.14309745 C32.6013882,9.77127244 32.8009893,10.3655523 32.9709722,10.9258513 L33.0220529,10.9258513 C33.2087766,10.3655523 33.4083777,9.77127244 33.6208563,9.14309745 C33.8333349,8.51487956 34.0582618,7.92059967 34.2960661,7.36030071 L37.1497183,0.305613717 L39.9780448,0.305613717 L41.1756515,16.5543266 L37.8120507,16.5543266 L37.4046927,10.8239943 C37.3707819,10.3994903 37.3407345,9.94109121 37.3154087,9.44871117 C37.290083,8.95628822 37.2857905,8.45545586 37.3025312,7.94608536 L37.2518798,7.94608536 C37.0986376,8.4384654 36.929084,8.93934067 36.7419311,9.44871117 C36.5552075,9.95803876 36.3684838,10.4334712 36.1813309,10.8749228 L33.8371982,16.5798123 L32.155827,16.5798123 L29.7606135,10.8749228 C29.5738899,10.4504617 29.3910295,9.98352444 29.2128908,9.47415395 C29.0343229,8.96478345 28.8686325,8.45545586 28.7158196,7.94608536 L28.6647389,7.94608536 C28.6647389,8.48939387 28.6565832,8.99026914 28.6394132,9.44871117 C28.6226725,9.90711029 28.5969175,10.3655523 28.5630067,10.8239943 L28.1298938,16.5543266 L24.8173736,16.5543266 L25.9896546,0.305613717 L28.8179811,0.305613717 Z M145.45243,0.305613717 C146.080851,0.305613717 146.67107,0.420213498 147.223085,0.64941306 C147.7751,0.878655526 148.259294,1.2012168 148.675666,1.61722558 C149.091609,2.03319147 149.42299,2.53831435 149.669379,3.13259423 C149.915769,3.72683121 150.038534,4.38898711 150.038534,5.11910485 C150.038534,5.84917968 149.915769,6.51137848 149.669379,7.10561546 C149.42299,7.69989534 149.091609,8.20922293 148.675666,8.63372695 C148.259294,9.05818806 147.7751,9.38503985 147.223085,9.61423942 C146.67107,9.84343898 146.080851,9.95803876 145.45243,9.95803876 L143.872791,9.95803876 L143.872791,16.5543266 L140.483864,16.5543266 L140.483864,0.305613717 L145.45243,0.305613717 Z M105.041143,0.305613717 C105.652824,0.305613717 106.23875,0.420213498 106.79935,0.64941306 C107.35995,0.878655526 107.848007,1.2012168 108.26438,1.61722558 C108.680323,2.03319147 109.011703,2.53831435 109.258093,3.13259423 C109.504482,3.72683121 109.627677,4.38898711 109.627677,5.11910485 C109.627677,6.01895554 109.432368,6.81274459 109.041322,7.50038618 C108.650704,8.18802777 108.166511,8.69315065 107.58917,9.01575482 L111.691509,16.5543266 L107.86947,16.5543266 L104.404137,9.95803876 L103.385098,9.95803876 L103.385098,16.5543266 L99.9961713,16.5543266 L99.9961713,0.305613717 L105.041143,0.305613717 Z M79.1663989,0.305613717 L79.1663989,1.14604071 L75.7263915,9.44871117 C75.4546765,10.0938766 75.1533432,10.7900134 74.8219624,11.5370787 C74.4905816,12.284144 74.1978333,12.9463428 73.9428589,13.5236322 L73.9681847,13.549075 L79.3956182,13.549075 L79.3956182,16.5543266 L69.432732,16.5543266 L69.432732,15.7138996 L72.8727393,7.43671486 C73.1272844,6.80849697 73.420462,6.11660777 73.7518428,5.36104725 C74.0827943,4.60548674 74.3931419,3.93058799 74.6815977,3.33630811 L74.656272,3.31086533 L69.865845,3.31086533 L69.865845,0.305613717 L79.1663989,0.305613717 Z M18.7022819,0.229199562 L23.747254,16.5543266 L20.2820497,16.5543266 L19.2883366,12.9887761 L15.2879437,12.9887761 L14.2942306,16.5543266 L7.87329854,16.5543266 L4.4080084,9.95803876 L3.38884077,9.95803876 L3.38884077,16.5543266 L1.1812773e-13,16.5543266 L1.1812773e-13,0.305613717 L5.045015,0.305613717 C5.65652416,0.305613717 6.24257882,0.420213498 6.80313604,0.64941306 C7.36369326,0.878655526 7.85205068,1.2012168 8.26825122,1.61722558 C8.68440883,2.03319147 9.01566085,2.53831435 9.26196434,3.13259423 C9.50826784,3.72683121 9.63141959,4.38898711 9.63141959,5.11910485 C9.63141959,6.01895554 9.43606803,6.81274459 9.04536493,7.50038618 C8.65466183,8.18802777 8.17055398,8.69315065 7.59299847,9.01575482 L11.257,15.749 L16.0778491,0.229199562 L18.7022819,0.229199562 Z M46.3736941,0.305613717 L46.3736941,16.5543266 L42.857452,16.5543266 L42.857452,0.305613717 L46.3736941,0.305613717 Z M53.7372156,0.305613717 C54.3488965,0.305613717 54.9348224,0.420213498 55.4954225,0.64941306 C56.0560227,0.878655526 56.5440796,1.2012168 56.9604519,1.61722558 C57.3768241,2.03319147 57.7077756,2.53831435 57.954165,3.13259423 C58.2005543,3.72683121 58.323749,4.38898711 58.323749,5.11910485 C58.323749,6.01895554 58.1284404,6.81274459 57.7373939,7.50038618 C57.3467766,8.18802777 56.8625829,8.69315065 56.285242,9.01575482 L60.3875817,16.5543266 L56.5655421,16.5543266 L53.100209,9.95803876 L52.0811702,9.95803876 L52.0811702,16.5543266 L48.6922436,16.5543266 L48.6922436,0.305613717 L53.7372156,0.305613717 Z M68.6175868,0.305613717 L68.6175868,3.23445117 L64.1585406,3.23445117 L64.1585406,6.92734437 L67.7766866,6.92734437 L67.7766866,9.88166751 L64.1585406,9.88166751 L64.1585406,13.6254892 L69.1524319,13.6254892 L69.1524319,16.5543266 L60.6678818,16.5543266 L60.6678818,0.305613717 L68.6175868,0.305613717 Z M118.061575,3.15803701 C117.602707,3.15803701 117.165302,3.28537964 116.749359,3.54006489 C116.332987,3.79475014 115.963403,4.15129232 115.640607,4.60973435 C115.31824,5.06817638 115.063266,5.61998011 114.876542,6.26518846 C114.68939,6.91035391 114.596242,7.62348119 114.596242,8.40448449 C114.596242,9.20252115 114.68939,9.92410075 114.876542,10.5693091 C115.063266,11.2144745 115.31824,11.7663212 115.640607,12.2247203 C115.963403,12.6831623 116.332987,13.0397045 116.749359,13.2943898 C117.165302,13.549075 117.602707,13.6764176 118.061575,13.6764176 C118.520014,13.6764176 118.95742,13.549075 119.373792,13.2943898 C119.789735,13.0397045 120.155026,12.6831623 120.469237,12.2247203 C120.783448,11.7663212 121.038422,11.2144745 121.233731,10.5693091 C121.42904,9.92410075 121.526479,9.20252115 121.526479,8.40448449 C121.526479,7.62348119 121.42904,6.91035391 121.233731,6.26518846 C121.038422,5.61998011 120.783448,5.06817638 120.469237,4.60973435 C120.155026,4.15129232 119.789735,3.79475014 119.373792,3.54006489 C118.95742,3.28537964 118.520014,3.15803701 118.061575,3.15803701 Z M17.3008674,5.5265755 L17.2499155,5.5265755 C17.2159618,5.81524167 17.164967,6.0953697 17.0970597,6.3670454 C17.0291094,6.63872111 16.9526601,6.89336345 16.8677115,7.13110115 L16.0013997,10.3146238 L18.5748806,10.3146238 L17.6830714,7.13110115 C17.5981658,6.89336345 17.525966,6.63872111 17.4665149,6.3670454 C17.4070638,6.0953697 17.3518194,5.81524167 17.3008674,5.5265755 Z M4.58636166,3.10710855 L3.38884077,3.10710855 L3.38884077,7.10561546 L4.58636166,7.10561546 C4.99406306,7.10561546 5.36776787,6.94008721 5.70747611,6.60898781 C6.04722727,6.2778884 6.21708139,5.78126075 6.21708139,5.11910485 C6.21708139,4.45690604 6.04722727,3.95603077 5.70747611,3.61647904 C5.36776787,3.27688441 4.99406306,3.10710855 4.58636166,3.10710855 Z M53.2787769,3.10710855 L52.0811702,3.10710855 L52.0811702,7.10561546 L53.2787769,7.10561546 C53.6861349,7.10561546 54.0600114,6.94008721 54.399548,6.60898781 C54.7395138,6.2778884 54.9094967,5.78126075 54.9094967,5.11910485 C54.9094967,4.45690604 54.7395138,3.95603077 54.399548,3.61647904 C54.0600114,3.27688441 53.6861349,3.10710855 53.2787769,3.10710855 Z M104.582705,3.10710855 L103.385098,3.10710855 L103.385098,7.10561546 L104.582705,7.10561546 C104.990063,7.10561546 105.363939,6.94008721 105.703476,6.60898781 C106.043441,6.2778884 106.213424,5.78126075 106.213424,5.11910485 C106.213424,4.45690604 106.043441,3.95603077 105.703476,3.61647904 C105.363939,3.27688441 104.990063,3.10710855 104.582705,3.10710855 Z M145.019317,3.10710855 L143.872791,3.10710855 L143.872791,7.10561546 L145.019317,7.10561546 C145.426675,7.10561546 145.800551,6.94008721 146.140517,6.60898781 C146.480054,6.2778884 146.650037,5.78126075 146.650037,5.11910485 C146.650037,4.45690604 146.480054,3.95603077 146.140517,3.61647904 C145.800551,3.27688441 145.426675,3.10710855 145.019317,3.10710855 Z" id="Combined-Shape"></path>
                    </g>
                    <g id="Iso">
                        <path d="M168.317447,84.1199289 C168.317447,130.578105 130.638335,168.239858 84.1587449,168.239858 C37.679112,168.239858 -1.42108547e-14,130.578105 -1.42108547e-14,84.1199289 C-1.42108547e-14,37.6617527 37.679112,0 84.1587449,0 C130.638335,0 168.317447,37.6617527 168.317447,84.1199289" id="Fill-34" fill="#000000"></path>
                        <path d="M168.317447,84.1199289 C168.317447,130.578105 130.638335,168.239858 84.1587449,168.239858 C37.679112,168.239858 -1.42108547e-14,130.578105 -1.42108547e-14,84.1199289 C-1.42108547e-14,37.6617527 37.679112,0 84.1587449,0 C130.638335,0 168.317447,37.6617527 168.317447,84.1199289 Z" id="Stroke-35" stroke="#000000" stroke-width="0.5"></path>
                        <path d="M81.4085419,108.650117 C80.0242115,108.650117 79.746487,106.965659 79.3618792,104.63462 C79.1206409,103.172411 78.8205953,101.352372 78.2059097,99.5211784 C77.5903656,97.6908427 76.7314369,96.0583 76.040774,94.746259 C75.0929906,92.945957 74.4667153,91.7566249 74.8259973,90.8603354 C74.9298757,90.601188 75.1676801,90.2540849 75.710681,90.0717379 C75.9158624,90.0026605 76.1326335,89.9679073 76.3554141,89.9679073 C78.500375,89.9679073 81.1097841,93.275898 82.7010129,98.0126317 C83.4989881,100.387434 83.8977611,102.750224 83.8243594,104.665941 C83.7428019,106.793609 83.0671629,108.176873 81.9214953,108.561303 C81.7459322,108.620084 81.5733738,108.650117 81.4085419,108.650117 L81.4085419,108.650117 Z M62.4464351,78.4384228 C58.9506253,78.4384228 55.808088,79.8637334 53.3596476,82.560325 C49.3817903,86.9409456 47.6570649,94.1541673 48.5031161,102.871645 C50.1153781,119.527014 59.6713356,125.461231 68.0769038,125.461231 C74.6431369,125.461231 80.6693739,121.981191 83.8041847,116.379059 C87.5850163,109.622349 86.6196336,100.941769 81.0853169,91.9372558 C75.8012527,83.3587908 69.007088,78.4384228 62.4464351,78.4384228 L62.4464351,78.4384228 Z M67.5763986,150.523444 C51.5361947,150.521299 38.4833972,141.936398 31.7652097,126.970636 C29.2931605,121.485207 28.2904332,116.062848 28.51536,109.390232 C28.6583002,105.915769 29.0836867,102.42586 29.4944787,99.0509374 L29.5352574,98.7149898 C30.0194511,94.6565872 30.4658708,90.6797045 30.60366,86.6573423 L30.6616087,85.0544041 C30.8328793,80.3781667 31.009301,75.5431801 30.897696,70.7982944 C30.853054,68.7362706 30.7423076,66.6334869 30.6354244,64.5993515 L30.5804805,63.5490323 C30.5564425,63.1058216 30.5293998,62.6454489 30.5019278,62.1722045 C30.177415,56.6078296 29.773491,49.6829308 31.8939846,44.8475151 C32.5163968,43.4827008 33.2345315,42.3397064 34.093031,41.3447348 C37.1093689,37.81235 45.0502313,33.9967908 52.616187,33.9967908 C53.513319,33.9967908 54.3529315,34.0607196 55.1109865,34.1864318 C56.6219455,34.4279881 58.1110128,34.9548639 59.5326879,35.7516134 C62.7675139,37.5755133 65.358036,40.6955792 67.2536028,43.2106819 C68.8358173,45.2915839 70.4081591,47.7213052 71.9285616,50.0707938 C73.1815416,52.0071053 74.4774465,54.0094908 75.7385822,55.7480094 C78.6604851,59.7708007 81.8575371,63.6914776 84.9494229,67.4830098 L85.5482263,68.2171177 C88.1142812,71.3449066 90.869206,74.2427236 93.7013957,77.1825877 L93.9211715,77.4099852 C96.2919178,79.8585848 98.743363,82.3904205 100.938117,85.0844378 C105.070075,90.1429605 107.626257,95.2182162 108.981398,101.056326 C112.586238,116.75448 107.156228,127.812436 101.966599,134.324587 C94.0031582,144.316349 80.827767,150.523444 67.5824081,150.523444 L67.5763986,150.523444 Z M51.8293723,29.8328415 C44.6291373,29.8328415 35.7108732,33.3879661 31.9497871,37.7574313 C30.9745317,38.9158716 30.161962,40.2223349 29.5395499,41.634774 C27.1215861,47.1442303 27.4915994,54.4690055 27.7886402,60.3547404 L27.7989422,60.5585401 C27.9371606,63.0118593 28.078813,65.52782 28.150927,68.0064532 C28.2440742,72.8109772 28.0697988,77.6665583 27.9011037,82.362103 L27.831136,84.3327387 C27.6710258,88.6953391 27.1739546,93.0223282 26.7206669,96.735773 L26.6163592,97.6247687 C26.220591,100.973948 25.8119452,104.437256 25.6904675,107.842641 C25.4277667,114.86279 26.4815748,120.61037 29.1072954,126.479372 C36.2216804,142.311389 50.0209432,151.393561 66.9655763,151.393561 C81.0041887,151.393561 94.9621021,144.821772 103.392996,134.241351 C108.87151,127.366651 114.600707,115.683566 110.784247,99.0680995 C109.337676,92.8202448 106.714101,87.5991114 102.276518,82.1402832 C99.8461056,79.1888347 97.1280963,76.3858382 94.729878,73.9127826 C92.1264784,71.2256301 89.1182963,68.0755306 86.3565036,64.6928849 L85.176496,63.2439764 C82.1850547,59.5747239 79.0923104,55.7806174 76.2665594,51.8633729 C74.9667912,50.0793748 73.70308,48.2202926 72.4814353,46.4225649 C70.971764,44.2013628 69.4105827,41.9042186 67.7708488,39.7353609 C65.7572383,37.0735225 62.9958748,33.7638156 59.4919092,31.7807374 C57.9624924,30.9084748 56.3562399,30.340839 54.5795753,30.0443641 C53.7433968,29.9040641 52.8183637,29.8328415 51.8293723,29.8328415 L51.8293723,29.8328415 Z M66.7608241,154.531647 C48.3837847,154.531647 33.4208259,144.681043 25.7080668,127.506093 C20.5995658,116.140077 21.7611155,106.497992 22.990916,96.289988 C23.4699587,92.3113891 23.9657421,88.1972098 24.123706,83.8032886 L24.1670603,82.650855 C24.3507791,77.7648112 24.5405075,72.7127243 24.4370583,67.6687893 C24.3937041,65.6153466 24.2786652,63.4790968 24.1670603,61.4132116 C23.6541068,51.8848255 23.1231249,42.0320761 29.1047199,35.021796 C33.5131146,29.8770338 43.4491298,25.8482358 51.7259231,25.8482358 C52.9020674,25.8482358 54.0146827,25.9331881 55.032863,26.1013765 C64.1011928,27.6107813 69.1796464,35.0514006 75.0603677,43.6671931 C76.3257959,45.5206977 77.6337198,47.4372728 79.0214842,49.3504155 C81.7223235,53.1033331 84.6575331,56.7077987 87.4961616,60.1938459 C87.9979545,60.8099645 88.4976012,61.4235089 88.9933846,62.035337 C91.7714889,65.4420096 94.6504668,68.4234917 97.4345806,71.30715 C104.578584,78.7052931 111.32596,85.6928335 114.114367,97.8380075 C118.257056,115.850038 112.038086,128.529811 106.09126,135.995315 C96.9838684,147.428692 81.9124811,154.531647 66.7616826,154.531647 L66.7608241,154.531647 Z" id="Fill-36" fill="#FFFFFF"></path>
                        <path d="M68.0773331,124.818082 C63.5457437,124.818082 59.2695579,123.01778 56.0355904,119.749263 C52.2272868,115.899808 49.8440923,110.042391 49.1444152,102.810291 C48.3159633,94.275589 49.9823107,87.2378496 53.8361148,82.9936675 C56.1596436,80.4352306 59.1369197,79.0824298 62.4464351,79.0824298 C68.6864384,79.0824298 75.1805576,83.7526605 80.3109504,91.9115127 C79.1167776,90.3583446 77.752622,89.3247584 76.3554141,89.3247584 C76.063095,89.3247584 75.7772147,89.371096 75.5059289,89.462055 C74.7298454,89.7224895 74.3830116,90.2360648 74.2284817,90.6209244 C73.7584532,91.7935234 74.4396726,93.0875441 75.4711597,95.0465954 C76.150662,96.3380419 76.9967132,97.9448415 77.5950873,99.7266943 C78.1938907,101.508547 78.4892145,103.300268 78.7270189,104.739737 C79.1300844,107.183618 79.4782059,109.294124 81.4085419,109.294124 C81.6433415,109.294124 81.8845799,109.252935 82.1262475,109.171844 C85.0777686,108.181592 84.9567202,102.705602 83.3118352,97.8084029 C83.1989425,97.4720262 83.0774649,97.1352204 82.9491192,96.8005599 C87.1828093,106.225115 85.0816319,112.778026 83.2422968,116.065422 C80.2216664,121.464183 74.4104836,124.818082 68.0773331,124.818082 M49.3637618,146.918978 C48.0867439,146.319164 46.8470707,145.650701 45.6494639,144.915735 C38.7297437,140.66812 33.3615465,134.376073 29.6944661,126.215076 C27.1116705,120.44261 26.0750324,114.783844 26.33387,107.868384 C26.4544891,104.488313 26.8614179,101.039593 27.2550399,97.7045724 L27.3610646,96.8082828 C27.8147815,93.0884022 28.3135697,88.7459673 28.4745384,84.3576237 L28.5445061,82.3921367 C28.7136305,77.6854366 28.8887644,72.8187001 28.7951879,68.0008755 C28.7217862,65.502935 28.5805631,62.985258 28.4436324,60.5503881 L28.4419154,60.5190673 L28.4320426,60.3225615 C28.1384358,54.5046168 27.7727151,47.2639358 30.1297253,41.8930633 C30.7268117,40.5381171 31.5067585,39.2839982 32.4472446,38.1667469 C36.0928626,33.9311459 44.7922522,30.4768485 51.8298015,30.4768485 C52.7827359,30.4768485 53.6717121,30.5450677 54.4726921,30.679361 C56.1742381,30.9633934 57.7105228,31.5061442 59.1716889,32.338934 C62.5764978,34.2662355 65.2812003,37.5115846 67.2574661,40.124511 C68.8873273,42.2804972 70.4442161,44.5712056 71.9500241,46.786401 C73.1742444,48.5875611 74.4405311,50.4505048 75.7475965,52.2452292 C78.5810739,56.1727709 81.6798277,59.9741713 84.6768494,63.6507176 L85.8564276,65.098339 C88.6362489,68.5028663 91.6551622,71.6641212 94.2671468,74.3602838 C96.6572093,76.8256164 99.3662044,79.6191738 101.782022,82.5530312 C106.149209,87.9256199 108.73415,93.0665206 110.157113,99.2148353 C111.692969,105.90161 111.76122,112.376433 110.358431,118.457816 C109.642014,121.564581 108.552149,124.537053 107.100855,127.352063 C108.274424,124.89617 109.173702,122.322716 109.790963,119.647148 C111.161558,113.709927 111.100604,107.407154 109.609391,100.913881 C108.230211,94.9736566 105.63368,89.8151648 101.436476,84.6772675 C99.2262689,81.9643719 96.766668,79.4235261 94.387766,76.9667745 L94.1632684,76.7342284 C91.3426684,73.8068068 88.5980456,70.9197161 86.044439,67.8078022 L85.4486404,67.0771267 C82.3623348,63.2924592 79.1712923,59.3786472 76.2592622,55.3695856 C75.0084284,53.6456548 73.7176745,51.6509922 72.468987,49.7215455 C70.9421458,47.3617596 69.3633653,44.9217411 67.76441,42.8193865 C65.8349325,40.2592334 63.1877494,37.0739515 59.8503327,35.1921296 C58.3595484,34.3563364 56.7987964,33.8050046 55.2088554,33.5505768 C54.4237577,33.420574 53.5485175,33.3536419 52.616187,33.3536419 C49.4745083,33.3536419 45.6700679,34.1194997 42.1789799,35.4551385 C38.4408586,36.8851687 35.3944733,38.8296322 33.6014971,40.9298416 C32.7065115,41.9664311 31.9566122,43.1596247 31.3123083,44.5720637 C29.121847,49.5662287 29.5304927,56.5769378 29.859298,62.2099611 C29.88677,62.6823473 29.9133835,63.141862 29.9378507,63.5863598 L29.9923654,64.6319595 C30.0988193,66.6618043 30.2091365,68.7602975 30.2537785,70.8111659 C30.3658127,75.5414639 30.1889618,80.3691566 30.0181204,85.0376711 L29.9601717,86.6337444 C29.823241,90.6303635 29.3785383,94.5939456 28.8960616,98.6407638 L28.8548536,98.9762824 C28.4427739,102.36279 28.0160997,105.864712 27.872301,109.35934 C27.6469449,116.053409 28.6977482,121.731054 31.1788117,127.236219 C34.7402967,135.170677 39.9797189,141.301401 46.7504895,145.457627 C47.600404,145.979355 48.4722102,146.466758 49.3637618,146.918978 M51.7259231,25.2050869 C44.3247993,25.2050869 33.6572996,28.7198807 28.61662,34.6021832 C22.4667592,41.8102562 23.0046091,51.7934374 23.5244305,61.4479648 C23.6351769,63.5087014 23.7502158,65.6393735 23.7931408,67.682948 C23.89659,72.7080047 23.7068616,77.7510815 23.523572,82.6281153 L23.4802178,83.7788326 C23.3231124,88.1474398 22.8294752,92.2483185 22.3517202,96.2136168 C21.1107593,106.513009 19.9389075,116.241334 25.1212395,127.770389 C29.2029752,136.859855 35.1987354,143.88129 42.9426151,148.638619 C49.9033288,152.915409 58.1397726,155.175655 66.7612534,155.175655 C74.2563829,155.175655 81.8785704,153.468886 88.8036563,150.239412 C95.8446396,146.956306 101.996647,142.169373 106.595199,136.39605 C110.69668,131.247855 113.511271,125.444498 114.961276,119.147303 C116.52675,112.349832 116.452919,105.131891 114.742359,97.6938461 C111.913603,85.375335 105.105702,78.324724 97.8981703,70.8605069 C95.1230708,67.9867168 92.2535363,65.0151029 89.4917436,61.6277376 C88.9976771,61.0184838 88.4980305,60.4049395 87.9958083,59.7883918 C85.1631893,56.3096385 82.2339891,52.7124667 79.5460273,48.9767113 C78.1604092,47.0670009 76.8550608,45.1542873 75.5926373,43.3046442 C69.6286416,34.5674299 64.4780741,27.0212639 55.139317,25.4672377 C54.0850796,25.2930426 52.9372658,25.2050869 51.7259231,25.2050869 M76.3554141,90.6119143 C78.1483902,90.6114852 80.6170054,93.829804 82.0906197,98.2177185 C83.689575,102.977192 83.5243138,107.344941 81.716314,107.951621 C81.6055675,107.988948 81.5029769,108.006968 81.4085419,108.006968 C79.9623996,108.006968 80.3165306,103.784239 78.8163028,99.3169497 C77.2173476,94.5579052 74.1074333,91.2889583 75.9158624,90.6822788 C76.0566563,90.634654 76.2038889,90.6119143 76.3554141,90.6119143 M68.0773331,126.105238 C81.3570319,126.105238 94.0787062,111.849558 81.6343273,91.6008791 C75.8115547,82.1484351 68.6744194,77.7952739 62.4464351,77.7952739 C53.424035,77.7952739 46.3092208,86.9315065 47.8626755,102.934287 C49.4461778,119.29318 58.8939643,126.105238 68.0773331,126.105238 M52.616187,34.6407978 C53.4648138,34.6407978 54.2687985,34.699578 55.0058203,34.8218578 C56.4940291,35.0595526 57.8959587,35.5722697 59.2176186,36.3132424 C62.2236545,38.0079977 64.6828262,40.8697743 66.7393617,43.5981158 C69.6226321,47.3900771 72.4277791,52.2804114 75.2170438,56.1260042 C78.3359724,60.4199563 81.702578,64.5182607 85.0490089,68.6242881 C87.622361,71.7602289 90.4232155,74.708245 93.237806,77.6292308 C95.7025579,80.1760833 98.1947818,82.7362363 100.438899,85.491179 C104.349364,90.2785409 106.953623,95.1697333 108.354264,101.202204 C115.014074,130.202685 91.1310483,149.880295 67.5763986,149.880295 C53.5395032,149.880295 39.6152859,142.885032 32.3528097,126.707627 C29.8073588,121.059587 28.9510056,115.581881 29.1587624,109.412542 C29.3051366,105.854844 29.7464053,102.310445 30.1747966,98.7930772 C30.655127,94.7659954 31.1084147,90.7260421 31.2474916,86.679653 C31.4367908,81.387297 31.6664394,76.0816403 31.5410984,70.7837066 C31.48873,68.3655697 31.3496531,65.9542977 31.2238829,63.5164244 C30.9234081,58.0309949 30.2430473,50.2153843 32.4837308,45.1062334 C33.037463,43.8924454 33.7118143,42.7721907 34.5806158,41.7656348 C38.1000343,37.6437326 46.5380109,34.6407978 52.616187,34.6407978 M66.9655763,152.037568 C92.6514508,152.037568 118.680725,130.570382 111.41181,98.9243671 C109.875955,92.2899365 107.042907,86.9838508 102.776164,81.7348291 C100.397691,78.8464512 97.7912871,76.1455691 95.19218,73.4652814 C92.3174945,70.4975289 89.4762906,67.4958814 86.855721,64.2861436 C83.4285911,60.0737114 79.9679798,55.8947452 76.7885271,51.4875234 C73.8850819,47.5012015 71.2619368,43.2866241 68.2846607,39.347927 C65.9525469,36.2651886 63.2049194,33.1425484 59.809554,31.2208246 C58.205877,30.3065148 56.5090528,29.7144231 54.6856,29.4102253 C53.7983408,29.2609152 52.8389677,29.1896926 51.8298015,29.1896926 C44.8643662,29.1896926 35.5490032,32.5899294 31.4616872,37.3378185 C30.4387851,38.5528937 29.5974557,39.9074107 28.9505763,41.3760556 C26.4433287,47.0884535 26.8481111,54.4827352 27.1563125,60.591148 C27.2953894,63.0693522 27.4348955,65.5475564 27.5074387,68.0257606 C27.6130342,73.4644233 27.3769468,78.8842078 27.1876477,84.310428 C27.0356933,88.4507795 26.5824056,92.557665 26.0819004,96.6581146 C25.6474997,100.356972 25.1800467,104.088866 25.0469793,107.820331 C24.7941512,114.586051 25.7385006,120.525847 28.5196096,126.74281 C36.4555786,144.403018 51.6503752,152.037568 66.9655763,152.037568 M51.7259231,26.4922428 C52.8509866,26.4922428 53.9271157,26.5716175 54.9281261,26.7368025 C65.6542183,28.5220877 70.7571391,39.0544554 78.500375,49.7284103 C81.6866957,54.1562266 85.1739205,58.3484934 88.493738,62.4407911 C98.4918227,74.7039544 109.671203,81.3649863 113.487233,97.982169 C121.148911,131.295051 93.7786606,153.888499 66.7612534,153.888499 C50.6433553,153.888499 34.649725,145.846778 26.2956667,127.243084 C19.3057641,111.691237 24.1983526,99.6365934 24.7675377,83.8268865 C24.9637048,78.5546959 25.1929242,73.115175 25.08089,67.6559178 C24.8413687,56.2954797 22.4886509,43.7680204 29.5944509,35.4396926 C34.1170261,30.1623534 44.0724004,26.4922428 51.7259231,26.4922428" id="Fill-37" fill="#000000"></path>
                        <polygon id="Fill-38" fill="#000000" points="132.730069 92.2603319 121.397017 92.2603319 102.464529 101.950042 99.616457 112.235704 103.689608 113.297608 116.173478 112.589672 126.178001 105.332687 132.730069 100.304627"></polygon>
                        <polygon id="Stroke-39" stroke="#000000" stroke-width="0.76032" points="132.730069 92.2603319 121.397017 92.2603319 102.464529 101.950042 99.616457 112.235704 103.689608 113.297608 116.173478 112.589672 126.178001 105.332687 132.730069 100.304627"></polygon>
                        <path d="M147.140412,81.9343382 C147.140412,81.9343382 164.965007,84.0311152 176.008744,96.38867 C187.052481,108.746225 187.13318,126.685317 187.13318,126.685317 C187.13318,126.685317 169.309014,124.588969 158.264848,112.231843 C147.220681,99.8742882 147.140412,81.9343382 147.140412,81.9343382 Z" id="Fill-40" fill="#FFFFFF"></path>
                        <path d="M147.140412,81.9343382 C147.140412,81.9343382 164.965007,84.0311152 176.008744,96.38867 C187.052481,108.746225 187.13318,126.685317 187.13318,126.685317 C187.13318,126.685317 169.309014,124.588969 158.264848,112.231843 C147.220681,99.8742882 147.140412,81.9343382 147.140412,81.9343382 Z" id="Stroke-41" stroke="#000000" stroke-width="0.76032"></path>
                        <path d="M81.4295752,80.0139016 C81.4295752,80.0139016 91.7457339,65.3338885 107.871359,61.4938734 C123.997842,57.6534292 139.828142,66.1078983 139.828142,66.1078983 C139.828142,66.1078983 129.511984,80.7879114 113.38593,84.6274974 C97.2594467,88.4683706 81.4295752,80.0139016 81.4295752,80.0139016 Z" id="Fill-42" fill="#FFFFFF"></path>
                        <path d="M81.4295752,80.0139016 C81.4295752,80.0139016 91.7457339,65.3338885 107.871359,61.4938734 C123.997842,57.6534292 139.828142,66.1078983 139.828142,66.1078983 C139.828142,66.1078983 129.511984,80.7879114 113.38593,84.6274974 C97.2594467,88.4683706 81.4295752,80.0139016 81.4295752,80.0139016 Z" id="Stroke-43" stroke="#000000" stroke-width="0.76032"></path>
                        <path d="M147.140412,81.9343382 C147.140412,81.9343382 148.212248,82.0609085 149.991059,82.4328966 C148.344886,80.0701074 147.235276,76.6042256 146.759667,74.6546135 L154.030299,61.5187584 L156.710964,59.4554475 C156.901121,59.3095698 157.032042,59.0727331 157.054793,58.8346093 C157.077543,58.5964854 156.989117,58.3931148 156.822568,58.3008686 L152.222728,55.7574486 C152.056179,55.6652024 151.836833,55.6982394 151.647104,55.8441171 C151.457376,55.9899947 151.326455,56.2268314 151.303275,56.4649553 L150.978763,59.831297 L149.375944,62.7269687 C148.869859,63.6417075 145.398945,66.6785374 138.268249,65.3561992 C139.273981,65.8118524 139.828142,66.1078983 139.828142,66.1078983 C139.828142,66.1078983 139.081677,67.1689438 137.678889,68.7941926 C141.109024,69.42447 143.9146,69.2039373 146.130816,68.5899639 L135.679873,87.4703958 C136.25378,87.4772606 136.795493,87.579375 137.278828,87.8102049 C137.333343,87.8338028 137.387858,87.8586878 137.441514,87.8882924 C137.495599,87.918326 137.545822,87.950934 137.594756,87.9848291 C138.046756,88.2714358 138.421062,88.6760318 138.731839,89.1582862 L144.401369,78.9150995 C145.05855,80.7510129 146.00848,82.8756782 147.299234,84.6472338 C147.145133,82.9443266 147.140412,81.9343382 147.140412,81.9343382" id="Fill-44" fill="#FFFFFF"></path>
                        <path d="M129.104196,98.0988711 C127.317659,98.427954 125.264987,98.609443 122.828995,98.6536353 C122.336216,98.6690812 121.809956,98.7106992 121.28713,98.7772023 C115.258746,99.5387695 109.423096,103.486048 105.676605,109.334884 C105.177816,110.113184 104.16307,110.362034 103.365524,109.920969 C103.332472,109.90252 103.299849,109.883642 103.268084,109.862618 C102.456802,109.343465 102.220286,108.265687 102.739678,107.455207 C107.101284,100.645724 113.702287,96.2217688 120.849724,95.3186144 C121.48158,95.2388107 122.118157,95.1886116 122.742715,95.1688752 C125.008725,95.1276862 126.875532,94.9650756 128.471912,94.6707459 C129.419266,94.4961218 130.328417,95.1221086 130.502692,96.0690263 C130.677397,97.0155149 130.051551,97.924247 129.104196,98.0988711 M142.654752,131.737833 C142.75906,131.549908 142.859933,131.361554 142.957802,131.172771 C147.724191,122.173406 148.097209,111.909625 144.35501,103.847309 C144.01719,103.11835 143.64546,102.408269 143.240678,101.718354 C140.431238,97.0618525 140.190429,95.1066627 139.942752,92.8249643 C139.643994,90.8371666 138.981233,88.8639566 137.594327,87.9848291 C137.545822,87.950934 137.495599,87.918326 137.441514,87.8882924 L137.441085,87.8882924 C137.387428,87.8586878 137.333343,87.8333737 137.278399,87.8102049 C135.7962,87.1026982 133.772287,87.5901013 131.92823,88.3924284 C129.862681,89.3955519 128.07786,90.2304871 122.638408,90.3248785 C121.838286,90.3489054 121.038594,90.411547 120.241477,90.5123742 C111.419966,91.6270512 102.918675,97.395655 97.8234808,106.213102 C97.7153099,106.396307 97.6092852,106.581658 97.5054068,106.769582 C97.4981095,106.782454 97.4912415,106.795325 97.4843735,106.808626 C97.4766471,106.821927 97.4693498,106.834369 97.4620526,106.84767 C97.3581741,107.035166 97.2573004,107.223948 97.1598607,107.412731 C92.3930425,116.411667 92.0200245,126.675448 95.7617944,134.737764 C96.1000432,135.466294 96.4717734,136.176804 96.8765559,136.867149 C99.6864247,141.52365 99.9268045,143.478411 100.174482,145.760109 C100.473669,147.747478 101.136001,149.721117 102.523336,150.600244 C102.571412,150.634139 102.621634,150.667176 102.67572,150.696781 L102.676149,150.69721 C102.730234,150.726815 102.78432,150.7517 102.838835,150.774439 C104.320605,151.482804 106.344946,150.995401 108.189003,150.192216 C110.254553,149.189521 112.039803,148.355015 117.478826,148.260195 C118.278947,148.236168 119.07864,148.173097 119.875756,148.072699 C128.697268,146.958022 137.198129,141.189418 142.293753,132.371971 C142.401924,132.189195 142.507948,132.003416 142.611827,131.815491 C142.619124,131.802619 142.625992,131.789319 142.633289,131.776018 C142.640157,131.763147 142.647884,131.750704 142.654752,131.737833" id="Fill-45" fill="#FFFFFF"></path>
                        <path d="M129.104196,98.0988711 C127.317659,98.427954 125.264987,98.609443 122.828995,98.6536353 C122.336216,98.6690812 121.809956,98.7106992 121.28713,98.7772023 C115.258746,99.5387695 109.423096,103.486048 105.676605,109.334884 C105.177816,110.113184 104.16307,110.362034 103.365524,109.920969 C103.332472,109.90252 103.299849,109.883642 103.268084,109.862618 C102.456802,109.343465 102.220286,108.265687 102.739678,107.455207 C107.101284,100.645724 113.702287,96.2217688 120.849724,95.3186144 C121.48158,95.2388107 122.118157,95.1886116 122.742715,95.1688752 C125.008725,95.1276862 126.875532,94.9650756 128.471912,94.6707459 C129.419266,94.4961218 130.328417,95.1221086 130.502692,96.0690263 C130.677397,97.0155149 130.051551,97.924247 129.104196,98.0988711 Z M142.654752,131.737833 C142.75906,131.549908 142.859933,131.361554 142.957802,131.172771 C147.724191,122.173406 148.097209,111.909625 144.35501,103.847309 C144.01719,103.11835 143.64546,102.408269 143.240678,101.718354 C140.431238,97.0618525 140.190429,95.1066627 139.942752,92.8249643 C139.643994,90.8371666 138.981233,88.8639566 137.594327,87.9848291 C137.545822,87.950934 137.495599,87.918326 137.441514,87.8882924 L137.441085,87.8882924 C137.387428,87.8586878 137.333343,87.8333737 137.278399,87.8102049 C135.7962,87.1026982 133.772287,87.5901013 131.92823,88.3924284 C129.862681,89.3955519 128.07786,90.2304871 122.638408,90.3248785 C121.838286,90.3489054 121.038594,90.411547 120.241477,90.5123742 C111.419966,91.6270512 102.918675,97.395655 97.8234808,106.213102 C97.7153099,106.396307 97.6092852,106.581658 97.5054068,106.769582 C97.4981095,106.782454 97.4912415,106.795325 97.4843735,106.808626 C97.4766471,106.821927 97.4693498,106.834369 97.4620526,106.84767 C97.3581741,107.035166 97.2573004,107.223948 97.1598607,107.412731 C92.3930425,116.411667 92.0200245,126.675448 95.7617944,134.737764 C96.1000432,135.466294 96.4717734,136.176804 96.8765559,136.867149 C99.6864247,141.52365 99.9268045,143.478411 100.174482,145.760109 C100.473669,147.747478 101.136001,149.721117 102.523336,150.600244 C102.571412,150.634139 102.621634,150.667176 102.67572,150.696781 L102.676149,150.69721 C102.730234,150.726815 102.78432,150.7517 102.838835,150.774439 C104.320605,151.482804 106.344946,150.995401 108.189003,150.192216 C110.254553,149.189521 112.039803,148.355015 117.478826,148.260195 C118.278947,148.236168 119.07864,148.173097 119.875756,148.072699 C128.697268,146.958022 137.198129,141.189418 142.293753,132.371971 C142.401924,132.189195 142.507948,132.003416 142.611827,131.815491 C142.619124,131.802619 142.625992,131.789319 142.633289,131.776018 C142.640157,131.763147 142.647884,131.750704 142.654752,131.737833 Z" id="Stroke-46" stroke="#000000" stroke-width="0.76032"></path>
                    </g>
                </g>
            </g>
        </g>
    </g>
</svg>