<?xml version="1.0" encoding="UTF-8"?>
<svg width="333px" height="379px" viewBox="0 0 333 379" version="1.1" xmlns="http://www.w3.org/2000/svg" xmlns:xlink="http://www.w3.org/1999/xlink">
    <!-- Generator: Sketch 59 (86127) - https://sketch.com -->
    <title>Ramirez Logo vertical</title>
    <desc>Created with Sketch.</desc>
    <g id="Ramirez-One-Page---Desktop" stroke="none" stroke-width="1" fill="none" fill-rule="evenodd">
        <g id="Desktop---Home" transform="translate(-119.000000, -164.000000)">
            <g id="Header">
                <g id="Ramirez-Logo-vertical" transform="translate(120.000000, 165.000000)">
                    <g id="Ramirez-Logo">
                        <g id="text" transform="translate(30.367005, 316.907016)" fill="#000000">
                            <path d="M151.66319,45.2789361 C152.142321,45.2789361 152.591078,45.3316068 153.008704,45.4367963 C153.42557,45.5419858 153.80523,45.6962031 154.146164,45.8993722 L157.14092,45.8993722 L157.14092,46.6177879 C157.14092,46.8572346 156.989056,47.0096304 156.68381,47.0749754 L155.431692,47.249077 C155.678471,47.7207602 155.801481,48.2468597 155.801481,48.8273754 C155.801481,49.3643278 155.698213,49.8523283 155.491678,50.291377 C155.284384,50.7304257 154.997362,51.105875 154.63137,51.4179525 C154.264618,51.729954 153.828769,51.9694006 153.324581,52.1362923 C152.819633,52.3032598 152.26609,52.3866677 151.66319,52.3866677 C151.148372,52.3866677 150.661648,52.3249656 150.204538,52.2016373 C149.972186,52.3467473 149.796024,52.502786 149.676051,52.6696776 C149.556079,52.8365693 149.496093,52.999818 149.496093,53.1594996 C149.496093,53.4207279 149.601638,53.6184326 149.811969,53.7526897 C150.02306,53.8869468 150.30249,53.9831049 150.651017,54.041164 C150.999545,54.0992232 151.39515,54.1355007 151.837834,54.1499965 C152.280517,54.1644923 152.732312,54.1880955 153.193219,54.22073 C153.654885,54.2533646 154.10668,54.3096023 154.549363,54.3894431 C154.992046,54.4692839 155.387652,54.5998981 155.736179,54.7812855 C156.084707,54.9627489 156.364136,55.2130484 156.575227,55.5323358 C156.785559,55.8516233 156.891104,56.2652473 156.891104,56.7732081 C156.891104,57.2448913 156.77265,57.7020029 156.536502,58.1446945 C156.301113,58.5873102 155.961697,58.9809741 155.518255,59.3256862 C155.075571,59.6703223 154.534936,59.9461223 153.896348,60.1529343 C153.257001,60.3597464 152.534889,60.4631145 151.728492,60.4631145 C150.922854,60.4631145 150.216687,60.3832736 149.61075,60.2236679 C149.004813,60.0639862 148.501384,59.8499642 148.102741,59.58145 C147.703339,59.3129359 147.403408,59.0027558 147.203707,58.6508338 C147.004006,58.2989118 146.904535,57.9305966 146.904535,57.54604 C146.904535,57.0018018 147.076901,56.53915 147.421632,56.1582363 C147.766363,55.7772468 148.240178,55.4742767 148.843078,55.2493259 C148.530998,55.1042159 148.281941,54.9100782 148.096667,54.6669887 C147.912152,54.4238991 147.819515,54.0992232 147.819515,53.6928091 C147.819515,53.5332033 147.848369,53.3681331 147.906078,53.1975986 C147.964545,53.027064 148.053386,52.8583509 148.173358,52.6914593 C148.293331,52.5245677 148.439879,52.364886 148.614523,52.2124902 C148.788407,52.0601703 148.991904,51.9259132 149.224256,51.8097949 C148.679824,51.5050033 148.253087,51.1004865 147.944803,50.5961687 C147.63576,50.0918508 147.481618,49.5022278 147.481618,48.8273754 C147.481618,48.2904231 147.584886,47.8024225 147.79218,47.3633738 C147.998715,46.924401 148.287256,46.5506974 148.657804,46.2422628 C149.028352,45.9339041 149.469516,45.6962031 149.981298,45.5293115 C150.493079,45.3624198 151.053457,45.2789361 151.66319,45.2789361 Z M221.07865,45.2789361 C221.557781,45.2789361 222.006538,45.3316068 222.424164,45.4367963 C222.84103,45.5419858 223.22069,45.6962031 223.561625,45.8993722 L226.55638,45.8993722 L226.55638,46.6177879 C226.55638,46.8572346 226.403757,47.0096304 226.09927,47.0749754 L224.847152,47.249077 C225.093931,47.7207602 225.216941,48.2468597 225.216941,48.8273754 C225.216941,49.3643278 225.113673,49.8523283 224.906379,50.291377 C224.699844,50.7304257 224.412822,51.105875 224.04607,51.4179525 C223.680078,51.729954 223.244229,51.9694006 222.739282,52.1362923 C222.235094,52.3032598 221.68155,52.3866677 221.07865,52.3866677 C220.563072,52.3866677 220.077108,52.3249656 219.619238,52.2016373 C219.387646,52.3467473 219.211484,52.502786 219.091511,52.6696776 C218.971539,52.8365693 218.911553,52.999818 218.911553,53.1594996 C218.911553,53.4207279 219.017098,53.6184326 219.227429,53.7526897 C219.437761,53.8869468 219.71795,53.9831049 220.065718,54.041164 C220.414246,54.0992232 220.81061,54.1355007 221.253294,54.1499965 C221.695977,54.1644923 222.147772,54.1880955 222.608679,54.22073 C223.069586,54.2533646 223.52214,54.3096023 223.964823,54.3894431 C224.407506,54.4692839 224.803112,54.5998981 225.151639,54.7812855 C225.500167,54.9627489 225.779596,55.2130484 225.989928,55.5323358 C226.201019,55.8516233 226.305805,56.2652473 226.305805,56.7732081 C226.305805,57.2448913 226.18811,57.7020029 225.951962,58.1446945 C225.716573,58.5873102 225.377157,58.9809741 224.933715,59.3256862 C224.491031,59.6703223 223.950396,59.9461223 223.311049,60.1529343 C222.672462,60.3597464 221.950349,60.4631145 221.143952,60.4631145 C220.338314,60.4631145 219.632147,60.3832736 219.02621,60.2236679 C218.419514,60.0639862 217.916844,59.8499642 217.517442,59.58145 C217.1188,59.3129359 216.818868,59.0027558 216.619167,58.6508338 C216.419466,58.2989118 216.319996,57.9305966 216.319996,57.54604 C216.319996,57.0018018 216.492361,56.53915 216.837092,56.1582363 C217.181823,55.7772468 217.655638,55.4742767 218.258538,55.2493259 C217.946458,55.1042159 217.697401,54.9100782 217.512127,54.6669887 C217.326853,54.4238991 217.234975,54.0992232 217.234975,53.6928091 C217.234975,53.5332033 217.26383,53.3681331 217.321538,53.1975986 C217.380005,53.027064 217.468846,52.8583509 217.588818,52.6914593 C217.708031,52.5245677 217.855339,52.364886 218.029983,52.2124902 C218.203867,52.0601703 218.407365,51.9259132 218.639716,51.8097949 C218.095284,51.5050033 217.668547,51.1004865 217.360263,50.5961687 C217.05122,50.0918508 216.897078,49.5022278 216.897078,48.8273754 C216.897078,48.2904231 217.000346,47.8024225 217.20764,47.3633738 C217.414175,46.924401 217.702716,46.5506974 218.073264,46.2422628 C218.443812,45.9339041 218.884217,45.6962031 219.395998,45.5293115 C219.908539,45.3624198 220.468917,45.2789361 221.07865,45.2789361 Z M78.9014094,53.9214028 C79.1193341,53.9214028 79.3137199,53.9613232 79.4838074,54.041164 C79.6546543,54.1210049 79.7958877,54.2316588 79.9090263,54.3731258 C80.0214055,54.5146688 80.1064493,54.6779175 80.1649169,54.8629478 C80.2226252,55.0479782 80.2514793,55.2493259 80.2514793,55.4670667 C80.2514793,55.7935641 80.2044015,56.1328117 80.1102459,56.4847337 C80.0160903,56.8367316 79.8816908,57.1850107 79.7070473,57.5297228 C79.5331632,57.8743589 79.3167571,58.2099636 79.0593479,58.5365369 C78.8019386,58.8630343 78.5096006,59.164183 78.182334,59.439983 L77.8558266,59.1242626 C77.761671,59.0372118 77.7145932,58.9356652 77.7145932,58.8195469 C77.7145932,58.7252102 77.7654676,58.6272307 77.8672164,58.5256081 C77.9393518,58.4458432 78.0319887,58.3387563 78.144368,58.2045751 C78.2567473,58.0703181 78.3714045,57.9161008 78.4875804,57.7419233 C78.6037562,57.5678217 78.7108203,57.3755055 78.8087725,57.1650505 C78.9067247,56.9545955 78.9773414,56.7296447 79.0213819,56.4901981 L78.8793892,56.4901981 C78.691078,56.4901981 78.5202311,56.4575636 78.3676079,56.3922186 C78.2149847,56.3269494 78.0828631,56.2344343 77.9704839,56.114673 C77.8581046,55.9949876 77.7707829,55.8534447 77.709278,55.690196 C77.6470138,55.5268714 77.616641,55.3473054 77.616641,55.1514222 C77.616641,54.9844547 77.6470138,54.8266703 77.709278,54.6779175 C77.7707829,54.5291646 77.8581046,54.3985504 77.9704839,54.286075 C78.0828631,54.1735996 78.2187813,54.0846515 78.3789977,54.0193824 C78.5384548,53.9540374 78.7123389,53.9214028 78.9014094,53.9214028 Z M149.997243,55.5649704 C149.583414,55.7609295 149.247795,56.0003761 148.989626,56.2833861 C148.732217,56.566396 148.603133,56.9038222 148.603133,57.2956647 C148.603133,57.5423971 148.666916,57.7728123 148.793722,57.9868343 C148.921288,58.2009322 149.114914,58.3859626 149.376879,58.5420013 C149.638085,58.6979642 149.966111,58.8213683 150.362476,58.9120621 C150.758081,59.0027558 151.224303,59.0481406 151.761902,59.0481406 C152.284313,59.0481406 152.752813,59.0009343 153.166642,58.9065977 C153.580472,58.812261 153.930518,58.678004 154.21754,58.5039024 C154.503804,58.3297249 154.724007,58.1229128 154.87587,57.8834662 C155.028494,57.6439437 155.104426,57.3791484 155.104426,57.0888526 C155.104426,56.8131285 155.028494,56.5918206 154.87587,56.424929 C154.724007,56.2579615 154.516712,56.1291688 154.255506,56.0384751 C153.994301,55.9477814 153.692851,55.8806908 153.351157,55.8371274 C153.010223,55.7935641 152.651065,55.762751 152.273683,55.7446123 C151.895542,55.7264735 151.511326,55.7065133 151.118758,55.6847316 C150.726949,55.66295 150.353364,55.6230295 149.997243,55.5649704 Z M219.412703,55.5649704 C218.998874,55.7609295 218.663255,56.0003761 218.405087,56.2833861 C218.147677,56.566396 218.018593,56.9038222 218.018593,57.2956647 C218.018593,57.5423971 218.082376,57.7728123 218.209182,57.9868343 C218.336748,58.2009322 218.530374,58.3859626 218.79158,58.5420013 C219.053545,58.6979642 219.381571,58.8213683 219.777177,58.9120621 C220.173541,59.0027558 220.639764,59.0481406 221.176602,59.0481406 C221.699773,59.0481406 222.167514,59.0009343 222.581343,58.9065977 C222.995172,58.812261 223.345978,58.678004 223.632241,58.5039024 C223.919264,58.3297249 224.138707,58.1229128 224.29133,57.8834662 C224.443954,57.6439437 224.519886,57.3791484 224.519886,57.0888526 C224.519886,56.8131285 224.443954,56.5918206 224.29133,56.424929 C224.138707,56.2579615 223.932172,56.1291688 223.670967,56.0384751 C223.409001,55.9477814 223.108311,55.8806908 222.766617,55.8371274 C222.425683,55.7935641 222.066525,55.762751 221.688384,55.7446123 C221.311002,55.7264735 220.926027,55.7065133 220.534218,55.6847316 C220.142409,55.66295 219.768065,55.6230295 219.412703,55.5649704 Z M243.050316,41.8829684 L243.050316,45.6817073 L246.209085,45.6817073 L246.209085,47.0858283 L243.050316,47.0858283 L243.050316,53.7037379 C243.050316,54.1681353 243.163455,54.5128473 243.388213,54.7377981 C243.612972,54.9627489 243.903791,55.0752243 244.259152,55.0752243 C244.46265,55.0752243 244.638812,55.0479782 244.787639,54.993562 C244.936465,54.9391457 245.06555,54.8792651 245.174132,54.813996 C245.283474,54.748651 245.375352,54.6887703 245.452043,54.6343541 C245.527975,54.5799379 245.595555,54.5526918 245.653263,54.5526918 C245.755012,54.5526918 245.84613,54.6143939 245.925859,54.7377981 L246.492311,55.66295 C246.15821,55.9750274 245.755012,56.2198625 245.283474,56.397683 C244.811178,56.5755034 244.325213,56.6643756 243.824062,56.6643756 C242.952364,56.6643756 242.282644,56.4212861 241.814903,55.935107 C241.346403,55.4489279 241.112533,54.748651 241.112533,53.834352 L241.112533,47.0858283 L239.783724,47.0858283 C239.667548,47.0858283 239.569596,47.0513722 239.489867,46.9824602 C239.410139,46.9134722 239.369895,46.8064612 239.369895,46.6613513 L239.369895,45.8885193 L241.177834,45.6599256 L241.624314,42.2530292 C241.638741,42.1441967 241.685819,42.0553245 241.765548,41.9863365 C241.845276,41.9174245 241.947025,41.8829684 242.070794,41.8829684 L243.050316,41.8829684 Z M192.428011,41.8829684 L192.428011,45.6817073 L195.58602,45.6817073 L195.58602,47.0858283 L192.428011,47.0858283 L192.428011,53.7037379 C192.428011,54.1681353 192.54039,54.5128473 192.765149,54.7377981 C192.990667,54.9627489 193.280727,55.0752243 193.636847,55.0752243 C193.839586,55.0752243 194.015748,55.0479782 194.164574,54.993562 C194.313401,54.9391457 194.442485,54.8792651 194.551068,54.813996 C194.66041,54.748651 194.753047,54.6887703 194.828979,54.6343541 C194.904911,54.5799379 194.97249,54.5526918 195.030198,54.5526918 C195.131947,54.5526918 195.223066,54.6143939 195.302794,54.7377981 L195.869246,55.66295 C195.535146,55.9750274 195.131947,56.2198625 194.66041,56.397683 C194.188113,56.5755034 193.702149,56.6643756 193.200998,56.6643756 C192.330059,56.6643756 191.65958,56.4212861 191.191839,55.935107 C190.723339,55.4489279 190.489468,54.748651 190.489468,53.834352 L190.489468,47.0858283 L189.16066,47.0858283 C189.044484,47.0858283 188.946531,47.0513722 188.866803,46.9824602 C188.787074,46.9134722 188.74683,46.8064612 188.74683,46.6613513 L188.74683,45.8885193 L190.55477,45.6599256 L191.00125,42.2530292 C191.015677,42.1441967 191.062755,42.0553245 191.142483,41.9863365 C191.222212,41.9174245 191.32396,41.8829684 191.44773,41.8829684 L192.428011,41.8829684 Z M60.5448632,45.2680832 C61.1621898,45.2680832 61.7104184,45.3697057 62.189549,45.5728748 C62.6686795,45.7760439 63.0718781,46.0590539 63.3983854,46.4218288 C63.7248928,46.7846796 63.9716716,47.2237283 64.1387218,47.738899 C64.3057721,48.2541456 64.3892972,48.8200896 64.3892972,49.4369587 L64.3892972,56.4901981 L63.5289884,56.4901981 C63.3399178,56.4901981 63.188054,56.4612065 63.0718781,56.4031473 C62.9557022,56.3450882 62.879011,56.221684 62.8425636,56.0330107 L62.6253983,55.0098793 C62.334579,55.2711075 62.0513528,55.5051656 61.7757199,55.7119777 C61.5000869,55.9187897 61.2092676,56.0928913 60.9047805,56.2344343 C60.5995342,56.3759013 60.2745455,56.4829123 59.9298144,56.5555432 C59.5850834,56.6280981 59.2016272,56.6643756 58.7809642,56.6643756 C58.3527081,56.6643756 57.9517874,56.604495 57.577443,56.4847337 C57.2038578,56.3650484 56.8788691,56.1854065 56.6032362,55.9459599 C56.3268439,55.7065133 56.1074006,55.4035431 55.944147,55.0371253 C55.7808933,54.6706316 55.6988868,54.2370473 55.6988868,53.7363724 C55.6988868,53.3009667 55.8188593,52.8819541 56.0580449,52.4791829 C56.2979898,52.0764875 56.6844834,51.7191012 57.2182849,51.4070237 C57.7520864,51.0950221 58.4506603,50.8392582 59.3147657,50.6396561 C60.1781119,50.4401299 61.2350845,50.3258331 62.4834056,50.2968414 L62.4834056,49.4369587 C62.4834056,48.580643 62.3004096,47.9330367 61.9336583,47.493988 C61.5669071,47.0550152 61.0239937,46.8354529 60.3056775,46.8354529 C59.8333809,46.8354529 59.4362568,46.8953335 59.1127868,47.0150948 C58.790076,47.1347801 58.5106465,47.2690372 58.2744982,47.4177901 C58.0383498,47.5665429 57.8356116,47.7008 57.6647647,47.8205613 C57.4939178,47.9402466 57.3253489,48.0001272 57.1582987,48.0001272 C57.0276957,48.0001272 56.9130385,47.9656712 56.8150863,47.8967592 C56.7171341,47.8277712 56.6389242,47.7425419 56.5812159,47.6409194 L56.2326883,47.0205591 C56.8424218,46.4327576 57.4992331,45.9937089 58.2038815,45.703489 C58.9077705,45.4131932 59.6883509,45.2680832 60.5448632,45.2680832 Z M173.635615,41.8829684 L173.635615,45.6817073 L176.793625,45.6817073 L176.793625,47.0858283 L173.635615,47.0858283 L173.635615,53.7037379 C173.635615,54.1681353 173.747995,54.5128473 173.972753,54.7377981 C174.198271,54.9627489 174.488331,55.0752243 174.844452,55.0752243 C175.04719,55.0752243 175.223352,55.0479782 175.372179,54.993562 C175.521005,54.9391457 175.65009,54.8792651 175.758672,54.813996 C175.868014,54.748651 175.960651,54.6887703 176.036583,54.6343541 C176.112515,54.5799379 176.180095,54.5526918 176.237803,54.5526918 C176.339552,54.5526918 176.43067,54.6143939 176.510398,54.7377981 L177.076851,55.66295 C176.74275,55.9750274 176.339552,56.2198625 175.868014,56.397683 C175.395718,56.5755034 174.909753,56.6643756 174.408602,56.6643756 C173.537663,56.6643756 172.867943,56.4212861 172.399443,55.935107 C171.930943,55.4489279 171.697073,54.748651 171.697073,53.834352 L171.697073,47.0858283 L170.368264,47.0858283 C170.252088,47.0858283 170.154136,47.0513722 170.074407,46.9824602 C169.994679,46.9134722 169.954435,46.8064612 169.954435,46.6613513 L169.954435,45.8885193 L171.762374,45.6599256 L172.208854,42.2530292 C172.223281,42.1441967 172.270359,42.0553245 172.350088,41.9863365 C172.429816,41.9174245 172.531565,41.8829684 172.655334,41.8829684 L173.635615,41.8829684 Z M108.073701,45.2898649 C108.734309,45.2898649 109.344042,45.4005188 109.903661,45.6218267 C110.46252,45.8431345 110.945447,46.162422 111.351683,46.579689 C111.757919,46.996956 112.076074,47.5121267 112.304629,48.1253529 C112.533184,48.7385032 112.647841,49.4369587 112.647841,50.2206435 C112.647841,50.5253593 112.61519,50.7286043 112.549889,50.8301509 C112.484587,50.9317734 112.360818,50.9825467 112.179341,50.9825467 L104.83976,50.9825467 C104.854187,51.6791807 104.948342,52.2851211 105.122227,52.8002918 C105.29687,53.3155384 105.536056,53.7454797 105.841302,54.0901159 C106.146548,54.4348279 106.509503,54.6924133 106.930166,54.8629478 C107.351588,55.0334824 107.823126,55.1187117 108.346297,55.1187117 C108.832261,55.1187117 109.251405,55.062474 109.60373,54.9499986 C109.956054,54.8375232 110.259022,54.7160164 110.513394,54.5854023 C110.767007,54.4547881 110.979616,54.3332054 111.150463,54.22073 C111.320551,54.1082546 111.467859,54.0520169 111.591628,54.0520169 C111.751085,54.0520169 111.874095,54.113719 111.961416,54.2370473 L112.505848,54.9446101 C112.266663,55.23483 111.97964,55.4870269 111.64554,55.7010489 C111.311439,55.9151468 110.954559,56.0910699 110.573381,56.2289699 C110.192202,56.3668699 109.798115,56.4702379 109.39112,56.53915 C108.984884,56.6081379 108.581686,56.642594 108.183043,56.642594 C107.420686,56.642594 106.718316,56.5138013 106.075172,56.2562159 C105.432788,55.9985547 104.877726,55.6212081 104.409226,55.1241761 C103.940726,54.6271442 103.576252,54.0120965 103.315046,53.279185 C103.053081,52.5463493 102.922478,51.7046053 102.922478,50.753953 C102.922478,49.9847639 103.040932,49.2664241 103.277081,48.5987817 C103.51247,47.9312152 103.851885,47.3525209 104.294568,46.8626989 C104.738011,46.3728769 105.278646,45.9883204 105.917234,45.7089534 C106.556581,45.4295104 107.274897,45.2898649 108.073701,45.2898649 Z M133.784256,45.2898649 C134.444864,45.2898649 135.054597,45.4005188 135.613456,45.6218267 C136.173074,45.8431345 136.655242,46.162422 137.062237,46.579689 C137.468473,46.996956 137.786628,47.5121267 138.015183,48.1253529 C138.243738,48.7385032 138.357636,49.4369587 138.357636,50.2206435 C138.357636,50.5253593 138.324986,50.7286043 138.259684,50.8301509 C138.194383,50.9317734 138.071373,50.9825467 137.889896,50.9825467 L130.549555,50.9825467 C130.563982,51.6791807 130.658897,52.2851211 130.832781,52.8002918 C131.007425,53.3155384 131.24661,53.7454797 131.551857,54.0901159 C131.856344,54.4348279 132.219298,54.6924133 132.640721,54.8629478 C133.062143,55.0334824 133.53368,55.1187117 134.056092,55.1187117 C134.542816,55.1187117 134.96196,55.062474 135.314284,54.9499986 C135.666608,54.8375232 135.969577,54.7160164 136.22319,54.5854023 C136.477562,54.4547881 136.690171,54.3332054 136.860259,54.22073 C137.031105,54.1082546 137.178413,54.0520169 137.301423,54.0520169 C137.461639,54.0520169 137.584649,54.113719 137.671971,54.2370473 L138.216403,54.9446101 C137.977217,55.23483 137.690195,55.4870269 137.356094,55.7010489 C137.021994,55.9151468 136.664354,56.0910699 136.283176,56.2289699 C135.901997,56.3668699 135.50867,56.4702379 135.101675,56.53915 C134.695439,56.6081379 134.29224,56.642594 133.892838,56.642594 C133.130482,56.642594 132.428111,56.5138013 131.785727,56.2562159 C131.143343,55.9985547 130.58828,55.6212081 130.11978,55.1241761 C129.65128,54.6271442 129.286807,54.0120965 129.024842,53.279185 C128.763636,52.5463493 128.633033,51.7046053 128.633033,50.753953 C128.633033,49.9847639 128.751487,49.2664241 128.986876,48.5987817 C129.223024,47.9312152 129.56244,47.3525209 130.005123,46.8626989 C130.447806,46.3728769 130.989201,45.9883204 131.627789,45.7089534 C132.267136,45.4295104 132.985452,45.2898649 133.784256,45.2898649 Z M163.482756,45.2898649 C164.288394,45.2898649 165.016581,45.4241219 165.665799,45.6925602 C166.315776,45.9610743 166.867802,46.3420638 167.321115,46.8354529 C167.775188,47.3289178 168.123716,47.9257508 168.366698,48.6260278 C168.60968,49.3262289 168.731171,50.1081681 168.731171,50.9716938 C168.731171,51.8424294 168.60968,52.6261143 168.366698,53.3227483 C168.123716,54.0193824 167.775188,54.6143939 167.321115,55.1078588 C166.867802,55.6013238 166.315776,55.9804159 165.665799,56.2452871 C165.016581,56.5101583 164.288394,56.642594 163.482756,56.642594 C162.676359,56.642594 161.948931,56.5101583 161.298953,56.2452871 C160.648976,55.9804159 160.095432,55.6013238 159.638322,55.1078588 C159.181211,54.6143939 158.828887,54.0193824 158.582108,53.3227483 C158.33533,52.6261143 158.21156,51.8424294 158.21156,50.9716938 C158.21156,50.1081681 158.33533,49.3262289 158.582108,48.6260278 C158.828887,47.9257508 159.181211,47.3289178 159.638322,46.8354529 C160.095432,46.3420638 160.648976,45.9610743 161.298953,45.6925602 C161.948931,45.4241219 162.676359,45.2898649 163.482756,45.2898649 Z M43.7897215,45.2898649 C44.4503293,45.2898649 45.0600628,45.4005188 45.6189219,45.6218267 C46.1785403,45.8431345 46.6607081,46.162422 47.0677033,46.579689 C47.4739392,46.996956 47.792094,47.5121267 48.0206491,48.1253529 C48.2492043,48.7385032 48.3631022,49.4369587 48.3631022,50.2206435 C48.3631022,50.5253593 48.3304514,50.7286043 48.26515,50.8301509 C48.1998485,50.9317734 48.0768388,50.9825467 47.8953614,50.9825467 L40.5552487,50.9825467 C40.5698276,51.6791807 40.6641351,52.2851211 40.8383989,52.8002918 C41.0126627,53.3155384 41.2522279,53.7454797 41.5571706,54.0901159 C41.8618095,54.4348279 42.2247642,54.6924133 42.6461865,54.8629478 C43.0676087,55.0334824 43.5391461,55.1187117 44.0615578,55.1187117 C44.5482815,55.1187117 44.9674259,55.062474 45.31975,54.9499986 C45.6720742,54.8375232 45.9750427,54.7160164 46.2286554,54.5854023 C46.4830274,54.4547881 46.6956368,54.3332054 46.8657243,54.22073 C47.0365712,54.1082546 47.1838792,54.0520169 47.3068889,54.0520169 C47.4671053,54.0520169 47.590115,54.113719 47.6774368,54.2370473 L48.2218688,54.9446101 C47.9826832,55.23483 47.6956604,55.4870269 47.3615599,55.7010489 C47.0274594,55.9151468 46.6698199,56.0910699 46.2886416,56.2289699 C45.9074633,56.3668699 45.5141358,56.4702379 45.1071406,56.53915 C44.7009047,56.6081379 44.2977061,56.642594 43.8983041,56.642594 C43.1359475,56.642594 42.433577,56.5138013 41.7911928,56.2562159 C41.1488086,55.9985547 40.5933665,55.6212081 40.1250942,55.1241761 C39.656822,54.6271442 39.2920449,54.0120965 39.0306872,53.279185 C38.7693295,52.5463493 38.6386506,51.7046053 38.6386506,50.753953 C38.6386506,49.9847639 38.7565729,49.2664241 38.9925694,48.5987817 C39.2284899,47.9312152 39.5679057,47.3525209 40.0107407,46.8626989 C40.4536517,46.3728769 40.9945149,45.9883204 41.6334063,45.7089534 C42.2726013,45.4295104 42.9909175,45.2898649 43.7897215,45.2898649 Z M214.007868,45.4640424 L214.007868,56.4901981 L212.069326,56.4901981 L212.069326,45.4640424 L214.007868,45.4640424 Z M52.9295731,40.4570658 L52.9295731,56.4901981 L50.9911066,56.4901981 L50.9911066,40.4570658 L52.9295731,40.4570658 Z M230.371201,40.4570658 L230.371201,46.9443612 C230.843497,46.4436105 231.365909,46.0427366 231.939195,45.7415879 C232.513241,45.4404392 233.173849,45.2898649 233.921778,45.2898649 C234.523919,45.2898649 235.056201,45.3896659 235.517108,45.5891921 C235.978015,45.7887183 236.36299,46.0717282 236.671274,46.438222 C236.979557,46.8046398 237.214187,47.2455099 237.373644,47.7606806 C237.533101,48.2759272 237.613589,48.8455142 237.613589,49.4695932 L237.613589,56.4901981 L235.675047,56.4901981 L235.675047,49.4695932 C235.675047,48.6350592 235.484458,47.9874529 235.103279,47.5266984 C234.722101,47.0658681 234.139703,46.8354529 233.355326,46.8354529 C232.78204,46.8354529 232.24596,46.9733529 231.748606,47.249077 C231.252011,47.524877 230.792623,47.8985806 230.371201,48.370188 L230.371201,56.4901981 L228.432658,56.4901981 L228.432658,40.4570658 L230.371201,40.4570658 Z M94.3057219,45.4422607 C94.4507519,45.4422607 94.5707244,45.4785382 94.66488,45.5510932 C94.7590356,45.6236481 94.8243371,45.7143419 94.8607844,45.8231743 L97.1372239,52.9635405 C97.2169525,53.2175588 97.2875692,53.4678583 97.349074,53.7145907 C97.4105789,53.9613232 97.4705651,54.2044127 97.5290327,54.4438593 C97.5654801,54.2044127 97.6125579,53.9540374 97.6702661,53.6928091 C97.7287337,53.4315808 97.7902386,53.1884913 97.8555401,52.9635405 L100.012007,45.8667377 C100.048454,45.7506193 100.116793,45.6544612 100.218542,45.5783392 C100.320291,45.5021413 100.440263,45.4640424 100.578459,45.4640424 L102.037112,45.4640424 L98.4652735,56.4901981 L96.9299297,56.4901981 C96.7408592,56.4901981 96.6102563,56.3668699 96.5381209,56.1201374 L94.0984277,48.6423451 C94.0407194,48.4754534 93.9936416,48.3067403 93.9571943,48.1362058 C93.920747,47.9656712 93.8842996,47.7969581 93.8478523,47.6300665 C93.811405,47.7969581 93.775717,47.9674927 93.7392696,48.1416702 C93.7028223,48.3157718 93.6557445,48.4863063 93.5972769,48.6531979 L91.1256923,56.1201374 C91.0459638,56.3668699 90.8971372,56.4901981 90.6792125,56.4901981 L89.2198006,56.4901981 L85.6479622,45.4640424 L87.1726756,45.4640424 C87.3321326,45.4640424 87.4627356,45.5038869 87.5644844,45.5837277 C87.6662332,45.6635685 87.7353312,45.7579052 87.7717786,45.8667377 L89.8842051,52.9635405 C89.9419134,53.2247687 89.9965844,53.4769656 90.0474588,53.7200551 C90.0983332,53.9631447 90.1416144,54.2080557 90.1780617,54.4547881 C90.2365293,54.2080557 90.3018308,53.9631447 90.3739661,53.7200551 C90.4468608,53.4769656 90.5227927,53.2247687 90.6025212,52.9635405 L92.9336318,45.8231743 C92.9693198,45.7143419 93.0331026,45.6236481 93.1242209,45.5510932 C93.2145799,45.4785382 93.3292372,45.4422607 93.466674,45.4422607 L94.3057219,45.4422607 Z M30.3915308,40.8924716 C31.3789498,40.8924716 32.2319692,40.9921967 32.9507409,41.1917988 C33.6694367,41.391325 34.2629967,41.6797993 34.7312689,42.05707 C35.1995412,42.4344166 35.5461705,42.8897826 35.7712328,43.423168 C35.996295,43.9564774 36.1088262,44.5533104 36.1088262,45.213667 C36.1088262,45.7651911 36.0217322,46.2803618 35.8474684,46.759255 C35.6732806,47.2382241 35.4209587,47.6681655 35.0906548,48.049155 C34.7602749,48.4300686 34.3573801,48.7548205 33.8818183,49.0233346 C33.4062566,49.2917728 32.8672158,49.494942 32.2646199,49.6328419 C32.5259776,49.7852378 32.7583294,50.0065456 32.9615992,50.2968414 L37.513643,56.4901981 L35.6405539,56.4901981 C35.2558068,56.4901981 34.9726566,56.3414453 34.7911792,56.0439395 L30.7400584,50.470943 C30.6165931,50.2968414 30.4822695,50.1716158 30.3370876,50.0954179 C30.1919058,50.01922 29.974133,49.9811969 29.6836933,49.9811969 L28.0828961,49.9811969 L28.0828961,56.4901981 L25.9811001,56.4901981 L25.9811001,40.8924716 L30.3915308,40.8924716 Z M186.500004,45.4640424 L186.500004,56.4901981 L184.561462,56.4901981 L184.561462,45.4640424 L186.500004,45.4640424 Z M118.806681,45.4640424 C118.959304,45.4640424 119.08687,45.5038869 119.187859,45.5837277 C119.289608,45.6635685 119.362502,45.7579052 119.405784,45.8667377 L122.204635,52.9635405 C122.306384,53.2247687 122.386112,53.485997 122.44458,53.7472253 C122.502288,54.0085295 122.556959,54.2661148 122.607834,54.5200573 C122.665542,54.2661148 122.727806,54.0085295 122.793107,53.7472253 C122.858409,53.485997 122.941934,53.2247687 123.042924,52.9635405 L125.874426,45.8667377 C125.918466,45.7506193 125.989083,45.6544612 126.087035,45.5783392 C126.184987,45.5021413 126.306478,45.4640424 126.451508,45.4640424 L127.965591,45.4640424 L123.468142,56.4901981 L121.714874,56.4901981 L117.217425,45.4640424 L118.806681,45.4640424 Z M208.331196,45.2680832 C208.635683,45.2680832 208.912076,45.3025392 209.158854,45.3715272 C209.405633,45.4404392 209.634188,45.5365973 209.84452,45.6599256 L209.593944,47.1076099 C209.54307,47.2889974 209.430691,47.3796911 209.256807,47.3796911 C209.155058,47.3796911 208.998638,47.3452351 208.788306,47.276323 C208.577975,47.207411 208.284118,47.1728791 207.905977,47.1728791 C207.230942,47.1728791 206.666768,47.3688382 206.212695,47.7606806 C205.759381,48.1525231 205.379722,48.7221859 205.074475,49.4695932 L205.074475,56.4901981 L203.136692,56.4901981 L203.136692,45.4640424 L204.246817,45.4640424 C204.457908,45.4640424 204.602938,45.5038869 204.682667,45.5837277 C204.762395,45.6635685 204.817066,45.8014685 204.84592,45.9973518 L204.976523,47.7171173 C205.354664,46.9479283 205.820886,46.3474523 206.375949,45.9157654 C206.931771,45.4840026 207.583267,45.2680832 208.331196,45.2680832 Z M67.9968237,45.4640424 C68.15704,45.4640424 68.2732159,45.4893911 68.3453513,45.5402403 C68.4182459,45.5910136 68.4835474,45.6635685 68.542015,45.7579052 L71.2421547,49.8940702 C71.3074562,49.6909011 71.4023711,49.487732 71.5253809,49.2845629 L73.8997726,45.8014685 C73.9719079,45.699846 74.0448026,45.6181837 74.1176973,45.5565575 C74.1898326,45.4948555 74.2809509,45.4640424 74.3895336,45.4640424 L76.1754528,45.4640424 L72.462381,50.7321713 L76.328076,56.4901981 L74.4662249,56.4901981 C74.3060085,56.4901981 74.1807208,56.4484563 74.0903618,56.3650484 C73.9992434,56.2815646 73.9248301,56.1890494 73.8671219,56.0875028 L71.0902909,51.7662315 C71.0394165,51.9766865 70.9627252,52.1653598 70.8609764,52.3322514 L68.2914396,56.0875028 C68.2185449,56.1890494 68.140335,56.2815646 68.0568099,56.3650484 C67.9732848,56.4484563 67.8593868,56.4901981 67.7143568,56.4901981 L65.9823493,56.4901981 L69.8488037,50.8410797 L66.1349725,45.4640424 L67.9968237,45.4640424 Z M62.4834056,51.5267849 C61.590446,51.5557766 60.8318859,51.626586 60.2077253,51.7390614 C59.5828055,51.8515368 59.0748208,51.9984682 58.683012,52.1798556 C58.2912032,52.3612431 58.0056991,52.575341 57.8280184,52.8220734 C57.6503376,53.0688059 57.5614973,53.34453 57.5614973,53.6493216 C57.5614973,53.9395415 57.6085751,54.1899169 57.7027307,54.4003719 C57.7968863,54.610751 57.9244519,54.783107 58.083909,54.9173641 C58.2433661,55.0516211 58.4324366,55.1496007 58.6503613,55.2112269 C58.8682859,55.272929 59.103675,55.3037421 59.3580469,55.3037421 C59.6989814,55.3037421 60.0118209,55.2692861 60.2942878,55.200374 C60.5775139,55.131462 60.8447943,55.0334824 61.0953697,54.9065112 C61.3451858,54.7794641 61.5851307,54.6253227 61.8136859,54.4438593 C62.042241,54.2624719 62.2654809,54.0556599 62.4834056,53.8234232 L62.4834056,51.5267849 Z M163.482756,46.8137471 C162.93073,46.8137471 162.4516,46.9080838 162.045364,47.0966812 C161.638369,47.2853545 161.298953,47.5575115 161.027117,47.9130765 C160.754521,48.2686414 160.551024,48.7058686 160.416624,49.2246822 C160.282984,49.7434959 160.215404,50.329476 160.215404,50.9825467 C160.215404,51.6356174 160.282984,52.219776 160.416624,52.7350226 C160.551024,53.2501933 160.754521,53.6837776 161.027117,54.0356996 C161.298953,54.3876217 161.638369,54.6579573 162.045364,54.8466306 C162.4516,55.0353039 162.93073,55.1296405 163.482756,55.1296405 C164.57162,55.1296405 165.384851,54.7649683 165.92169,54.0356996 C166.459288,53.306431 166.728087,52.2886881 166.728087,50.9825467 C166.728087,49.6691194 166.459288,48.645988 165.92169,47.9130765 C165.384851,47.1801649 164.57162,46.8137471 163.482756,46.8137471 Z M151.66319,46.6722042 C150.886406,46.6722042 150.293378,46.8717304 149.883345,47.2708586 C149.472554,47.6699869 149.267537,48.2069393 149.267537,48.8817917 C149.267537,49.208365 149.32069,49.5076922 149.425476,49.7797734 C149.531021,50.0519304 149.685163,50.2859126 149.888661,50.4818718 C150.091399,50.6777551 150.341974,50.8301509 150.639628,50.9389833 C150.937281,51.0478917 151.278974,51.1023079 151.66319,51.1023079 C152.055758,51.1023079 152.402008,51.0478917 152.703458,50.9389833 C153.004907,50.8301509 153.257001,50.6777551 153.460499,50.4818718 C153.663997,50.2859126 153.815861,50.0519304 153.917609,49.7797734 C154.019358,49.5076922 154.070233,49.208365 154.070233,48.8817917 C154.070233,48.2069393 153.865216,47.6699869 153.455184,47.2708586 C153.044392,46.8717304 152.447567,46.6722042 151.66319,46.6722042 Z M221.07865,46.6722042 C220.301866,46.6722042 219.708838,46.8717304 219.298046,47.2708586 C218.888014,47.6699869 218.682997,48.2069393 218.682997,48.8817917 C218.682997,49.208365 218.73539,49.5076922 218.840936,49.7797734 C218.946481,50.0519304 219.100623,50.2859126 219.304121,50.4818718 C219.506859,50.6777551 219.757434,50.8301509 220.055088,50.9389833 C220.352741,51.0478917 220.694435,51.1023079 221.07865,51.1023079 C221.471218,51.1023079 221.817468,51.0478917 222.118918,50.9389833 C222.420367,50.8301509 222.672462,50.6777551 222.875959,50.4818718 C223.078697,50.2859126 223.231321,50.0519304 223.333069,49.7797734 C223.434818,49.5076922 223.485693,49.208365 223.485693,48.8817917 C223.485693,48.2069393 223.280676,47.6699869 222.870644,47.2708586 C222.459852,46.8717304 221.863027,46.6722042 221.07865,46.6722042 Z M43.8330027,46.7157675 C42.8967619,46.7157675 42.1594627,46.9860272 41.6224721,47.5266984 C41.0852536,48.0672937 40.7513049,48.8165225 40.6206261,49.7743849 L46.6212235,49.7743849 C46.6212235,49.3244833 46.5589593,48.9126807 46.4359496,48.5389011 C46.3121805,48.1651974 46.1307032,47.8423429 45.8915175,47.5701859 C45.6515726,47.2981047 45.3592347,47.0876497 45.0145037,46.9388968 C44.6697726,46.790144 44.2756859,46.7157675 43.8330027,46.7157675 Z M108.116982,46.7157675 C107.180742,46.7157675 106.444202,46.9860272 105.906604,47.5266984 C105.369765,48.0672937 105.035664,48.8165225 104.905061,49.7743849 L110.905203,49.7743849 C110.905203,49.3244833 110.843698,48.9126807 110.719929,48.5389011 C110.596919,48.1651974 110.415442,47.8423429 110.175497,47.5701859 C109.936312,47.2981047 109.643974,47.0876497 109.299243,46.9388968 C108.953752,46.790144 108.560425,46.7157675 108.116982,46.7157675 Z M133.827537,46.7157675 C132.891296,46.7157675 132.153997,46.9860272 131.617158,47.5266984 C131.07956,48.0672937 130.746219,48.8165225 130.614857,49.7743849 L136.615758,49.7743849 C136.615758,49.3244833 136.554253,48.9126807 136.430484,48.5389011 C136.306715,48.1651974 136.125237,47.8423429 135.886052,47.5701859 C135.646107,47.2981047 135.354528,47.0876497 135.009038,46.9388968 C134.664307,46.790144 134.270979,46.7157675 133.827537,46.7157675 Z M30.3915308,42.5578208 L28.0828961,42.5578208 L28.0828961,48.4463859 L30.2935786,48.4463859 C30.9106775,48.4463859 31.4533631,48.3720095 31.9216353,48.2232566 C32.3899076,48.0745037 32.7819442,47.8641246 33.0977451,47.5919675 C33.4135461,47.3198864 33.651289,46.9951345 33.8110498,46.6177879 C33.9707346,46.2404413 34.050615,45.8231743 34.050615,45.3660628 C34.050615,44.4371921 33.74385,43.736991 33.1303959,43.2653078 C32.5169417,42.7936245 31.604012,42.5578208 30.3915308,42.5578208 Z M115.417079,40.0760763 C115.62741,40.4244312 115.780034,40.7727103 115.874189,41.1209894 C115.969104,41.4693444 116.016182,41.8176234 116.016182,42.1659784 C116.016182,42.8262591 115.854447,43.4558025 115.530977,44.054457 C115.208266,44.6531115 114.760268,45.2028141 114.186222,45.703489 L113.587119,45.3334282 C113.529411,45.2971507 113.491445,45.2572303 113.473221,45.213667 C113.454998,45.1701036 113.445886,45.1266162 113.445886,45.0830528 C113.445886,44.9814303 113.482333,44.8943795 113.554468,44.8218245 C113.670644,44.6839245 113.783783,44.5333502 113.892366,44.3701015 C114.000948,44.2068528 114.0989,44.0363182 114.186222,43.8584978 C114.273544,43.6807533 114.342642,43.4939015 114.393516,43.2979423 C114.444391,43.1020591 114.469448,42.895247 114.469448,42.6775062 C114.469448,42.4453454 114.435279,42.2058988 114.366181,41.9591664 C114.297083,41.7124339 114.179388,41.4512056 114.012338,41.1754815 C113.961464,41.0956407 113.935647,41.0157998 113.935647,40.935959 C113.935647,40.7618574 114.033599,40.6348103 114.230263,40.5550454 L115.417079,40.0760763 Z M185.541743,40.6094616 C185.730814,40.6094616 185.908495,40.6457391 186.075545,40.7182941 C186.242595,40.7908491 186.389144,40.8906501 186.516709,41.0176213 C186.643516,41.1445925 186.745265,41.2933454 186.821196,41.46388 C186.897888,41.6344145 186.935854,41.8139805 186.935854,42.0026538 C186.935854,42.1913271 186.897888,42.3673261 186.821196,42.5305748 C186.745265,42.6938235 186.643516,42.8390093 186.516709,42.9659805 C186.389144,43.0929517 186.242595,43.1927528 186.075545,43.2653078 C185.908495,43.3378627 185.730814,43.3741402 185.541743,43.3741402 C185.353432,43.3741402 185.17727,43.3378627 185.014016,43.2653078 C184.850763,43.1927528 184.704973,43.0929517 184.578167,42.9659805 C184.451361,42.8390093 184.351131,42.6938235 184.278995,42.5305748 C184.206101,42.3673261 184.169653,42.1913271 184.169653,42.0026538 C184.169653,41.8139805 184.206101,41.6344145 184.278995,41.46388 C184.351131,41.2933454 184.451361,41.1445925 184.578167,41.0176213 C184.704973,40.8906501 184.850763,40.7908491 185.014016,40.7182941 C185.17727,40.6457391 185.353432,40.6094616 185.541743,40.6094616 Z M213.049607,40.6094616 C213.238677,40.6094616 213.416358,40.6457391 213.583408,40.7182941 C213.750459,40.7908491 213.897007,40.8906501 214.024573,41.0176213 C214.151379,41.1445925 214.253128,41.2933454 214.32906,41.46388 C214.405751,41.6344145 214.443717,41.8139805 214.443717,42.0026538 C214.443717,42.1913271 214.405751,42.3673261 214.32906,42.5305748 C214.253128,42.6938235 214.151379,42.8390093 214.024573,42.9659805 C213.897007,43.0929517 213.750459,43.1927528 213.583408,43.2653078 C213.416358,43.3378627 213.238677,43.3741402 213.049607,43.3741402 C212.860536,43.3741402 212.685134,43.3378627 212.521121,43.2653078 C212.357867,43.1927528 212.212837,43.0929517 212.086031,42.9659805 C211.958465,42.8390093 211.858994,42.6938235 211.786099,42.5305748 C211.713964,42.3673261 211.677517,42.1913271 211.677517,42.0026538 C211.677517,41.8139805 211.713964,41.6344145 211.786099,41.46388 C211.858994,41.2933454 211.958465,41.1445925 212.086031,41.0176213 C212.212837,40.8906501 212.357867,40.7908491 212.521121,40.7182941 C212.685134,40.6457391 212.860536,40.6094616 213.049607,40.6094616 Z M208.844496,-5.32907052e-15 C210.556761,-5.32907052e-15 212.16424,0.352832735 213.666934,1.05864999 C215.169627,1.76446725 216.491602,2.76308483 217.633618,4.05450273 C218.774875,5.34592063 219.676947,6.90767413 220.337554,8.73976323 C220.998922,10.5717764 221.329226,12.6140928 221.329226,14.8665606 C221.329226,17.1491585 220.998922,19.206426 220.337554,21.0385151 C219.676947,22.8705283 218.774875,24.4397954 217.633618,25.7462403 C216.491602,27.0526853 215.169627,28.0588164 213.666934,28.7646337 C212.16424,29.4703751 210.556761,29.8232837 208.844496,29.8232837 C207.131472,29.8232837 205.516399,29.4703751 203.99852,28.7646337 C202.4814,28.0588164 201.159425,27.0526853 200.032595,25.7462403 C198.905765,24.4397954 198.012046,22.8705283 197.350678,21.0385151 C196.689311,19.206426 196.359007,17.1491585 196.359007,14.8665606 C196.359007,12.6140928 196.689311,10.5717764 197.350678,8.73976323 C198.012046,6.90767413 198.905765,5.34592063 200.032595,4.05450273 C201.159425,2.76308483 202.4814,1.76446725 203.99852,1.05864999 C205.516399,0.352832735 207.131472,-5.32907052e-15 208.844496,-5.32907052e-15 Z M164.289912,-5.32907052e-15 C165.912578,-5.32907052e-15 167.332505,0.202713752 168.548935,0.608141257 C169.766124,1.01356876 170.735015,1.51667227 171.456369,2.11737588 L171.005333,7.70357796 C170.314352,7.10287435 169.465433,6.58481966 168.459335,6.149338 C167.452477,5.71385634 166.318054,5.49611551 165.056065,5.49611551 C164.004408,5.49611551 163.04311,5.72888342 162.171411,6.19441923 C161.299712,6.65987915 160.533559,7.30566399 159.872951,8.13154608 C159.211584,8.95750406 158.700562,9.95612164 158.339885,11.1273988 C157.979968,12.2987519 157.79925,13.6051969 157.79925,15.0468096 C157.79925,16.4283141 157.972375,17.6972673 158.317865,18.8535174 C158.663356,20.0098434 159.136412,21.0009474 159.737792,21.8268295 C160.338414,22.6527875 161.052174,23.2984964 161.878314,23.7640323 C162.704453,24.2295681 163.598932,24.462336 164.56023,24.462336 C165.702246,24.462336 166.618745,24.2370816 167.309725,23.7865729 L167.309725,18.7408902 L163.4782,18.7408902 L163.4782,13.8754566 L172.899075,13.8754566 L172.899075,27.0301447 C171.967391,27.9011839 170.795001,28.5843847 169.383427,29.0799746 C167.971093,29.5754887 166.273254,29.8232837 164.289912,29.8232837 C162.636874,29.8232837 161.044581,29.4929157 159.512275,28.8321797 C157.979968,28.1714436 156.62762,27.2103937 155.455231,25.9489541 C154.283601,24.6875903 153.351916,23.1333504 152.660936,21.2862342 C151.969955,19.4391939 151.624465,17.3143045 151.624465,14.9116418 C151.624465,12.5089792 151.977548,10.3765762 152.683715,8.51450886 C153.389882,6.6524415 154.335994,5.090688 155.52357,3.82924836 C156.710386,2.56780872 158.061975,1.61427238 159.579854,0.968563425 C161.096974,0.322854475 162.667247,-5.32907052e-15 164.289912,-5.32907052e-15 Z M230.456245,0.540595305 L230.456245,20.1374977 C230.456245,21.4289156 230.832108,22.4500737 231.583075,23.2008963 C232.334801,23.9517189 233.340899,24.3271682 234.602888,24.3271682 C235.864877,24.3271682 236.879327,23.9517189 237.645481,23.2008963 C238.411634,22.4500737 238.79509,21.4439426 238.79509,20.182503 L238.79509,0.540595305 L244.834717,0.540595305 L244.834717,20.6330117 C244.834717,22.0746245 244.571992,23.3586048 244.045784,24.4848007 C243.520335,25.6110725 242.791388,26.5646848 241.859703,27.3455615 C240.928778,28.1264383 239.839154,28.727066 238.592352,29.1475206 C237.34479,29.5679752 236.000795,29.7782784 234.558088,29.7782784 C233.11614,29.7782784 231.771386,29.5679752 230.523824,29.1475206 C229.277022,28.727066 228.188158,28.1264383 227.256473,27.3455615 C226.324788,26.5646848 225.595841,25.6110725 225.070392,24.4848007 C224.544184,23.3586048 224.281459,22.0746245 224.281459,20.6330117 L224.281459,0.540595305 L230.456245,0.540595305 Z M50.9774388,0.540595305 L56.0253941,13.0195203 C56.4460571,14.0106244 56.8591268,15.0618367 57.2646034,16.1730815 C57.6700799,17.2842504 58.0231635,18.3354627 58.3238539,19.3265667 L58.4142129,19.3265667 C58.7445169,18.3354627 59.0976004,17.2842504 59.4734635,16.1730815 C59.8493266,15.0618367 60.24721,14.0106244 60.6678729,13.0195203 L65.7158282,0.540595305 L70.7189837,0.540595305 L72.8374848,29.2826884 L66.887458,29.2826884 L66.1668639,19.1463936 C66.1068777,18.3954951 66.0537253,17.5846401 66.0089255,16.7136768 C65.9641256,15.8426376 65.9565325,14.9567231 65.9861459,14.0557056 L65.8965462,14.0557056 C65.6254692,14.9266689 65.325538,15.8126593 64.9944748,16.7136768 C64.6641708,17.6146184 64.3338669,18.4556034 64.0028037,19.2364802 L59.8561605,29.3277696 L56.8819064,29.3277696 L52.6449042,19.2364802 C52.3146003,18.4856576 51.9911302,17.6596996 51.6760127,16.7586821 C51.3601358,15.8576647 51.0670385,14.9567231 50.7967208,14.0557056 L50.7063618,14.0557056 C50.7063618,15.0167555 50.6919347,15.9027459 50.661562,16.7136768 C50.6319485,17.5245318 50.5863893,18.3354627 50.5264031,19.1463936 L49.7602498,29.2826884 L43.9005821,29.2826884 L45.9742834,0.540595305 L50.9774388,0.540595305 Z M257.297426,0.540595305 C258.409069,0.540595305 259.453134,0.743309057 260.429618,1.14873656 C261.406103,1.55423996 262.262615,2.12481353 262.999155,2.86068494 C263.734936,3.59648046 264.32113,4.48998439 264.756979,5.54119674 C265.192829,6.5923332 265.409994,7.76361037 265.409994,9.05510417 C265.409994,10.3465221 265.192829,11.5178751 264.756979,12.5690116 C264.32113,13.6202239 263.734936,14.5211655 262.999155,15.272064 C262.262615,16.0228866 261.406103,16.6010496 260.429618,17.0064771 C259.453134,17.4119046 258.409069,17.6146184 257.297426,17.6146184 L254.50313,17.6146184 L254.50313,29.2826884 L248.508304,29.2826884 L248.508304,0.540595305 L257.297426,0.540595305 Z M185.812061,0.540595305 C186.894091,0.540595305 187.930562,0.743309057 188.922233,1.14873656 C189.913904,1.55423996 190.777251,2.12481353 191.51379,2.86068494 C192.249571,3.59648046 192.835765,4.48998439 193.271615,5.54119674 C193.707464,6.5923332 193.925389,7.76361037 193.925389,9.05510417 C193.925389,10.6468359 193.579898,12.0509569 192.888158,13.2673153 C192.197178,14.4836737 191.340666,15.3771777 190.319381,15.9478271 L197.576196,29.2826884 L190.815216,29.2826884 L184.685231,17.6146184 L182.882607,17.6146184 L182.882607,29.2826884 L176.88778,29.2826884 L176.88778,0.540595305 L185.812061,0.540595305 Z M140.041047,0.540595305 L140.041047,2.02721342 L133.955862,16.7136768 C133.475213,17.8548998 132.94217,19.0862853 132.355976,20.4077574 C131.769781,21.7292294 131.251926,22.9005825 130.80089,23.9217407 L130.84569,23.966746 L140.446524,23.966746 L140.446524,29.2826884 L122.822721,29.2826884 L122.822721,27.7960703 L128.907907,13.1546881 C129.358183,12.0434434 129.876798,10.8195714 130.462993,9.48307229 C131.048428,8.14657316 131.597416,6.95275536 132.107678,5.90154301 L132.062879,5.85653768 L123.588874,5.85653768 L123.588874,0.540595305 L140.041047,0.540595305 Z M33.0833181,0.405427505 L42.0075989,29.2826884 L35.8778412,29.2826884 L34.1200168,22.975642 L27.0435398,22.975642 L25.2857154,29.2826884 L13.9274363,29.2826884 L7.79752676,17.6146184 L5.99467473,17.6146184 L5.99467473,29.2826884 L1.1812773e-13,29.2826884 L1.1812773e-13,0.540595305 L8.92435673,0.540595305 C10.0060831,0.540595305 11.0427819,0.743309057 12.0343771,1.14873656 C13.0259723,1.55423996 13.88985,2.12481353 14.626086,2.86068494 C15.3622462,3.59648046 15.948213,4.48998439 16.3839104,5.54119674 C16.8196079,6.5923332 17.0374566,7.76361037 17.0374566,9.05510417 C17.0374566,10.6468359 16.6918904,12.0509569 16.0007579,13.2673153 C15.3096254,14.4836737 14.4532649,15.3771777 13.4316007,15.9478271 L19.913,27.858 L28.4408393,0.405427505 L33.0833181,0.405427505 Z M82.0325389,0.540595305 L82.0325389,29.2826884 L75.8124981,29.2826884 L75.8124981,0.540595305 L82.0325389,0.540595305 Z M95.0582074,0.540595305 C96.1402376,0.540595305 97.1767085,0.743309057 98.1683797,1.14873656 C99.1600508,1.55423996 100.023397,2.12481353 100.759937,2.86068494 C101.496477,3.59648046 102.081912,4.48998439 102.517761,5.54119674 C102.95361,6.5923332 103.171535,7.76361037 103.171535,9.05510417 C103.171535,10.6468359 102.826045,12.0509569 102.134305,13.2673153 C101.443324,14.4836737 100.586812,15.3771777 99.5655273,15.9478271 L106.822343,29.2826884 L100.061363,29.2826884 L93.9313775,17.6146184 L92.1287532,17.6146184 L92.1287532,29.2826884 L86.1339266,29.2826884 L86.1339266,0.540595305 L95.0582074,0.540595305 Z M121.380773,0.540595305 L121.380773,5.72136988 L113.492964,5.72136988 L113.492964,12.2536707 L119.893267,12.2536707 L119.893267,17.4795265 L113.492964,17.4795265 L113.492964,24.1019138 L122.326885,24.1019138 L122.326885,29.2826884 L107.318178,29.2826884 L107.318178,0.540595305 L121.380773,0.540595305 Z M208.844496,5.58620208 C208.032784,5.58620208 207.259037,5.81145645 206.523257,6.26196518 C205.786717,6.71247392 205.132943,7.34315579 204.561935,8.1540867 C203.991686,8.9650176 203.54065,9.94109456 203.210346,11.0823935 C202.879283,12.2236165 202.714511,13.4850561 202.714511,14.8665606 C202.714511,16.2781951 202.879283,17.554586 203.210346,18.6958849 C203.54065,19.8371079 203.991686,20.8132608 204.561935,21.6241158 C205.132943,22.4350467 205.786717,23.0657285 206.523257,23.5162373 C207.259037,23.966746 208.032784,24.1920004 208.844496,24.1920004 C209.655449,24.1920004 210.429196,23.966746 211.165735,23.5162373 C211.901516,23.0657285 212.547697,22.4350467 213.103519,21.6241158 C213.65934,20.8132608 214.110376,19.8371079 214.455866,18.6958849 C214.801357,17.554586 214.973722,16.2781951 214.973722,14.8665606 C214.973722,13.4850561 214.801357,12.2236165 214.455866,11.0823935 C214.110376,9.94109456 213.65934,8.9650176 213.103519,8.1540867 C212.547697,7.34315579 211.901516,6.71247392 211.165735,6.26196518 C210.429196,5.81145645 209.655449,5.58620208 208.844496,5.58620208 Z M30.6042921,9.77587261 L30.5141609,9.77587261 C30.4540987,10.2864897 30.3638916,10.7820037 30.2437673,11.2625666 C30.123567,11.7431295 29.9883322,12.1935624 29.8380629,12.6140928 L28.3056045,18.2453761 L32.8579521,18.2453761 L31.2803901,12.6140928 C31.1301967,12.1935624 31.0024792,11.7431295 30.8973135,11.2625666 C30.7921477,10.7820037 30.6944233,10.2864897 30.6042921,9.77587261 Z M8.11302396,5.49611551 L5.99467473,5.49611551 L5.99467473,12.5690116 L8.11302396,12.5690116 C8.83422552,12.5690116 9.49528898,12.2762113 10.0962143,11.6905347 C10.6972156,11.1048582 10.9976783,10.2263813 10.9976783,9.05510417 C10.9976783,7.8837511 10.6972156,6.9977607 10.0962143,6.39713298 C9.49528898,5.79642937 8.83422552,5.49611551 8.11302396,5.49611551 Z M94.2472543,5.49611551 L92.1287532,5.49611551 L92.1287532,12.5690116 L94.2472543,12.5690116 C94.9678484,12.5690116 95.6292156,12.2762113 96.2298372,11.6905347 C96.8312182,11.1048582 97.1319087,10.2263813 97.1319087,9.05510417 C97.1319087,7.8837511 96.8312182,6.9977607 96.2298372,6.39713298 C95.6292156,5.79642937 94.9678484,5.49611551 94.2472543,5.49611551 Z M185.001108,5.49611551 L182.882607,5.49611551 L182.882607,12.5690116 L185.001108,12.5690116 C185.721702,12.5690116 186.383069,12.2762113 186.983691,11.6905347 C187.585072,11.1048582 187.885762,10.2263813 187.885762,9.05510417 C187.885762,7.8837511 187.585072,6.9977607 186.983691,6.39713298 C186.383069,5.79642937 185.721702,5.49611551 185.001108,5.49611551 Z M256.531272,5.49611551 L254.50313,5.49611551 L254.50313,12.5690116 L256.531272,12.5690116 C257.251867,12.5690116 257.913234,12.2762113 258.514615,11.6905347 C259.115236,11.1048582 259.415927,10.2263813 259.415927,9.05510417 C259.415927,7.8837511 259.115236,6.9977607 258.514615,6.39713298 C257.913234,5.79642937 257.251867,5.49611551 256.531272,5.49611551 Z" id="Combined-Shape"></path>
                        </g>
                        <g id="Iso">
                            <path d="M297.744395,148.798421 C297.744395,230.977559 231.092099,297.596842 148.872236,297.596842 C66.6522968,297.596842 -1.42108547e-14,230.977559 -1.42108547e-14,148.798421 C-1.42108547e-14,66.619283 66.6522968,0 148.872236,0 C231.092099,0 297.744395,66.619283 297.744395,148.798421" id="Fill-34" fill="#000000"></path>
                            <path d="M297.744395,148.798421 C297.744395,230.977559 231.092099,297.596842 148.872236,297.596842 C66.6522968,297.596842 -1.42108547e-14,230.977559 -1.42108547e-14,148.798421 C-1.42108547e-14,66.619283 66.6522968,0 148.872236,0 C231.092099,0 297.744395,66.619283 297.744395,148.798421 Z" id="Stroke-35" stroke="#000000" stroke-width="0.55"></path>
                            <path d="M144.007276,192.189486 C141.558471,192.189486 141.067192,189.209875 140.386842,185.086536 C139.960104,182.500057 139.42934,179.280619 138.341994,176.04145 C137.25313,172.803797 135.733732,169.916018 134.511987,167.59517 C132.83541,164.410644 131.727563,162.306853 132.363114,160.72142 C132.546869,160.263019 132.967532,159.649033 133.928071,159.326483 C134.291025,159.204293 134.674482,159.142818 135.068568,159.142818 C138.862887,159.142818 143.47879,164.994271 146.293587,173.373005 C147.705162,177.573756 148.41057,181.753257 148.280726,185.141938 C148.136455,188.905538 146.941286,191.352371 144.914663,192.032385 C144.604101,192.13636 144.298855,192.189486 144.007276,192.189486 L144.007276,192.189486 Z M110.464342,138.748494 C104.280445,138.748494 98.7214679,141.269704 94.3903101,146.039662 C87.3536973,153.788473 84.302752,166.547828 85.7993705,181.968038 C88.6513741,211.429457 105.555342,221.926402 120.424335,221.926402 C132.039643,221.926402 142.699728,215.770613 148.245038,205.86109 C154.933123,193.909251 153.225414,178.554311 143.435509,162.626368 C134.088287,147.452056 122.06978,138.748494 110.464342,138.748494 L110.464342,138.748494 Z M119.538968,266.258556 C91.1647213,266.254761 68.0750336,251.069065 56.1909258,224.596364 C51.8180054,214.893274 50.0442353,205.301749 50.4421187,193.498663 C50.694972,187.35274 51.4474575,181.179496 52.1741262,175.209648 L52.2462615,174.615395 C53.1027738,167.436551 53.892466,160.401905 54.1362075,153.286812 L54.2387156,150.4514 C54.541684,142.179677 54.8537643,133.627145 54.6563413,125.233991 C54.5773721,121.58651 54.3814677,117.866929 54.1923971,114.268778 L54.0952042,112.410885 C54.0526824,111.626897 54.0048452,110.812551 53.9562488,109.975436 C53.3822033,100.132701 52.6676838,87.883356 56.4187216,79.3300652 C57.5197347,76.9158666 58.790076,74.8940416 60.3087148,73.1340521 C65.6444522,66.885672 79.6914053,60.1363894 93.0751689,60.1363894 C94.6621464,60.1363894 96.1473752,60.2494719 97.4883332,60.4718423 C100.161137,60.8991274 102.795216,61.8311097 105.310082,63.2404674 C111.032313,66.4667354 115.614806,71.985771 118.96796,76.4346965 C121.766811,80.1155715 124.548198,84.4134673 127.237708,88.5694408 C129.454161,91.9945518 131.746546,95.5365401 133.977427,98.6117784 C139.146114,105.727631 144.801524,112.662854 150.270902,119.369636 L151.330153,120.668188 C155.869364,126.200885 160.742676,131.326788 165.752665,136.527067 L166.141437,136.929307 C170.335158,141.260596 174.671631,145.739121 178.554031,150.504526 C185.863239,159.452467 190.384986,168.430007 192.782157,178.756949 C199.158922,206.525166 189.553531,226.085411 180.37336,237.604652 C166.286467,255.278924 142.979917,266.258556 119.549599,266.258556 L119.538968,266.258556 Z M91.6833365,52.7708448 C78.946513,52.7708448 63.1705896,59.0594489 56.5174331,66.7885273 C54.7922594,68.8376742 53.3548678,71.1486565 52.2538547,73.6470978 C47.9766086,83.3926886 48.6311419,96.3493684 49.1565909,106.760552 L49.1748146,107.121051 C49.4193154,111.460688 49.6698908,115.911132 49.7974565,120.295547 C49.9622288,128.794194 49.6539451,137.383155 49.3555326,145.689031 L49.2317635,149.174857 C48.9485374,156.891792 48.0692456,164.545736 47.2674043,171.11439 L47.0828897,172.68692 C46.3827972,178.611231 45.6599251,184.737422 45.4450377,190.761155 C44.9803343,203.178985 46.8444634,213.345789 51.4892201,223.727374 C64.0741797,251.732382 88.4843239,267.797693 118.458457,267.797693 C143.291998,267.797693 167.982786,256.172959 182.896578,237.457417 C192.587772,225.296869 202.722408,204.630843 195.971299,175.240005 C193.412393,164.188273 188.771432,154.952692 180.921589,145.296657 C176.622322,140.075886 171.814312,135.117709 167.571994,130.74316 C162.966722,125.989899 157.645412,120.417737 152.759951,114.434228 L150.672582,111.871277 C145.380885,105.380794 139.909989,98.669458 134.911389,91.7403058 C132.61217,88.5846196 130.376734,85.2961184 128.215711,82.116146 C125.545185,78.1870966 122.78354,74.1237142 119.88294,70.2872559 C116.320973,65.5787717 111.436271,59.7242832 105.237947,56.2164473 C102.532492,54.6735156 99.6911188,53.6694336 96.5482958,53.1450038 C95.0691416,52.8968293 93.4328083,52.7708448 91.6833365,52.7708448 L91.6833365,52.7708448 Z M118.096261,273.348604 C85.5882797,273.348604 59.1196207,255.924025 45.4761698,225.543526 C36.4395098,205.438359 38.494228,188.382626 40.6696781,170.325848 C41.5170785,163.288166 42.3940924,156.010659 42.673522,148.238321 L42.7502132,146.199799 C43.0752019,137.556953 43.4108211,128.620396 43.2278251,119.698259 C43.1511339,116.065956 42.9476363,112.287177 42.7502132,108.632866 C41.8428266,91.778253 40.9035485,74.3498793 51.4846642,61.9495049 C59.2828743,52.8490159 76.859144,45.7225384 91.5003405,45.7225384 C93.5808756,45.7225384 95.5490315,45.8728092 97.3501371,46.170315 C113.391519,48.8402775 122.375026,62.001872 132.777702,77.2422122 C135.016175,80.5208472 137.329822,83.9110468 139.784701,87.295175 C144.562339,93.9336519 149.754565,100.309534 154.775944,106.475949 C155.663588,107.565791 156.547436,108.65108 157.42445,109.733333 C162.338765,115.759343 167.43152,121.03324 172.356466,126.134098 C184.993818,139.220557 196.92956,151.580707 201.862099,173.064115 C209.19029,204.925313 198.189271,227.354364 187.66966,240.559977 C171.55918,260.784298 144.898717,273.348604 118.09778,273.348604 L118.096261,273.348604 Z" id="Fill-36" fill="#FFFFFF"></path>
                            <path d="M120.425094,220.788746 C112.408959,220.788746 104.844619,217.60422 99.1239072,211.82259 C92.3872255,205.013351 88.1714843,194.652257 86.9337937,181.859509 C85.4683072,166.762609 88.4159851,154.313662 95.2331546,146.806195 C99.3433505,142.280616 104.60999,139.887668 110.464342,139.887668 C121.502568,139.887668 132.990311,148.148766 142.065697,162.580831 C139.95327,159.833457 137.540153,158.005162 135.068568,158.005162 C134.551472,158.005162 134.045765,158.087128 133.565875,158.248024 C132.193026,158.708703 131.579496,159.617158 131.306141,160.29793 C130.474686,162.372122 131.679726,164.661095 133.504371,168.12643 C134.706373,170.410849 136.202992,173.253092 137.261483,176.404983 C138.320733,179.556875 138.843145,182.726222 139.263808,185.272477 C139.976809,189.595418 140.592617,193.32866 144.007276,193.32866 C144.422624,193.32866 144.849362,193.255801 145.276858,193.112361 C150.497939,191.36072 150.28381,181.674327 147.374099,173.011748 C147.174398,172.416736 146.95951,171.820966 146.732474,171.22899 C154.221641,187.899938 150.504772,199.491279 147.251089,205.306303 C141.907758,214.856086 131.628092,220.788746 120.425094,220.788746 M87.3218059,259.882674 C85.0628307,258.821671 82.8699163,257.639237 80.7514152,256.339167 C68.510807,248.825629 59.0147586,237.695725 52.5278931,223.259865 C47.9590683,213.049042 46.125312,203.039339 46.5831816,190.806691 C46.7965503,184.827736 47.5163851,178.72735 48.212681,172.828084 L48.4002329,171.242651 C49.2028335,164.662613 50.0851626,156.981348 50.3699074,149.218876 L50.4936764,145.742157 C50.7928483,137.416549 51.1026506,128.807855 50.937119,120.285681 C50.8072754,115.867113 50.5574593,111.413634 50.3152364,107.106631 L50.3121991,107.051228 L50.2947348,106.703632 C49.7753603,96.4123607 49.1284202,83.6044338 53.297843,74.1039817 C54.3540562,71.7072388 55.7337396,69.4888475 57.3974083,67.5125592 C63.8463079,60.0202711 79.2350544,53.9100186 91.6840958,53.9100186 C93.3697848,53.9100186 94.9423353,54.0306906 96.3592253,54.2682399 C99.3691673,54.7706603 102.086771,55.7307236 104.671495,57.2038325 C110.694416,60.6130058 115.478888,66.3536528 118.974794,70.9756174 C121.85793,74.7893075 124.611981,78.8413057 127.275674,82.7597299 C129.441252,85.9457738 131.681245,89.2411056 133.993372,92.4157653 C139.00564,99.3631322 144.487166,106.08737 149.788734,112.590755 L151.875344,115.151429 C156.792696,121.173644 162.13299,126.765539 166.753448,131.534738 C170.981338,135.895626 175.773403,140.837106 180.046853,146.02676 C187.772168,155.530248 192.344789,164.623907 194.861933,175.499564 C197.578778,187.327695 197.69951,198.780908 195.218054,209.538171 C193.95075,215.033679 192.022838,220.291638 189.455579,225.271065 C191.531558,220.926874 193.122333,216.374732 194.214234,211.641961 C196.638741,201.139704 196.530917,189.990827 193.893042,178.504979 C191.453349,167.99741 186.860226,158.872634 179.435601,149.784289 C175.525865,144.98549 171.174965,140.491028 166.966817,136.145319 L166.569693,135.733971 C161.580205,130.555701 156.725117,125.448772 152.207926,119.944156 L151.15399,118.651676 C145.694484,111.957037 140.049704,105.033956 134.898481,97.9423904 C132.685824,94.8929562 130.402551,91.3646289 128.193691,87.9516609 C125.492792,83.7774728 122.700015,79.4613623 119.87155,75.7425402 C116.45841,71.2139256 111.775687,65.5795306 105.871979,62.2508054 C103.234862,60.7723839 100.473977,59.7971417 97.661458,59.3470884 C96.2726629,59.1171285 94.7244106,58.9987334 93.0751689,58.9987334 C87.5177103,58.9987334 80.7878625,60.3534472 74.6123179,62.7160376 C67.999785,65.2455956 62.6108953,68.6851266 59.4392182,72.400154 C57.8560373,74.233761 56.5295063,76.3443823 55.3897679,78.8428236 C51.514961,87.6769234 52.2378331,100.078057 52.8194717,110.042223 C52.8680682,110.87782 52.915146,111.690648 52.9584272,112.476913 L53.0548608,114.326458 C53.243172,117.917019 53.438317,121.62901 53.5172863,125.256759 C53.7154686,133.624109 53.402629,142.163739 53.1004199,150.421801 L52.9979118,153.24507 C52.7556889,160.314627 51.969034,167.325745 51.115559,174.484098 L51.0426644,175.077592 C50.3137177,181.067931 49.5589543,187.262426 49.3045823,193.444019 C48.9059396,205.285052 50.7647535,215.328149 55.1536195,225.06615 C61.4536925,239.101288 70.721945,249.945829 82.6990694,257.297713 C84.2025218,258.220588 85.7446995,259.082747 87.3218059,259.882674 M91.5003405,44.5848824 C78.4081556,44.5848824 59.5379297,50.8021459 50.6212421,61.2072584 C39.7424732,73.9575056 40.6939004,91.6165981 41.6134362,108.69434 C41.8093406,112.339545 42.0128382,116.108457 42.0887701,119.723304 C42.2717661,128.612048 41.9361469,137.532667 41.6119175,146.159575 L41.5352263,148.195061 C41.2573154,155.922622 40.3840981,163.176602 39.5389756,170.190756 C37.3437832,188.409189 35.2708413,205.617469 44.4381043,226.011035 C51.6584724,242.089248 62.2646456,254.509355 75.9631471,262.924518 C88.2762704,270.489665 102.846091,274.487778 118.097021,274.487778 C131.355497,274.487778 144.838731,271.468702 157.088831,265.756136 C169.543947,259.948702 180.426512,251.481171 188.561101,241.26883 C195.816398,232.16227 200.795255,221.896803 203.360236,210.757792 C206.129474,198.733854 205.998871,185.966151 202.972983,172.80911 C197.969068,151.019089 185.926263,138.547374 173.176531,125.344038 C168.267531,120.260636 163.191481,115.004194 158.30602,109.012337 C157.432043,107.934638 156.548195,106.849349 155.659792,105.758747 C150.649043,99.6052351 145.467448,93.2422546 140.71259,86.6341354 C138.261507,83.2560788 135.952416,79.8727096 133.719258,76.6009051 C123.169274,61.145784 114.058201,47.7974894 97.5384483,45.0485968 C95.6735599,44.7404658 93.6431398,44.5848824 91.5003405,44.5848824 M135.068568,160.281992 C138.240246,160.281233 142.607091,165.974067 145.213835,173.73578 C148.0423,182.154738 147.749962,189.88078 144.551708,190.953926 C144.355804,191.019954 144.174327,191.05183 144.007276,191.05183 C141.449129,191.05183 142.075568,183.58231 139.421747,175.680193 C136.593282,167.261994 131.092013,161.479605 134.291025,160.406459 C134.540082,160.322216 134.800529,160.281992 135.068568,160.281992 M120.425094,223.065576 C143.916158,223.065576 166.420107,197.848926 144.406678,162.031356 C134.106511,145.311077 121.481307,137.610838 110.464342,137.610838 C94.504208,137.610838 81.9184891,153.771777 84.666466,182.078843 C87.4675952,211.015833 104.180215,223.065576 120.425094,223.065576 M93.0751689,61.2755633 C94.5763433,61.2755633 95.9985486,61.3795385 97.3023,61.5958373 C99.9348603,62.0162919 102.414797,62.9232291 104.752742,64.2339242 C110.070256,67.2317502 114.420396,72.2939019 118.058296,77.1200223 C123.158644,83.8275631 128.120796,92.4779987 133.054853,99.2804074 C138.572068,106.875912 144.52741,114.125338 150.447064,121.388425 C154.999184,126.935542 159.953743,132.150241 164.9326,137.317127 C169.292612,141.822215 173.70122,146.350829 177.670942,151.224004 C184.588342,159.692293 189.195133,168.344247 191.672792,179.014989 C203.453632,230.313484 161.205861,265.1209 119.538968,265.1209 C94.7084649,265.1209 70.0772829,252.747089 57.2303581,224.131132 C52.7275941,214.140403 51.2127519,204.450974 51.5802625,193.538128 C51.8391904,187.24497 52.6197707,180.97534 53.3775715,174.753523 C54.2272499,167.630081 55.0290912,160.483871 55.2751106,153.326277 C55.6099705,143.964711 56.0162064,134.579619 55.7944851,125.208187 C55.7018481,120.930783 55.4558287,116.665521 55.2333481,112.353206 C54.7018245,102.650116 53.4983033,88.8252046 57.4619505,79.787708 C58.4414725,77.6406574 59.6343633,75.6590565 61.1712257,73.8785755 C67.3968854,66.5874073 82.3232063,61.2755633 93.0751689,61.2755633 M118.458457,268.936867 C163.89537,268.936867 209.939738,230.963899 197.081424,174.985759 C194.364579,163.250219 189.353071,153.864368 181.805436,144.579455 C177.598048,139.470249 172.98746,134.692701 168.389781,129.951583 C163.304619,124.701972 158.278684,119.392405 153.643039,113.71475 C147.580633,106.263445 141.459,98.871337 135.834722,91.0754715 C130.698685,84.0241294 126.058485,76.5690295 120.791845,69.6019301 C116.666463,64.1489226 111.80606,58.6253333 105.799843,55.2260263 C102.963026,53.6087182 99.9614365,52.5613764 96.7358477,52.0232856 C95.1663345,51.7591734 93.4692557,51.6331888 91.6840958,51.6331888 C79.36262,51.6331888 62.8842503,57.6478143 55.654011,66.0462808 C53.8445529,68.1956082 52.3562869,70.5915921 51.2119926,73.189455 C46.776808,83.294026 47.4928462,96.3736546 48.0380375,107.17873 C48.284057,111.562387 48.5308358,115.946043 48.6591608,120.3297 C48.8459534,129.950065 48.4283277,139.537036 48.0934679,149.135392 C47.8246688,156.459195 47.0228275,163.7238 46.1374611,170.977021 C45.3690299,177.519871 44.5421311,184.12116 44.306742,190.72169 C43.8595029,202.689466 45.5300056,213.196277 50.4496359,224.193365 C64.4879328,255.43223 91.3667003,268.936867 118.458457,268.936867 M91.5003405,46.8617123 C93.4905166,46.8617123 95.3941303,47.0021168 97.1648631,47.29431 C116.138736,50.452273 125.165525,69.0828129 138.862887,87.963804 C144.499315,95.7960988 150.668026,103.211734 156.540602,110.450535 C174.226669,132.142652 194.002384,143.925246 200.752733,173.31912 C214.305825,232.245754 165.889343,272.210948 118.097021,272.210948 C89.585337,272.210948 61.2934761,257.986074 46.5156022,225.078293 C34.1508452,197.568876 42.8055676,176.245605 43.8124251,148.280063 C44.1594341,138.954168 44.5649106,129.332285 44.3667283,119.67549 C43.9430281,99.58019 39.7811985,77.4205638 52.3509717,62.6887157 C60.3511608,53.3537132 77.9616758,46.8617123 91.5003405,46.8617123" id="Fill-37" fill="#000000"></path>
                            <polygon id="Fill-38" fill="#000000" points="234.792262 163.197852 214.744712 163.197852 181.25417 180.337827 176.216086 198.531975 183.421268 200.41036 205.504554 199.158103 223.202011 186.321336 234.792262 177.42728"></polygon>
                            <polygon id="Stroke-39" stroke="#000000" stroke-width="1.35168" points="234.792262 163.197852 214.744712 163.197852 181.25417 180.337827 176.216086 198.531975 183.421268 200.41036 205.504554 199.158103 223.202011 186.321336 234.792262 177.42728"></polygon>
                            <path d="M260.283373,144.932364 C260.283373,144.932364 291.814111,148.64132 311.34988,170.500405 C330.88565,192.359489 331.028402,224.091667 331.028402,224.091667 C331.028402,224.091667 299.498423,220.38347 279.961895,198.525144 C260.425366,176.66606 260.283373,144.932364 260.283373,144.932364 Z" id="Fill-40" fill="#FFFFFF"></path>
                            <path d="M260.283373,144.932364 C260.283373,144.932364 291.814111,148.64132 311.34988,170.500405 C330.88565,192.359489 331.028402,224.091667 331.028402,224.091667 C331.028402,224.091667 299.498423,220.38347 279.961895,198.525144 C260.425366,176.66606 260.283373,144.932364 260.283373,144.932364 Z" id="Stroke-41" stroke="#000000" stroke-width="1.35168"></path>
                            <path d="M144.044483,141.535334 C144.044483,141.535334 162.293206,115.568089 190.818557,108.775547 C219.345428,101.982246 247.348368,116.937223 247.348368,116.937223 C247.348368,116.937223 229.099645,142.904468 200.573534,149.696251 C172.046664,156.490311 144.044483,141.535334 144.044483,141.535334 Z" id="Fill-42" fill="#FFFFFF"></path>
                            <path d="M144.044483,141.535334 C144.044483,141.535334 162.293206,115.568089 190.818557,108.775547 C219.345428,101.982246 247.348368,116.937223 247.348368,116.937223 C247.348368,116.937223 229.099645,142.904468 200.573534,149.696251 C172.046664,156.490311 144.044483,141.535334 144.044483,141.535334 Z" id="Stroke-43" stroke="#000000" stroke-width="1.35168"></path>
                            <path d="M260.283373,144.932364 C260.283373,144.932364 262.179394,145.156252 265.326013,145.814256 C262.414024,141.634756 260.451183,135.504012 259.609857,132.055373 L272.471209,108.819566 L277.213158,105.169807 C277.549537,104.911767 277.781129,104.49283 277.821373,104.071616 C277.861617,103.650403 277.705197,103.290664 277.410582,103.127491 L269.273715,98.6284751 C268.979099,98.4653023 268.591087,98.5237409 268.255468,98.7817817 C267.919848,99.0398224 267.688256,99.4587591 267.647253,99.8799726 L267.073207,105.834642 L264.237909,110.95675 C263.342671,112.574817 257.202815,117.946618 244.589001,115.607554 C246.368086,116.413552 247.348368,116.937223 247.348368,116.937223 C247.348368,116.937223 246.027911,118.81409 243.546455,121.688967 C249.614177,122.803855 254.577088,122.413758 258.497454,121.32771 L240.010305,154.725009 C241.025515,154.737152 241.983776,154.917781 242.83877,155.326092 C242.935203,155.367834 243.031637,155.411853 243.126552,155.46422 C243.222226,155.517346 243.311066,155.575026 243.397629,155.634982 C244.197192,156.141956 244.859319,156.85764 245.409066,157.710692 L255.438156,139.59168 C256.600674,142.839199 258.281048,146.597486 260.564322,149.731163 C260.291726,146.718917 260.283373,144.932364 260.283373,144.932364" id="Fill-44" fill="#FFFFFF"></path>
                            <path d="M228.378291,173.525553 C225.218004,174.107662 221.586939,174.428695 217.277801,174.506866 C216.406102,174.534188 215.475177,174.607806 214.550326,174.725442 C203.886444,176.072566 193.563497,183.054844 186.936157,193.400759 C186.053828,194.777482 184.258797,195.21767 182.847982,194.437476 C182.789514,194.404841 182.731806,194.371448 182.675616,194.33426 C181.240503,193.415938 180.822118,191.509473 181.740894,190.075829 C189.456339,178.03064 201.133152,170.205176 213.776579,168.6076 C214.894297,168.466437 216.020368,168.37764 217.125178,168.342729 C221.133625,168.26987 224.435905,167.982231 227.259814,167.461596 C228.935632,167.152706 230.54387,168.260004 230.852154,169.934992 C231.161197,171.609221 230.054109,173.216663 228.378291,173.525553 M252.348486,233.028983 C252.533,232.696566 252.71144,232.36339 252.884565,232.029455 C261.316048,216.110619 261.975896,197.955178 255.35615,183.693875 C254.758565,182.40443 254.100995,181.148379 253.384957,179.927998 C248.415211,171.691187 247.989233,168.232682 247.551106,164.196622 C247.022619,160.680437 245.85023,157.190057 243.396869,155.634982 C243.311066,155.575026 243.222226,155.517346 243.126552,155.46422 L243.125792,155.46422 C243.030877,155.411853 242.935203,155.367075 242.83801,155.326092 C240.21608,154.074595 236.63589,154.936755 233.373853,156.355978 C229.720009,158.130388 226.562759,159.607292 216.940663,159.774259 C215.525292,159.81676 214.11068,159.927566 212.700624,160.105917 C197.095851,162.077652 182.05753,172.281644 173.044409,187.878688 C172.853061,188.202757 172.665509,188.53062 172.481754,188.863037 C172.468845,188.885806 172.456696,188.908574 172.444547,188.932101 C172.430879,188.955629 172.417971,188.977638 172.405062,189.001165 C172.221307,189.332823 172.042867,189.666758 171.870501,190.000693 C163.43826,205.91877 162.778411,224.074211 169.397398,238.335515 C169.995742,239.6242 170.653312,240.88101 171.369351,242.10215 C176.339855,250.338962 176.765074,253.796707 177.203201,257.832768 C177.732447,261.348193 178.904077,264.839332 181.358197,266.394407 C181.443241,266.454364 181.532081,266.512802 181.627756,266.565169 L181.628515,266.565928 C181.724189,266.618295 181.819863,266.662314 181.916297,266.702538 C184.537467,267.955553 188.118418,267.093394 191.380454,265.672652 C195.034299,263.899001 198.192308,262.422857 207.813644,262.25513 C209.229015,262.212629 210.643627,262.101065 212.053684,261.923472 C227.658456,259.951737 242.696018,249.747745 251.709898,234.150701 C251.901247,233.827392 252.088798,233.498769 252.272554,233.166352 C252.285462,233.143584 252.297611,233.120056 252.31052,233.096529 C252.322669,233.073761 252.336337,233.051751 252.348486,233.028983" id="Fill-45" fill="#FFFFFF"></path>
                            <path d="M228.378291,173.525553 C225.218004,174.107662 221.586939,174.428695 217.277801,174.506866 C216.406102,174.534188 215.475177,174.607806 214.550326,174.725442 C203.886444,176.072566 193.563497,183.054844 186.936157,193.400759 C186.053828,194.777482 184.258797,195.21767 182.847982,194.437476 C182.789514,194.404841 182.731806,194.371448 182.675616,194.33426 C181.240503,193.415938 180.822118,191.509473 181.740894,190.075829 C189.456339,178.03064 201.133152,170.205176 213.776579,168.6076 C214.894297,168.466437 216.020368,168.37764 217.125178,168.342729 C221.133625,168.26987 224.435905,167.982231 227.259814,167.461596 C228.935632,167.152706 230.54387,168.260004 230.852154,169.934992 C231.161197,171.609221 230.054109,173.216663 228.378291,173.525553 Z M252.348486,233.028983 C252.533,232.696566 252.71144,232.36339 252.884565,232.029455 C261.316048,216.110619 261.975896,197.955178 255.35615,183.693875 C254.758565,182.40443 254.100995,181.148379 253.384957,179.927998 C248.415211,171.691187 247.989233,168.232682 247.551106,164.196622 C247.022619,160.680437 245.85023,157.190057 243.396869,155.634982 C243.311066,155.575026 243.222226,155.517346 243.126552,155.46422 L243.125792,155.46422 C243.030877,155.411853 242.935203,155.367075 242.83801,155.326092 C240.21608,154.074595 236.63589,154.936755 233.373853,156.355978 C229.720009,158.130388 226.562759,159.607292 216.940663,159.774259 C215.525292,159.81676 214.11068,159.927566 212.700624,160.105917 C197.095851,162.077652 182.05753,172.281644 173.044409,187.878688 C172.853061,188.202757 172.665509,188.53062 172.481754,188.863037 C172.468845,188.885806 172.456696,188.908574 172.444547,188.932101 C172.430879,188.955629 172.417971,188.977638 172.405062,189.001165 C172.221307,189.332823 172.042867,189.666758 171.870501,190.000693 C163.43826,205.91877 162.778411,224.074211 169.397398,238.335515 C169.995742,239.6242 170.653312,240.88101 171.369351,242.10215 C176.339855,250.338962 176.765074,253.796707 177.203201,257.832768 C177.732447,261.348193 178.904077,264.839332 181.358197,266.394407 C181.443241,266.454364 181.532081,266.512802 181.627756,266.565169 L181.628515,266.565928 C181.724189,266.618295 181.819863,266.662314 181.916297,266.702538 C184.537467,267.955553 188.118418,267.093394 191.380454,265.672652 C195.034299,263.899001 198.192308,262.422857 207.813644,262.25513 C209.229015,262.212629 210.643627,262.101065 212.053684,261.923472 C227.658456,259.951737 242.696018,249.747745 251.709898,234.150701 C251.901247,233.827392 252.088798,233.498769 252.272554,233.166352 C252.285462,233.143584 252.297611,233.120056 252.31052,233.096529 C252.322669,233.073761 252.336337,233.051751 252.348486,233.028983 Z" id="Stroke-46" stroke="#000000" stroke-width="1.35168"></path>
                        </g>
                    </g>
                </g>
            </g>
        </g>
    </g>
</svg>