<?xml version="1.0" encoding="UTF-8"?>
<svg width="289px" height="93px" viewBox="0 0 289 93" version="1.1" xmlns="http://www.w3.org/2000/svg" xmlns:xlink="http://www.w3.org/1999/xlink">
    <!-- Generator: Sketch 58 (84663) - https://sketch.com -->
    <title>Ramirez Logo</title>
    <desc>Created with Sketch.</desc>
    <defs>
        <rect id="path-1" x="0.00896868004" y="0.0327406949" width="99.9743485" height="91.0509189"></rect>
    </defs>
    <g id="Ramirez-Logo" stroke="none" stroke-width="1" fill="none" fill-rule="evenodd">
        <g>
            <g id="Ramirez-Group-Title" transform="translate(114.000000, 26.000000)" fill="#FFFFFF">
                <path d="M99.868,29.83025 C100.1835,29.83025 100.479,29.86495 100.7535,29.93425 C101.0285,30.00355 101.2785,30.10515 101.503,30.239 L103.475,30.239 L103.475,30.7123 C103.475,30.87005 103.3745,30.97045 103.174,31.0135 L102.349,31.1282 C102.512,31.43895 102.593,31.78555 102.593,32.168 C102.593,32.52175 102.525,32.84325 102.3885,33.1325 C102.2525,33.42175 102.0635,33.6691 101.822,33.8747 C101.5805,34.08025 101.294,34.238 100.9615,34.34795 C100.6295,34.45795 100.265,34.5129 99.868,34.5129 C99.5285,34.5129 99.2085,34.47225 98.907,34.391 C98.754,34.4866 98.6385,34.5894 98.5595,34.69935 C98.4805,34.8093 98.441,34.91685 98.441,35.02205 C98.441,35.19415 98.5105,35.3244 98.649,35.41285 C98.7875,35.5013 98.9715,35.56465 99.201,35.6029 C99.4305,35.64115 99.691,35.66505 99.983,35.6746 C100.2745,35.68415 100.572,35.6997 100.8755,35.7212 C101.179,35.7427 101.477,35.77975 101.7685,35.83235 C102.06,35.88495 102.3205,35.971 102.55,36.0905 C102.7795,36.21005 102.9635,36.37495 103.102,36.5853 C103.241,36.79565 103.31,37.06815 103.31,37.4028 C103.31,37.71355 103.2325,38.0147 103.077,38.30635 C102.9215,38.59795 102.698,38.8573 102.4065,39.0844 C102.115,39.31145 101.759,39.49315 101.338,39.6294 C100.9175,39.76565 100.442,39.83375 99.911,39.83375 C99.3805,39.83375 98.9155,39.78115 98.5165,39.676 C98.117,39.5708 97.786,39.4298 97.523,39.2529 C97.26,39.076 97.063,38.87165 96.9315,38.6398 C96.8,38.40795 96.7345,38.1653 96.7345,37.91195 C96.7345,37.5534 96.848,37.2486 97.075,36.99765 C97.302,36.74665 97.614,36.54705 98.011,36.39885 C97.805,36.30325 97.6415,36.17535 97.5195,36.0152 C97.3975,35.85505 97.3365,35.64115 97.3365,35.3734 C97.3365,35.26825 97.356,35.1595 97.394,35.04715 C97.4325,34.9348 97.491,34.82365 97.57,34.7137 C97.6485,34.60375 97.7455,34.49855 97.86,34.39815 C97.975,34.2978 98.109,34.20935 98.262,34.13285 C97.903,33.93205 97.6225,33.66555 97.419,33.3333 C97.216,33.00105 97.1145,32.6126 97.1145,32.168 C97.1145,31.81425 97.1825,31.49275 97.319,31.2035 C97.455,30.9143 97.645,30.6681 97.889,30.4649 C98.1325,30.26175 98.423,30.10515 98.76,29.9952 C99.097,29.88525 99.4665,29.83025 99.868,29.83025 Z M145.577,29.83025 C145.8925,29.83025 146.1875,29.86495 146.4625,29.93425 C146.7375,30.00355 146.9875,30.10515 147.212,30.239 L149.184,30.239 L149.184,30.7123 C149.184,30.87005 149.0835,30.97045 148.883,31.0135 L148.058,31.1282 C148.2205,31.43895 148.302,31.78555 148.302,32.168 C148.302,32.52175 148.234,32.84325 148.0975,33.1325 C147.9615,33.42175 147.7725,33.6691 147.531,33.8747 C147.2895,34.08025 147.003,34.238 146.6705,34.34795 C146.3385,34.45795 145.974,34.5129 145.577,34.5129 C145.2375,34.5129 144.9175,34.47225 144.616,34.391 C144.463,34.4866 144.347,34.5894 144.2685,34.69935 C144.1895,34.8093 144.15,34.91685 144.15,35.02205 C144.15,35.19415 144.2195,35.3244 144.358,35.41285 C144.4965,35.5013 144.6805,35.56465 144.91,35.6029 C145.1395,35.64115 145.4,35.66505 145.6915,35.6746 C145.9835,35.68415 146.281,35.6997 146.5845,35.7212 C146.888,35.7427 147.1855,35.77975 147.4775,35.83235 C147.769,35.88495 148.0295,35.971 148.259,36.0905 C148.4885,36.21005 148.6725,36.37495 148.811,36.5853 C148.9495,36.79565 149.019,37.06815 149.019,37.4028 C149.019,37.71355 148.9415,38.0147 148.786,38.30635 C148.6305,38.59795 148.407,38.8573 148.1155,39.0844 C147.824,39.31145 147.4675,39.49315 147.047,39.6294 C146.6265,39.76565 146.1505,39.83375 145.62,39.83375 C145.0895,39.83375 144.6245,39.78115 144.2255,39.676 C143.826,39.5708 143.495,39.4298 143.232,39.2529 C142.969,39.076 142.772,38.87165 142.6405,38.6398 C142.509,38.40795 142.4435,38.1653 142.4435,37.91195 C142.4435,37.5534 142.557,37.2486 142.784,36.99765 C143.011,36.74665 143.323,36.54705 143.7195,36.39885 C143.514,36.30325 143.3505,36.17535 143.2285,36.0152 C143.1065,35.85505 143.0455,35.64115 143.0455,35.3734 C143.0455,35.26825 143.065,35.1595 143.103,35.04715 C143.1415,34.9348 143.2,34.82365 143.2785,34.7137 C143.3575,34.60375 143.4545,34.49855 143.569,34.39815 C143.684,34.2978 143.8175,34.20935 143.9705,34.13285 C143.612,33.93205 143.3315,33.66555 143.128,33.3333 C142.925,33.00105 142.8235,32.6126 142.8235,32.168 C142.8235,31.81425 142.8915,31.49275 143.0275,31.2035 C143.164,30.9143 143.354,30.6681 143.598,30.4649 C143.8415,30.26175 144.132,30.10515 144.469,29.9952 C144.806,29.88525 145.1755,29.83025 145.577,29.83025 Z M51.9555,35.524 C52.099,35.524 52.2265,35.5503 52.339,35.6029 C52.4515,35.6555 52.5445,35.7284 52.6185,35.8216 C52.693,35.91485 52.749,36.0224 52.787,36.1443 C52.8255,36.2662 52.8445,36.39885 52.8445,36.5423 C52.8445,36.7574 52.8135,36.9809 52.7515,37.21275 C52.689,37.44465 52.601,37.6741 52.486,37.9012 C52.3715,38.12825 52.229,38.34935 52.0595,38.5645 C51.8895,38.7796 51.697,38.978 51.482,39.1597 L51.267,38.9517 C51.205,38.89435 51.1735,38.82745 51.1735,38.75095 C51.1735,38.6888 51.207,38.62425 51.274,38.5573 C51.322,38.50475 51.383,38.4342 51.457,38.3458 C51.531,38.25735 51.6065,38.15575 51.683,38.041 C51.7595,37.9263 51.83,37.7996 51.8945,37.66095 C51.959,37.5223 52.0055,37.3741 52.0345,37.21635 L51.941,37.21635 C51.8165,37.21635 51.7045,37.19485 51.604,37.1518 C51.5035,37.1088 51.4165,37.04785 51.3425,36.96895 C51.268,36.8901 51.211,36.79685 51.17,36.6893 C51.1295,36.5817 51.109,36.4634 51.109,36.33435 C51.109,36.22435 51.1295,36.1204 51.17,36.0224 C51.211,35.9244 51.268,35.83835 51.3425,35.76425 C51.4165,35.69015 51.506,35.63155 51.611,35.58855 C51.7165,35.5455 51.831,35.524 51.9555,35.524 Z M98.771,36.6068 C98.4985,36.7359 98.2775,36.89365 98.1075,37.0801 C97.938,37.26655 97.853,37.48885 97.853,37.747 C97.853,37.90955 97.895,38.06135 97.9785,38.20235 C98.062,38.3434 98.19,38.4653 98.362,38.5681 C98.5345,38.67085 98.7505,38.75215 99.011,38.8119 C99.2715,38.87165 99.579,38.90155 99.9325,38.90155 C100.277,38.90155 100.585,38.87045 100.8575,38.8083 C101.13,38.74615 101.361,38.6577 101.5495,38.543 C101.7385,38.42825 101.883,38.292 101.9835,38.13425 C102.084,37.97645 102.134,37.802 102.134,37.61075 C102.134,37.4291 102.084,37.2833 101.9835,37.17335 C101.883,37.06335 101.747,36.9785 101.575,36.91875 C101.4025,36.859 101.2045,36.8148 100.9795,36.7861 C100.755,36.7574 100.518,36.7371 100.2695,36.72515 C100.021,36.7132 99.7675,36.70005 99.5095,36.6857 C99.2515,36.67135 99.005,36.64505 98.771,36.6068 Z M144.48,36.6068 C144.2075,36.7359 143.9865,36.89365 143.8165,37.0801 C143.647,37.26655 143.562,37.48885 143.562,37.747 C143.562,37.90955 143.604,38.06135 143.6875,38.20235 C143.771,38.3434 143.899,38.4653 144.071,38.5681 C144.243,38.67085 144.4595,38.75215 144.72,38.8119 C144.9805,38.87165 145.288,38.90155 145.6415,38.90155 C145.986,38.90155 146.294,38.87045 146.5665,38.8083 C146.839,38.74615 147.07,38.6577 147.2585,38.543 C147.4475,38.42825 147.592,38.292 147.6925,38.13425 C147.793,37.97645 147.843,37.802 147.843,37.61075 C147.843,37.4291 147.793,37.2833 147.6925,37.17335 C147.592,37.06335 147.456,36.9785 147.2835,36.91875 C147.1115,36.859 146.913,36.8148 146.6885,36.7861 C146.464,36.7574 146.227,36.7371 145.9785,36.72515 C145.73,36.7132 145.4765,36.70005 145.2185,36.6857 C144.9605,36.67135 144.714,36.64505 144.48,36.6068 Z M160.045,27.59295 L160.045,30.0956 L162.1245,30.0956 L162.1245,31.02065 L160.045,31.02065 L160.045,35.3806 C160.045,35.68655 160.119,35.91365 160.2675,36.06185 C160.4155,36.21005 160.607,36.28415 160.841,36.28415 C160.975,36.28415 161.091,36.2662 161.189,36.23035 C161.287,36.1945 161.3715,36.15505 161.4435,36.11205 C161.515,36.069 161.576,36.02955 161.6265,35.9937 C161.6765,35.95785 161.7205,35.9399 161.759,35.9399 C161.826,35.9399 161.8855,35.98055 161.938,36.06185 L162.311,36.67135 C162.091,36.87695 161.826,37.03825 161.515,37.1554 C161.2045,37.27255 160.884,37.3311 160.5545,37.3311 C159.9805,37.3311 159.5395,37.17095 159.231,36.85065 C158.923,36.53035 158.7685,36.069 158.7685,35.46665 L158.7685,31.02065 L157.894,31.02065 C157.8175,31.02065 157.753,30.99795 157.7,30.95255 C157.6475,30.9071 157.6215,30.8366 157.6215,30.741 L157.6215,30.23185 L158.8115,30.08125 L159.1055,27.83675 C159.1155,27.76505 159.1465,27.7065 159.199,27.66105 C159.2515,27.61565 159.3185,27.59295 159.3995,27.59295 L160.045,27.59295 Z M126.7105,27.59295 L126.7105,30.0956 L128.79,30.0956 L128.79,31.02065 L126.7105,31.02065 L126.7105,35.3806 C126.7105,35.68655 126.785,35.91365 126.933,36.06185 C127.081,36.21005 127.2725,36.28415 127.5065,36.28415 C127.6405,36.28415 127.7565,36.2662 127.8545,36.23035 C127.9525,36.1945 128.0375,36.15505 128.109,36.11205 C128.1805,36.069 128.2415,36.02955 128.292,35.9937 C128.342,35.95785 128.3865,35.9399 128.4245,35.9399 C128.4915,35.9399 128.551,35.98055 128.604,36.06185 L128.9765,36.67135 C128.757,36.87695 128.4915,37.03825 128.1805,37.1554 C127.87,37.27255 127.5495,37.3311 127.22,37.3311 C126.646,37.3311 126.205,37.17095 125.897,36.85065 C125.5885,36.53035 125.434,36.069 125.434,35.46665 L125.434,31.02065 L124.5595,31.02065 C124.483,31.02065 124.4185,30.99795 124.366,30.95255 C124.313,30.9071 124.287,30.8366 124.287,30.741 L124.287,30.23185 L125.4775,30.08125 L125.7715,27.83675 C125.781,27.76505 125.812,27.7065 125.8645,27.66105 C125.917,27.61565 125.984,27.59295 126.0655,27.59295 L126.7105,27.59295 Z M114.336,27.59295 L114.336,30.0956 L116.416,30.0956 L116.416,31.02065 L114.336,31.02065 L114.336,35.3806 C114.336,35.68655 114.4105,35.91365 114.5585,36.06185 C114.7065,36.21005 114.898,36.28415 115.132,36.28415 C115.266,36.28415 115.382,36.2662 115.48,36.23035 C115.578,36.1945 115.663,36.15505 115.7345,36.11205 C115.806,36.069 115.867,36.02955 115.9175,35.9937 C115.9675,35.95785 116.012,35.9399 116.05,35.9399 C116.117,35.9399 116.1765,35.98055 116.2295,36.06185 L116.602,36.67135 C116.3825,36.87695 116.117,37.03825 115.806,37.1554 C115.4955,37.27255 115.175,37.3311 114.8455,37.3311 C114.2715,37.3311 113.8305,37.17095 113.5225,36.85065 C113.214,36.53035 113.06,36.069 113.06,35.46665 L113.06,31.02065 L112.185,31.02065 C112.1085,31.02065 112.044,30.99795 111.9915,30.95255 C111.9385,30.9071 111.9125,30.8366 111.9125,30.741 L111.9125,30.23185 L113.103,30.08125 L113.397,27.83675 C113.4065,27.76505 113.4375,27.7065 113.49,27.66105 C113.5425,27.61565 113.6095,27.59295 113.691,27.59295 L114.336,27.59295 Z M39.86805,29.8231 C40.2744,29.8231 40.6353,29.89005 40.95085,30.0239 C41.26635,30.15775 41.5317,30.3442 41.7468,30.5832 C41.96195,30.82225 42.1245,31.1115 42.23445,31.4509 C42.3444,31.79035 42.39935,32.1632 42.39935,32.5696 L42.39935,37.21635 L41.83285,37.21635 C41.70855,37.21635 41.6082,37.19725 41.5317,37.159 C41.4552,37.12075 41.405,37.03945 41.3811,36.91515 L41.2377,36.2411 C41.04645,36.4132 40.86,36.5674 40.67835,36.70365 C40.4967,36.8399 40.30545,36.9546 40.10465,37.04785 C39.9039,37.14105 39.68995,37.21155 39.46285,37.2594 C39.2358,37.3072 38.9836,37.3311 38.70635,37.3311 C38.4243,37.3311 38.16015,37.29165 37.91395,37.21275 C37.66775,37.1339 37.4538,37.01555 37.27215,36.8578 C37.0905,36.70005 36.94585,36.50045 36.8383,36.25905 C36.73075,36.0176 36.67695,35.73195 36.67695,35.4021 C36.67695,35.11525 36.75585,34.8392 36.9136,34.57385 C37.07135,34.30855 37.32595,34.0731 37.6773,33.8675 C38.0287,33.66195 38.4888,33.49345 39.0577,33.36195 C39.6266,33.2305 40.3222,33.1552 41.14445,33.1361 L41.14445,32.5696 C41.14445,32.00545 41.02375,31.5788 40.7823,31.28955 C40.5409,31.00035 40.18355,30.8557 39.71025,30.8557 C39.39955,30.8557 39.1378,30.89515 38.92505,30.97405 C38.7123,31.0529 38.52825,31.14135 38.3729,31.23935 C38.2175,31.33735 38.08365,31.4258 37.9713,31.5047 C37.85895,31.58355 37.7478,31.623 37.63785,31.623 C37.5518,31.623 37.4765,31.6003 37.412,31.5549 C37.34745,31.50945 37.29605,31.4533 37.2578,31.38635 L37.02835,30.97765 C37.4299,30.5904 37.86255,30.30115 38.32625,30.10995 C38.79,29.9187 39.3039,29.8231 39.86805,29.8231 Z M88.095,29.83745 C88.53,29.83745 88.9315,29.91035 89.2995,30.05615 C89.6675,30.20195 89.9855,30.4123 90.2535,30.6872 C90.521,30.9621 90.73,31.3015 90.8805,31.7055 C91.0315,32.10945 91.1065,32.5696 91.1065,33.0859 C91.1065,33.28665 91.085,33.42055 91.042,33.48745 C90.999,33.5544 90.918,33.58785 90.7985,33.58785 L85.965,33.58785 C85.9745,34.0468 86.037,34.446 86.1515,34.7854 C86.266,35.12485 86.424,35.4081 86.625,35.63515 C86.8255,35.86225 87.0645,36.03195 87.342,36.1443 C87.619,36.25665 87.93,36.3128 88.274,36.3128 C88.5945,36.3128 88.8705,36.27575 89.1025,36.20165 C89.334,36.12755 89.534,36.0475 89.701,35.96145 C89.8685,35.8754 90.0085,35.7953 90.1205,35.7212 C90.233,35.6471 90.33,35.61005 90.411,35.61005 C90.516,35.61005 90.5975,35.6507 90.655,35.73195 L91.0135,36.1981 C90.8555,36.3893 90.667,36.55545 90.447,36.69645 C90.227,36.8375 89.9915,36.9534 89.7405,37.04425 C89.4895,37.1351 89.23,37.2032 88.9625,37.2486 C88.695,37.29405 88.4295,37.31675 88.1665,37.31675 C87.6645,37.31675 87.202,37.2319 86.779,37.0622 C86.356,36.89245 85.99,36.64385 85.682,36.3164 C85.3735,35.98895 85.133,35.58375 84.961,35.1009 C84.789,34.6181 84.703,34.06355 84.703,33.43725 C84.703,32.9305 84.7805,32.45725 84.936,32.0174 C85.0915,31.5776 85.315,31.19635 85.6065,30.87365 C85.898,30.55095 86.2545,30.2976 86.675,30.11355 C87.0955,29.92945 87.569,29.83745 88.095,29.83745 Z M28.8348,29.83745 C29.26985,29.83745 29.6714,29.91035 30.0395,30.05615 C30.40765,30.20195 30.72555,30.4123 30.99325,30.6872 C31.261,30.9621 31.47015,31.3015 31.6207,31.7055 C31.7713,32.10945 31.8466,32.5696 31.8466,33.0859 C31.8466,33.28665 31.8251,33.42055 31.78205,33.48745 C31.73905,33.5544 31.65775,33.58785 31.53825,33.58785 L26.70505,33.58785 C26.7146,34.0468 26.77675,34.446 26.8915,34.7854 C27.0062,35.12485 27.16395,35.4081 27.36475,35.63515 C27.56555,35.86225 27.8046,36.03195 28.08185,36.1443 C28.35915,36.25665 28.66985,36.3128 29.0141,36.3128 C29.3344,36.3128 29.61045,36.27575 29.8423,36.20165 C30.0742,36.12755 30.27375,36.0475 30.4411,35.96145 C30.6084,35.8754 30.74825,35.7953 30.8606,35.7212 C30.97295,35.6471 31.06975,35.61005 31.151,35.61005 C31.2562,35.61005 31.33745,35.6507 31.39485,35.73195 L31.7534,36.1981 C31.5956,36.3893 31.4068,36.55545 31.1869,36.69645 C30.96695,36.8375 30.7315,36.9534 30.48055,37.04425 C30.22955,37.1351 29.9702,37.2032 29.7025,37.2486 C29.43475,37.29405 29.16945,37.31675 28.9065,37.31675 C28.40455,37.31675 27.942,37.2319 27.51895,37.0622 C27.09585,36.89245 26.73015,36.64385 26.4218,36.3164 C26.11345,35.98895 25.8732,35.58375 25.7011,35.1009 C25.529,34.6181 25.44295,34.06355 25.44295,33.43725 C25.44295,32.9305 25.52065,32.45725 25.676,32.0174 C25.83135,31.5776 26.05485,31.19635 26.3465,30.87365 C26.6381,30.55095 26.99425,30.2976 27.41495,30.11355 C27.83565,29.92945 28.30895,29.83745 28.8348,29.83745 Z M107.6505,29.83745 C108.1815,29.83745 108.6605,29.9259 109.0885,30.10275 C109.5165,30.27965 109.8795,30.53065 110.1785,30.8557 C110.4775,31.1808 110.7065,31.574 110.867,32.03535 C111.027,32.49665 111.107,33.0118 111.107,33.5807 C111.107,34.15435 111.027,34.67065 110.867,35.1296 C110.7065,35.58855 110.4775,35.98055 110.1785,36.30565 C109.8795,36.63075 109.5165,36.8805 109.0885,37.055 C108.6605,37.2295 108.1815,37.31675 107.6505,37.31675 C107.12,37.31675 106.641,37.2295 106.213,37.055 C105.785,36.8805 105.4205,36.63075 105.1195,36.30565 C104.818,35.98055 104.5865,35.58855 104.424,35.1296 C104.261,34.67065 104.18,34.15435 104.18,33.5807 C104.18,33.0118 104.261,32.49665 104.424,32.03535 C104.5865,31.574 104.818,31.1808 105.1195,30.8557 C105.4205,30.53065 105.785,30.27965 106.213,30.10275 C106.641,29.9259 107.12,29.83745 107.6505,29.83745 Z M71.165,29.83745 C71.6,29.83745 72.0015,29.91035 72.3695,30.05615 C72.7375,30.20195 73.0555,30.4123 73.3235,30.6872 C73.591,30.9621 73.8,31.3015 73.951,31.7055 C74.1015,32.10945 74.1765,32.5696 74.1765,33.0859 C74.1765,33.28665 74.155,33.42055 74.112,33.48745 C74.069,33.5544 73.988,33.58785 73.8685,33.58785 L69.035,33.58785 C69.0445,34.0468 69.107,34.446 69.2215,34.7854 C69.3365,35.12485 69.494,35.4081 69.695,35.63515 C69.8955,35.86225 70.1345,36.03195 70.412,36.1443 C70.689,36.25665 71,36.3128 71.344,36.3128 C71.6645,36.3128 71.9405,36.27575 72.1725,36.20165 C72.4045,36.12755 72.604,36.0475 72.771,35.96145 C72.9385,35.8754 73.0785,35.7953 73.1905,35.7212 C73.303,35.6471 73.4,35.61005 73.481,35.61005 C73.5865,35.61005 73.6675,35.6507 73.725,35.73195 L74.0835,36.1981 C73.9255,36.3893 73.737,36.55545 73.517,36.69645 C73.297,36.8375 73.0615,36.9534 72.8105,37.04425 C72.5595,37.1351 72.3005,37.2032 72.0325,37.2486 C71.765,37.29405 71.4995,37.31675 71.2365,37.31675 C70.7345,37.31675 70.272,37.2319 69.849,37.0622 C69.426,36.89245 69.06,36.64385 68.752,36.3164 C68.4435,35.98895 68.2035,35.58375 68.031,35.1009 C67.859,34.6181 67.773,34.06355 67.773,33.43725 C67.773,32.9305 67.8505,32.45725 68.006,32.0174 C68.1615,31.5776 68.385,31.19635 68.6765,30.87365 C68.968,30.55095 69.3245,30.2976 69.745,30.11355 C70.166,29.92945 70.639,29.83745 71.165,29.83745 Z M137.1825,29.8231 C137.3835,29.8231 137.565,29.8458 137.7275,29.89125 C137.89,29.93665 138.041,30 138.1795,30.08125 L138.0145,31.035 C137.981,31.1545 137.907,31.21425 137.792,31.21425 C137.7255,31.21425 137.6225,31.19155 137.484,31.14615 C137.345,31.10075 137.1515,31.078 136.903,31.078 C136.4585,31.078 136.0865,31.2071 135.788,31.46525 C135.489,31.7234 135.2395,32.0987 135.0385,32.5911 L135.0385,37.21635 L133.762,37.21635 L133.762,29.9522 L134.4935,29.9522 C134.632,29.9522 134.728,29.97845 134.7805,30.03105 C134.833,30.08365 134.869,30.1745 134.888,30.30355 L134.974,31.43655 C135.2225,30.9298 135.53,30.5342 135.8955,30.2498 C136.261,29.96535 136.6905,29.8231 137.1825,29.8231 Z M62.0985,29.93785 C62.1945,29.93785 62.273,29.96175 62.3355,30.00955 C62.3975,30.05735 62.4405,30.1171 62.4645,30.1888 L63.963,34.89295 C64.0155,35.0603 64.0625,35.2252 64.103,35.38775 C64.1435,35.5503 64.183,35.71045 64.2215,35.8682 C64.245,35.71045 64.2765,35.5455 64.3145,35.3734 C64.353,35.2013 64.3935,35.04115 64.4365,34.89295 L65.8565,30.2175 C65.88,30.141 65.9255,30.07765 65.9925,30.0275 C66.0595,29.9773 66.1385,29.9522 66.229,29.9522 L67.19,29.9522 L64.838,37.21635 L63.827,37.21635 C63.7025,37.21635 63.6165,37.1351 63.5685,36.97255 L61.9625,32.0461 C61.924,31.93615 61.893,31.825 61.869,31.71265 C61.8455708,31.6006384 61.8216446,31.4898196 61.7977169,31.3801936 C61.7735,31.48915 61.7495,31.6015 61.726,31.71625 C61.702,31.83095 61.671,31.9433 61.6325,32.05325 L60.005,36.97255 C59.952,37.1351 59.854,37.21635 59.711,37.21635 L58.75,37.21635 L56.398,29.9522 L57.4015,29.9522 C57.507,29.9522 57.593,29.97845 57.66,30.03105 C57.727,30.08365 57.772,30.1458 57.796,30.2175 L59.1875,34.89295 C59.2255,35.06505 59.2615,35.2312 59.295,35.39135 C59.3285,35.5515 59.357,35.71285 59.381,35.8754 C59.419,35.71285 59.462,35.5515 59.51,35.39135 C59.558,35.2312 59.608,35.06505 59.6605,34.89295 L61.195,30.1888 C61.219,30.1171 61.261,30.05735 61.3205,30.00955 C61.3805,29.96175 61.4555,29.93785 61.5465,29.93785 L62.0985,29.93785 Z M140.921,29.9522 L140.921,37.21635 L139.6445,37.21635 L139.6445,29.9522 L140.921,29.9522 Z M122.8075,29.9522 L122.8075,37.21635 L121.531,37.21635 L121.531,29.9522 L122.8075,29.9522 Z M151.696,26.65355 L151.696,30.92745 C152.0065,30.59755 152.351,30.33345 152.7285,30.13505 C153.1065,29.93665 153.5415,29.83745 154.0335,29.83745 C154.4305,29.83745 154.7805,29.9032 155.0845,30.03465 C155.388,30.1661 155.641,30.35255 155.8445,30.594 C156.0475,30.8354 156.2015,31.12585 156.307,31.46525 C156.412,31.8047 156.4645,32.17995 156.4645,32.5911 L156.4645,37.21635 L155.188,37.21635 L155.188,32.5911 C155.188,32.0413 155.0625,31.61465 154.812,31.3111 C154.561,31.0075 154.177,30.8557 153.661,30.8557 C153.283,30.8557 152.9305,30.94655 152.603,31.1282 C152.2755,31.3099 151.9735,31.5561 151.696,31.8668 L151.696,37.21635 L150.4195,37.21635 L150.4195,26.65355 L151.696,26.65355 Z M20.0124,26.9404 C20.66255,26.9404 21.2243,27.0061 21.69755,27.1376 C22.17085,27.26905 22.56165,27.4591 22.87,27.70765 C23.17835,27.95625 23.40665,28.25625 23.55485,28.60765 C23.70305,28.959 23.77715,29.3522 23.77715,29.78725 C23.77715,30.1506 23.71975,30.49 23.60505,30.8055 C23.4903,31.12105 23.32415,31.4043 23.10665,31.6553 C22.88915,31.90625 22.6238,32.1202 22.31065,32.2971 C21.99755,32.47395 21.6426,32.6078 21.2458,32.69865 C21.4179,32.79905 21.57085,32.94485 21.70475,33.1361 L24.7022,37.21635 L23.4688,37.21635 C23.2154,37.21635 23.02895,37.11835 22.90945,36.92235 L20.24185,33.2508 C20.1606,33.1361 20.07215,33.0536 19.97655,33.0034 C19.8809,32.9532 19.7375,32.92815 19.54625,32.92815 L18.49215,32.92815 L18.49215,37.21635 L17.10815,37.21635 L17.10815,26.9404 L20.0124,26.9404 Z M34.8534,26.65355 L34.8534,37.21635 L33.57695,37.21635 L33.57695,26.65355 L34.8534,26.65355 Z M78.2325,29.9522 C78.333,29.9522 78.4165,29.97845 78.4835,30.03105 C78.5505,30.08365 78.5985,30.1458 78.627,30.2175 L80.47,34.89295 C80.537,35.06505 80.5895,35.23715 80.6275,35.40925 C80.666,35.5814 80.702,35.7511 80.7355,35.9184 C80.7735,35.7511 80.814,35.5814 80.857,35.40925 C80.9,35.23715 80.955,35.06505 81.022,34.89295 L82.8865,30.2175 C82.915,30.141 82.962,30.07765 83.0265,30.0275 C83.091,29.9773 83.171,29.9522 83.2665,29.9522 L84.2635,29.9522 L81.302,37.21635 L80.1475,37.21635 L77.1855,29.9522 L78.2325,29.9522 Z M44.7751,29.9522 C44.8803,29.9522 44.95675,29.9689 45.0046,30.0024 C45.0524,30.03585 45.0954,30.08365 45.13365,30.1458 L46.91205,32.87075 C46.9551,32.7369 47.01725,32.60305 47.0985,32.4692 L48.66175,30.1745 C48.70955,30.10755 48.7574,30.05375 48.8052,30.01315 C48.853,29.9725 48.91275,29.9522 48.98445,29.9522 L50.1605,29.9522 L47.7152,33.4229 L50.261,37.21635 L49.03465,37.21635 C48.9295,37.21635 48.847,37.18885 48.78725,37.1339 C48.7275,37.0789 48.6785,37.01795 48.64025,36.95105 L46.81165,34.10415 C46.7782,34.2428 46.728,34.3671 46.66105,34.47705 L44.9687,36.95105 C44.9209,37.01795 44.86955,37.0789 44.81455,37.1339 C44.75955,37.18885 44.6843,37.21635 44.58865,37.21635 L43.4485,37.21635 L45.99415,33.49465 L43.5489,29.9522 L44.7751,29.9522 Z M41.14445,33.9464 C40.55645,33.9655 40.05685,34.01215 39.64575,34.08625 C39.2346,34.16035 38.89995,34.25715 38.6418,34.37665 C38.38365,34.49615 38.196,34.6372 38.0789,34.79975 C37.96175,34.9623 37.9032,35.14395 37.9032,35.34475 C37.9032,35.53595 37.93425,35.7009 37.9964,35.83955 C38.05855,35.97815 38.1422,36.0917 38.2474,36.18015 C38.35255,36.2686 38.47685,36.33315 38.6203,36.37375 C38.7637,36.4144 38.91905,36.4347 39.0864,36.4347 C39.3111,36.4347 39.51665,36.412 39.7031,36.3666 C39.88955,36.3212 40.06525,36.25665 40.23015,36.173 C40.3951,36.0893 40.55285,35.98775 40.70345,35.8682 C40.85405,35.7487 41.00105,35.61245 41.14445,35.45945 L41.14445,33.9464 Z M107.6505,30.8414 C107.2875,30.8414 106.972,30.90355 106.704,31.0278 C106.4365,31.1521 106.213,31.3314 106.0335,31.56565 C105.8545,31.7999 105.7205,32.08795 105.632,32.42975 C105.5435,32.77155 105.4995,33.1576 105.4995,33.58785 C105.4995,34.0181 105.5435,34.40295 105.632,34.7424 C105.7205,35.0818 105.8545,35.36745 106.0335,35.5993 C106.213,35.83115 106.4365,36.00925 106.704,36.13355 C106.972,36.25785 107.2875,36.32 107.6505,36.32 C108.368,36.32 108.903,36.07975 109.257,35.5993 C109.611,35.11885 109.7875,34.44835 109.7875,33.58785 C109.7875,32.72255 109.611,32.0485 109.257,31.56565 C108.903,31.0828 108.368,30.8414 107.6505,30.8414 Z M99.868,30.74815 C99.3565,30.74815 98.9655,30.8796 98.6955,31.14255 C98.4255,31.4055 98.2905,31.75925 98.2905,32.20385 C98.2905,32.419 98.325,32.6162 98.3945,32.79545 C98.464,32.97475 98.5655,33.1289 98.699,33.258 C98.833,33.38705 98.998,33.48745 99.194,33.55915 C99.39,33.6309 99.6145,33.66675 99.868,33.66675 C100.126,33.66675 100.3545,33.6309 100.553,33.55915 C100.7515,33.48745 100.9175,33.38705 101.0515,33.258 C101.185,33.1289 101.2855,32.97475 101.3525,32.79545 C101.4195,32.6162 101.453,32.419 101.453,32.20385 C101.453,31.75925 101.318,31.4055 101.0475,31.14255 C100.7775,30.8796 100.3845,30.74815 99.868,30.74815 Z M145.577,30.74815 C145.0655,30.74815 144.6745,30.8796 144.4045,31.14255 C144.1345,31.4055 143.9995,31.75925 143.9995,32.20385 C143.9995,32.419 144.034,32.6162 144.1035,32.79545 C144.1725,32.97475 144.2745,33.1289 144.408,33.258 C144.542,33.38705 144.707,33.48745 144.903,33.55915 C145.099,33.6309 145.3235,33.66675 145.577,33.66675 C145.835,33.66675 146.0635,33.6309 146.262,33.55915 C146.46,33.48745 146.6265,33.38705 146.76,33.258 C146.894,33.1289 146.9945,32.97475 147.0615,32.79545 C147.1285,32.6162 147.162,32.419 147.162,32.20385 C147.162,31.75925 147.0265,31.4055 146.7565,31.14255 C146.4865,30.8796 146.0935,30.74815 145.577,30.74815 Z M28.8635,30.77685 C28.2468,30.77685 27.76155,30.9549 27.4078,31.3111 C27.054,31.66725 26.8341,32.16085 26.74805,32.7919 L30.69925,32.7919 C30.69925,32.4955 30.6586,32.2242 30.57735,31.97795 C30.49605,31.73175 30.37655,31.51905 30.2188,31.33975 C30.06105,31.1605 29.8686,31.02185 29.64155,30.92385 C29.41445,30.82585 29.1551,30.77685 28.8635,30.77685 Z M88.1235,30.77685 C87.507,30.77685 87.0215,30.9549 86.668,31.3111 C86.314,31.66725 86.094,32.16085 86.008,32.7919 L89.9595,32.7919 C89.9595,32.4955 89.9185,32.2242 89.8375,31.97795 C89.756,31.73175 89.6365,31.51905 89.479,31.33975 C89.321,31.1605 89.1285,31.02185 88.9015,30.92385 C88.6745,30.82585 88.415,30.77685 88.1235,30.77685 Z M71.1935,30.77685 C70.577,30.77685 70.0915,30.9549 69.738,31.3111 C69.384,31.66725 69.164,32.16085 69.078,32.7919 L73.0295,32.7919 C73.0295,32.4955 72.9885,32.2242 72.9075,31.97795 C72.826,31.73175 72.7065,31.51905 72.549,31.33975 C72.391,31.1605 72.1985,31.02185 71.9715,30.92385 C71.7445,30.82585 71.485,30.77685 71.1935,30.77685 Z M20.0124,28.03755 L18.49215,28.03755 L18.49215,31.917 L19.94785,31.917 C20.3542,31.917 20.71155,31.868 21.0199,31.77 C21.32825,31.672 21.5864,31.5334 21.79435,31.3541 C22.0023,31.17485 22.1589,30.9609 22.26405,30.7123 C22.36925,30.4637 22.4218,30.1888 22.4218,29.88765 C22.4218,29.2757 22.21985,28.8144 21.8159,28.50365 C21.4119,28.1929 20.81075,28.03755 20.0124,28.03755 Z M76.0005,26.40255 C76.139,26.63205 76.2395,26.8615 76.3015,27.09095 C76.3635,27.32045 76.3945,27.5499 76.3945,27.7794 C76.3945,28.2144 76.2885,28.62915 76.0755,29.02355 C75.863,29.41795 75.5675,29.7801 75.19,30.10995 L74.7955,29.86615 C74.7575,29.84225 74.732,29.81595 74.7205,29.78725 C74.7085,29.75855 74.7025,29.7299 74.7025,29.7012 C74.7025,29.63425 74.7265,29.5769 74.774,29.5291 C74.8505,29.43825 74.9245,29.33905 74.9965,29.2315 C75.068,29.12395 75.1325,29.0116 75.19,28.89445 C75.2475,28.77735 75.293,28.65425 75.326,28.52515 C75.3595,28.3961 75.3765,28.25985 75.3765,28.1164 C75.3765,27.96345 75.3535,27.8057 75.3085,27.64315 C75.263,27.4806 75.185,27.3085 75.075,27.12685 C75.042,27.07425 75.025,27.02165 75.025,26.96905 C75.025,26.85435 75.0895,26.77065 75.2185,26.7181 L76.0005,26.40255 Z M122.1765,26.75395 C122.301,26.75395 122.418,26.77785 122.528,26.82565 C122.638,26.87345 122.7345,26.9392 122.8185,27.02285 C122.902,27.1065 122.969,27.2045 123.019,27.31685 C123.0695,27.4292 123.0945,27.5475 123.0945,27.6718 C123.0945,27.7961 123.0695,27.91205 123.019,28.0196 C122.969,28.12715 122.902,28.2228 122.8185,28.30645 C122.7345,28.3901 122.638,28.45585 122.528,28.50365 C122.418,28.55145 122.301,28.57535 122.1765,28.57535 C122.052,28.57535 121.9365,28.55145 121.8285,28.50365 C121.721,28.45585 121.6255,28.3901 121.542,28.30645 C121.458,28.2228 121.3925,28.12715 121.3445,28.0196 C121.297,27.91205 121.273,27.7961 121.273,27.6718 C121.273,27.5475 121.297,27.4292 121.3445,27.31685 C121.3925,27.2045 121.458,27.1065 121.542,27.02285 C121.6255,26.9392 121.721,26.87345 121.8285,26.82565 C121.9365,26.77785 122.052,26.75395 122.1765,26.75395 Z M140.29,26.75395 C140.414,26.75395 140.5315,26.77785 140.641,26.82565 C140.751,26.87345 140.848,26.9392 140.9315,27.02285 C141.0155,27.1065 141.0825,27.2045 141.1325,27.31685 C141.1825,27.4292 141.2075,27.5475 141.2075,27.6718 C141.2075,27.7961 141.1825,27.91205 141.1325,28.0196 C141.0825,28.12715 141.0155,28.2228 140.9315,28.30645 C140.848,28.3901 140.751,28.45585 140.641,28.50365 C140.5315,28.55145 140.414,28.57535 140.29,28.57535 C140.1655,28.57535 140.0495,28.55145 139.942,28.50365 C139.8345,28.45585 139.739,28.3901 139.655,28.30645 C139.5715,28.2228 139.506,28.12715 139.458,28.0196 C139.41,27.91205 139.3865,27.7961 139.3865,27.6718 C139.3865,27.5475 139.41,27.4292 139.458,27.31685 C139.506,27.2045 139.5715,27.1065 139.655,27.02285 C139.739,26.9392 139.8345,26.87345 139.942,26.82565 C140.0495,26.77785 140.1655,26.75395 140.29,26.75395 Z M137.5205,-3.55271368e-15 C138.6485,-3.55271368e-15 139.707,0.23245 140.6965,0.69745 C141.6855,1.16245 142.5565,1.82035 143.308,2.67115 C144.06,3.52195 144.6535,4.55085 145.089,5.75785 C145.5245,6.9648 145.742,8.3103 145.742,9.79425 C145.742,11.29805 145.5245,12.6534 145.089,13.8604 C144.6535,15.06735 144.06,16.1012 143.308,16.9619 C142.5565,17.8226 141.6855,18.48545 140.6965,18.95045 C139.707,19.4154 138.6485,19.6479 137.5205,19.6479 C136.393,19.6479 135.3295,19.4154 134.33,18.95045 C133.331,18.48545 132.4605,17.8226 131.7185,16.9619 C130.9765,16.1012 130.3875,15.06735 129.9525,13.8604 C129.517,12.6534 129.2995,11.29805 129.2995,9.79425 C129.2995,8.3103 129.517,6.9648 129.9525,5.75785 C130.3875,4.55085 130.9765,3.52195 131.7185,2.67115 C132.4605,1.82035 133.331,1.16245 134.33,0.69745 C135.3295,0.23245 136.393,-3.55271368e-15 137.5205,-3.55271368e-15 Z M108.1825,-3.55271368e-15 C109.251,-3.55271368e-15 110.1855,0.13355 110.987,0.40065 C111.7885,0.66775 112.4265,0.9992 112.9015,1.39495 L112.6045,5.0752 C112.1495,4.67945 111.5905,4.33815 110.9275,4.05125 C110.265,3.76435 109.518,3.6209 108.687,3.6209 C107.9945,3.6209 107.361,3.77425 106.7875,4.08095 C106.2135,4.3876 105.709,4.81305 105.2735,5.35715 C104.8385,5.9013 104.502,6.5592 104.2645,7.33085 C104.027,8.10255 103.9085,8.96325 103.9085,9.913 C103.9085,10.82315 104.022,11.65915 104.25,12.4209 C104.4775,13.1827 104.789,13.83565 105.1845,14.37975 C105.5805,14.9239 106.0505,15.3493 106.5945,15.656 C107.1385,15.9627 107.727,16.11605 108.3605,16.11605 C109.1125,16.11605 109.716,15.96765 110.171,15.67085 L110.171,12.3467 L107.648,12.3467 L107.648,9.1413 L113.851,9.1413 L113.851,17.80775 C113.238,18.3816 112.466,18.8317 111.536,19.1582 C110.606,19.48465 109.488,19.6479 108.1825,19.6479 C107.094,19.6479 106.0455,19.43025 105.0365,18.99495 C104.027,18.55965 103.137,17.9265 102.365,17.09545 C101.5935,16.26445 100.98,15.2405 100.525,14.0236 C100.07,12.80675 99.8425,11.40685 99.8425,9.82395 C99.8425,8.24105 100.075,6.8362 100.54,5.60945 C101.005,4.3827 101.628,3.3538 102.4095,2.52275 C103.191,1.6917 104.0815,1.0635 105.081,0.6381 C106.08,0.2127 107.114,-3.55271368e-15 108.1825,-3.55271368e-15 Z M151.752,0.35615 L151.752,13.2668 C151.752,14.1176 151.9995,14.79035 152.494,15.285 C152.9885,15.77965 153.6515,16.027 154.4825,16.027 C155.3135,16.027 155.9815,15.77965 156.486,15.285 C156.9905,14.79035 157.243,14.1275 157.243,13.29645 L157.243,0.35615 L161.22,0.35615 L161.22,13.59325 C161.22,14.543 161.0465,15.3889 160.7005,16.13085 C160.354,16.87285 159.8745,17.5011 159.261,18.01555 C158.6475,18.53 157.9305,18.9257 157.109,19.2027 C156.288,19.4797 155.4025,19.61825 154.453,19.61825 C153.503,19.61825 152.6175,19.4797 151.7965,19.2027 C150.9755,18.9257 150.258,18.53 149.645,18.01555 C149.0315,17.5011 148.5515,16.87285 148.2055,16.13085 C147.859,15.3889 147.686,14.543 147.686,13.59325 L147.686,0.35615 L151.752,0.35615 Z M33.5677,0.35615 L36.8918,8.5774 C37.1688,9.23035 37.4409,9.9229 37.708,10.655 C37.9751,11.38705 38.2076,12.0796 38.40545,12.73255 L38.46485,12.73255 C38.6825,12.0796 38.91495,11.38705 39.1623,10.655 C39.40965,9.9229 39.6718,9.23035 39.9488,8.5774 L43.27295,0.35615 L46.56735,0.35615 L47.9623,19.29175 L44.0446,19.29175 L43.56975,12.61385 C43.53015,12.11915 43.49555,11.58495 43.46585,11.01115 C43.43615,10.4373 43.4312,9.85365 43.451,9.26005 L43.39165,9.26005 C43.21355,9.83385 43.0157,10.41755 42.79805,11.01115 C42.5804,11.6047 42.36275,12.15875 42.1451,12.6732 L39.41455,19.32145 L37.4557,19.32145 L34.66585,12.6732 C34.4482,12.17855 34.2355,11.6344 34.0277,11.0408 C33.81995,10.4472 33.62705,9.85365 33.44895,9.26005 L33.3896,9.26005 C33.3896,9.8932 33.3797,10.4769 33.35995,11.01115 C33.34015,11.54535 33.31045,12.0796 33.2709,12.61385 L32.76635,19.29175 L28.908,19.29175 L30.27325,0.35615 L33.5677,0.35615 Z M169.4265,0.35615 C170.1585,0.35615 170.846,0.4897 171.489,0.7568 C172.132,1.02395 172.696,1.39985 173.181,1.88465 C173.6655,2.3694 174.0515,2.95805 174.3385,3.6506 C174.625,4.3431 174.7685,5.11475 174.7685,5.9656 C174.7685,6.8164 174.625,7.5881 174.3385,8.2806 C174.0515,8.97315 173.6655,9.5667 173.181,10.0614 C172.696,10.55605 172.132,10.93695 171.489,11.20405 C170.846,11.47115 170.1585,11.6047 169.4265,11.6047 L167.586,11.6047 L167.586,19.29175 L163.6385,19.29175 L163.6385,0.35615 L169.4265,0.35615 Z M21.78485,0.2671 L27.66145,19.29175 L23.625,19.29175 L22.4675,15.1366 L17.8078,15.1366 L16.6503,19.29175 L9.171,19.29175 L5.1346,11.6047 L3.9474,11.6047 L3.9474,19.29175 L-2.66453526e-14,19.29175 L-2.66453526e-14,0.35615 L5.87655,0.35615 C6.5889,0.35615 7.2715,0.4897 7.92445,0.7568 C8.5774,1.02395 9.1463,1.39985 9.63105,1.88465 C10.1158,2.3694 10.50165,2.95805 10.78855,3.6506 C11.07545,4.3431 11.2189,5.11475 11.2189,5.9656 C11.2189,7.01425 10.99135,7.9393 10.5363,8.74065 C10.0812,9.542 9.51725,10.13065 8.84455,10.5066 L13.112,18.353 L18.72785,0.2671 L21.78485,0.2671 Z M54.01695,0.35615 L54.01695,19.29175 L49.92115,19.29175 L49.92115,0.35615 L54.01695,0.35615 Z M62.5945,0.35615 C63.3065,0.35615 63.9895,0.4897 64.6425,0.7568 C65.295,1.02395 65.864,1.39985 66.349,1.88465 C66.8335,2.3694 67.2195,2.95805 67.5065,3.6506 C67.7935,4.3431 67.9365,5.11475 67.9365,5.9656 C67.9365,7.01425 67.709,7.9393 67.254,8.74065 C66.799,9.542 66.235,10.13065 65.5625,10.5066 L70.341,19.29175 L65.889,19.29175 L61.8525,11.6047 L60.665,11.6047 L60.665,19.29175 L56.718,19.29175 L56.718,0.35615 L62.5945,0.35615 Z M122.3545,0.35615 C123.0665,0.35615 123.7495,0.4897 124.4025,0.7568 C125.055,1.02395 125.624,1.39985 126.109,1.88465 C126.5935,2.3694 126.9795,2.95805 127.2665,3.6506 C127.553,4.3431 127.6965,5.11475 127.6965,5.9656 C127.6965,7.01425 127.469,7.9393 127.014,8.74065 C126.559,9.542 125.995,10.13065 125.3225,10.5066 L130.1005,19.29175 L125.649,19.29175 L121.6125,11.6047 L120.425,11.6047 L120.425,19.29175 L116.478,19.29175 L116.478,0.35615 L122.3545,0.35615 Z M79.9275,0.35615 L79.9275,3.7693 L74.7335,3.7693 L74.7335,8.07285 L78.948,8.07285 L78.948,11.5157 L74.7335,11.5157 L74.7335,15.8786 L80.5505,15.8786 L80.5505,19.29175 L70.667,19.29175 L70.667,0.35615 L79.9275,0.35615 Z M92.2145,0.35615 L92.2145,1.33555 L88.208,11.01115 C87.8915,11.763 87.54,12.57425 87.1545,13.44485 C86.7685,14.31545 86.427,15.08715 86.1305,15.7599 L86.16,15.78955 L92.482,15.78955 L92.482,19.29175 L80.877,19.29175 L80.877,18.31235 L84.884,8.66645 C85.1805,7.93435 85.522,7.12805 85.9075,6.24755 C86.2935,5.36705 86.6545,4.58055 86.991,3.888 L86.9615,3.85835 L81.3815,3.85835 L81.3815,0.35615 L92.2145,0.35615 Z M137.5205,3.68025 C136.9865,3.68025 136.477,3.82865 135.992,4.12545 C135.5075,4.42225 135.077,4.83775 134.701,5.372 C134.325,5.90625 134.0285,6.5493 133.8105,7.3012 C133.593,8.05305 133.484,8.8841 133.484,9.79425 C133.484,10.72425 133.593,11.56515 133.8105,12.31705 C134.0285,13.0689 134.325,13.712 134.701,14.2462 C135.077,14.78045 135.5075,15.19595 135.992,15.49275 C136.477,15.78955 136.9865,15.93795 137.5205,15.93795 C138.055,15.93795 138.5645,15.78955 139.049,15.49275 C139.534,15.19595 139.9595,14.78045 140.3255,14.2462 C140.6915,13.712 140.988,13.0689 141.216,12.31705 C141.4435,11.56515 141.557,10.72425 141.557,9.79425 C141.557,8.8841 141.4435,8.05305 141.216,7.3012 C140.988,6.5493 140.6915,5.90625 140.3255,5.372 C139.9595,4.83775 139.534,4.42225 139.049,4.12545 C138.5645,3.82865 138.055,3.68025 137.5205,3.68025 Z M20.1525,6.44045 L20.0931,6.44045 C20.05355,6.77685 19.9942,7.1033 19.91505,7.4199 C19.8359,7.7365 19.74685,8.03325 19.64795,8.3103 L18.6388,12.02025 L21.63645,12.02025 L20.5977,8.3103 C20.49875,8.03325 20.41465,7.7365 20.3454,7.4199 C20.27615,7.1033 20.21185,6.77685 20.1525,6.44045 Z M5.34235,3.6209 L3.9474,3.6209 L3.9474,8.2806 L5.34235,8.2806 C5.8172,8.2806 6.2525,8.0877 6.64825,7.70185 C7.04395,7.316 7.24185,6.73725 7.24185,5.9656 C7.24185,5.1939 7.04395,4.6102 6.64825,4.2145 C6.2525,3.81875 5.8172,3.6209 5.34235,3.6209 Z M62.06,3.6209 L60.665,3.6209 L60.665,8.2806 L62.06,8.2806 C62.535,8.2806 62.9705,8.0877 63.366,7.70185 C63.762,7.316 63.9595,6.73725 63.9595,5.9656 C63.9595,5.1939 63.762,4.6102 63.366,4.2145 C62.9705,3.81875 62.535,3.6209 62.06,3.6209 Z M121.82,3.6209 L120.425,3.6209 L120.425,8.2806 L121.82,8.2806 C122.295,8.2806 122.7305,8.0877 123.126,7.70185 C123.522,7.316 123.7195,6.73725 123.7195,5.9656 C123.7195,5.1939 123.522,4.6102 123.126,4.2145 C122.7305,3.81875 122.295,3.6209 121.82,3.6209 Z M168.9215,3.6209 L167.586,3.6209 L167.586,8.2806 L168.9215,8.2806 C169.3965,8.2806 169.832,8.0877 170.2275,7.70185 C170.6235,7.316 170.821,6.73725 170.821,5.9656 C170.821,5.1939 170.6235,4.6102 170.2275,4.2145 C169.832,3.81875 169.3965,3.6209 168.9215,3.6209 Z" id="Combined-Shape"></path>
            </g>
            <g id="Ramirez-icon">
                <rect id="Rectangle" x="0.0543514349" y="0.0542255105" width="99.9743485" height="91.0509189"></rect>
                <g id="Ramirez-Icon" transform="translate(0.045383, 0.021485)">
                    <mask id="mask-2" fill="white">
                        <use xlink:href="#path-1"></use>
                    </mask>
                    <g id="Rectangle"></g>
                    <g id="Layer-1" mask="url(#mask-2)">
                        <g transform="translate(0.453953, 0.055646)" id="Group">
                            <g transform="translate(44.569670, 45.359258) scale(-1, 1) rotate(-90.000000) translate(-44.569670, -45.359258) translate(0.069670, 0.859258)">
                                <path d="M44.5001427,0.212400469 C20.0331987,0.212400469 0.198842925,20.046763 0.198842925,44.5137153 C0.198842925,68.9806676 20.0331987,88.8150301 44.5001427,88.8150301 C68.9670868,88.8150301 88.8014426,68.9806676 88.8014426,44.5137153 C88.8014426,20.046763 68.9670868,0.212400469 44.5001427,0.212400469" id="Path" fill="#000000"></path>
                            </g>
                            <g transform="translate(44.569670, 45.359258) scale(-1, 1) rotate(-90.000000) translate(-44.569670, -45.359258) translate(0.069670, 0.859258)">
                                <path d="M44.5001427,0.212400469 C20.0331987,0.212400469 0.198842925,20.046763 0.198842925,44.5137153 C0.198842925,68.9806676 20.0331987,88.8150301 44.5001427,88.8150301 C68.9670868,88.8150301 88.8014426,68.9806676 88.8014426,44.5137153 C88.8014426,20.046763 68.9670868,0.212400469 44.5001427,0.212400469 Z" id="Path" stroke="#000000" stroke-width="0.5"></path>
                            </g>
                            <g transform="translate(11.700098, 14.656446)">
                                <path d="M31.4081438,43.6214074 C30.6794297,43.6214074 30.5332349,42.7342965 30.3307767,41.506667 C30.2037884,40.7366023 30.0458438,39.7780887 29.7222721,38.8137002 C29.3982486,37.8497636 28.9461069,36.9899936 28.5825406,36.2990142 C28.0836257,35.3508946 27.7539531,34.7245392 27.9430799,34.2525131 C27.9977617,34.1160345 28.1229423,33.9332345 28.408779,33.8372024 C28.5167869,33.8008231 28.6308956,33.7825205 28.7481678,33.7825205 C29.8772792,33.7825205 31.2508771,35.5246563 32.0885029,38.019232 C32.5085586,39.2699093 32.7184735,40.5142597 32.6798347,41.5231619 C32.6369027,42.6436873 32.281245,43.3721758 31.6781635,43.5746341 C31.5857467,43.6055903 31.4949116,43.6214074 31.4081438,43.6214074 M21.4264549,27.7105786 C19.5862541,27.7105786 17.9320165,28.4612109 16.6431528,29.8813566 C14.5492012,32.1883872 13.6413025,35.9871922 14.0866655,40.5782058 C14.9353632,49.3496672 19.9656373,52.4748916 24.3903443,52.4748916 C27.8468218,52.4748916 31.0190444,50.6421467 32.6692147,47.6918138 C34.6594516,44.1334281 34.1512723,39.5618469 31.2379975,34.8196675 C28.4564562,30.3018643 24.879995,27.7105786 21.4264549,27.7105786 M24.1268774,65.6737731 C15.6832838,65.6726433 8.81235689,61.1514508 5.27589029,53.2698116 C3.97459892,50.3809393 3.44676134,47.5252828 3.56516326,44.0111848 C3.64040723,42.1813774 3.86433148,40.3434355 4.08057316,38.5660503 L4.10203916,38.3891252 C4.35691963,36.251789 4.59191582,34.1573848 4.66444829,32.039029 L4.6949526,31.1948501 C4.78510979,28.7321345 4.87797848,26.1858144 4.81922943,23.6869455 C4.79572981,22.6009916 4.73743268,21.4935717 4.68116917,20.4223051 L4.65224657,19.86916 C4.63959293,19.6357455 4.62535758,19.3932926 4.61089628,19.144061 C4.44007213,16.2136124 4.22744577,12.5666511 5.34367765,10.0201051 C5.67131656,9.30133288 6.04934407,8.69938091 6.50125981,8.17538443 C8.08906576,6.31507267 12.2690604,4.30562865 16.2517938,4.30562865 C16.7240457,4.30562865 17.1660193,4.33929639 17.5650609,4.40550207 C18.3604326,4.53271639 19.1442805,4.81019275 19.8926529,5.22979665 C21.5954714,6.19034388 22.9591272,7.83351006 23.9569571,9.15807554 C24.7898378,10.2539716 25.6175215,11.5335714 26.4178643,12.7709171 C27.0774353,13.7906653 27.7596021,14.8452111 28.4234663,15.7607927 C29.9615615,17.8793744 31.6444957,19.9441781 33.2720703,21.9409684 L33.5872815,22.3275825 C34.9380576,23.9748159 36.3882552,25.5009359 37.8791253,27.0491997 L37.9948157,27.1689574 C39.242781,28.4584994 40.5332264,29.7918773 41.688549,31.2106672 C43.8636194,33.8747114 45.2091985,36.5475679 45.9225475,39.6221777 C47.8201417,47.889527 44.9617747,53.7131411 42.229944,57.1427308 C38.0379736,62.4048395 31.1024228,65.6737731 24.1300408,65.6737731 L24.1268774,65.6737731 Z M15.837613,2.11270679 C12.0473957,2.11270679 7.35289502,3.98499433 5.37305217,6.28615005 C4.85967589,6.8962365 4.43193764,7.58427845 4.10429873,8.328132 C2.83147806,11.229658 3.02625374,15.087212 3.18261659,18.1869031 L3.18803957,18.2942332 C3.26079801,19.5862607 3.33536411,20.9112781 3.37332503,22.2166371 C3.42235789,24.7469142 3.33061899,27.3040803 3.24181755,29.776964 L3.20498642,30.8147889 C3.12070413,33.1123293 2.85904492,35.3911152 2.62043341,37.3467812 L2.56552565,37.814966 C2.35719249,39.5787938 2.1420806,41.4027263 2.07813452,43.1961545 C1.93984831,46.8932784 2.49457487,49.9202111 3.87675916,53.0110898 C7.62178488,61.348938 14.8856525,66.1320158 23.8053394,66.1320158 C31.1952915,66.1320158 38.5427635,62.6710179 42.980802,57.098895 C45.8647023,53.4783708 48.880562,47.325536 46.8715706,38.5750886 C46.1100926,35.284689 44.7290381,32.5350067 42.3930856,29.6601438 C41.1137122,28.1057791 39.6829469,26.6295958 38.4205203,25.3271742 C37.0500858,23.9119996 35.4665731,22.2530164 34.0127602,20.4715639 L33.391602,19.7085039 C31.8169016,17.7761116 30.1888751,15.7779655 28.7013945,13.7149694 C28.0171941,12.7754363 27.3519741,11.7963605 26.708898,10.8495967 C25.9142042,9.67981243 25.0923954,8.47003359 24.2292363,7.32781618 C23.169268,5.92597308 21.715681,4.18293349 19.8711869,3.13855587 C19.066099,2.67918336 18.2205647,2.380241 17.2853251,2.22410406 C16.8451591,2.15021581 16.3582199,2.11270679 15.837613,2.11270679 M23.6975575,67.7846722 C14.0238492,67.7846722 6.14740979,62.5969037 2.08739879,53.5518072 C-0.601725805,47.5659552 0.00971618837,42.4880023 0.657085483,37.1120109 C0.909254465,35.0167028 1.1702358,32.8499921 1.2533883,30.5359568 L1.27621004,29.9290337 C1.37292001,27.3558246 1.47279339,24.6951698 1.41833754,22.0388082 C1.3955158,20.9573735 1.33495909,19.8323289 1.27621004,18.7443414 C1.00619039,13.7262673 0.726680507,8.53736906 3.87540341,4.84544219 C6.19599073,2.13598046 11.4262375,0.0142353506 15.7831572,0.0142353506 C16.4022817,0.0142353506 16.9879645,0.0589750238 17.5239366,0.147550539 C22.2975225,0.942470591 24.9708301,4.86103329 28.0664529,9.39849479 C28.7325767,10.3746331 29.4210703,11.3839873 30.1515921,12.3915337 C31.573319,14.3679879 33.1184189,16.2662606 34.6126783,18.1021689 C34.8768231,18.4266445 35.139838,18.7497644 35.4008193,19.0719804 C36.8632187,20.8660865 38.3787181,22.4362683 39.8442808,23.9549316 C43.6048977,27.8511245 47.1567294,31.5310756 48.6245517,37.9272671 C50.8052711,47.4132077 47.5315935,54.0909428 44.4011732,58.0226111 C39.6070251,64.0439384 31.6734183,67.7846722 23.6980094,67.7846722 L23.6975575,67.7846722 Z" id="Shape" fill="#FFFFFF"></path>
                            </g>
                            <g transform="translate(11.461035, 14.276385)">
                                <path d="M24.6294077,52.5160159 C22.2439705,52.5160159 19.9929782,51.5678964 18.2906116,49.8465488 C16.2859134,47.8192541 15.0313953,44.7344762 14.663084,40.9257291 C14.2269853,36.4309736 15.1041538,32.7245854 17.1328035,30.4894094 C18.3559135,29.1420222 19.9231572,28.4295768 21.6652924,28.4295768 C24.9500419,28.4295768 28.3685585,30.889129 31.069207,35.1859453 C30.4405922,34.3679776 29.7224981,33.8236449 28.9870052,33.8236449 C28.8331279,33.8236449 28.68264,33.8480483 28.5398346,33.8959514 C28.1313028,34.0331079 27.9487288,34.3035796 27.867384,34.5062638 C27.6199601,35.1238069 27.9785553,35.8052961 28.521532,36.8370201 C28.8792233,37.5171535 29.3245863,38.363366 29.6395716,39.3017693 C29.9547828,40.2401727 30.1102418,41.1837731 30.2354225,41.941862 C30.4475969,43.2289184 30.6308487,44.3404056 31.6469813,44.3404056 C31.7705802,44.3404056 31.8975685,44.3187136 32.0247828,44.2760075 C33.5784691,43.7544966 33.514749,40.8705953 32.6488785,38.2915113 C32.5894515,38.1143603 32.5255055,37.9369833 32.4579441,37.7607361 C34.6865665,42.7241284 33.5805028,46.1751841 32.6122733,47.9064739 C31.0222078,50.7497027 27.9631901,52.5160159 24.6294077,52.5160159 M14.7785485,64.1553357 C14.1063238,63.8394465 13.4537575,63.487404 12.823335,63.100338 C9.18089418,60.8633544 6.35506507,57.5496811 4.42470699,53.251735 C3.06511849,50.2116968 2.51943024,47.2315375 2.65568284,43.5895473 C2.719177,41.8094506 2.93338506,39.9932006 3.14058842,38.2368295 L3.19640002,37.7648034 C3.43523748,35.805748 3.69780053,33.5188276 3.78253473,31.2077297 L3.81936586,30.1726164 C3.90839326,27.6938577 4.00058407,25.1308168 3.95132526,22.593535 C3.91268646,21.2780078 3.83834632,19.9520866 3.76626576,18.6697753 L3.76536193,18.6532803 L3.7601649,18.5497916 C3.60560972,15.4858018 3.41309361,11.6725356 4.65382827,8.84399399 C4.96813567,8.1304188 5.37870112,7.46994373 5.87377481,6.88154924 C7.79283499,4.6508924 12.3720972,2.83170498 16.0766764,2.83170498 C16.5783029,2.83170498 17.0462616,2.86763229 17.467899,2.93835713 C18.363596,3.08794129 19.1722992,3.37377809 19.9414598,3.81236246 C21.7337576,4.82736555 23.1575182,6.53651145 24.1978282,7.91259534 C25.0557902,9.04803402 25.8753394,10.2544235 26.6679996,11.4210444 C27.3124315,12.3696158 27.9790072,13.3507252 28.6670489,14.2959073 C30.1585968,16.3643263 31.7897866,18.3663137 33.3674245,20.3025474 L33.9883567,21.0649295 C35.4516599,22.8579058 37.0408216,24.5227639 38.4157752,25.9426837 C39.6739086,27.241038 41.0999287,28.7122502 42.3716196,30.2573506 C44.670515,33.086796 46.0312333,35.7942241 46.7802836,39.0322015 C47.5887609,42.5537561 47.6246882,45.9636874 46.8862578,49.1664154 C46.5091342,50.8025768 45.9354271,52.3680135 45.1714636,53.8505236 C45.7892324,52.5571403 46.2626141,51.2018445 46.5875415,49.7927708 C47.309025,46.6659647 47.276939,43.3466425 46.4919614,39.926995 C45.7659587,36.7986072 44.3991396,34.0819148 42.1897235,31.3760684 C41.0262665,29.9473363 39.7315279,28.6092134 38.4792694,27.3153782 L38.3610934,27.192909 C36.8763242,25.6511979 35.4315496,24.1307269 34.0873263,22.4918539 L33.7736967,22.1070475 C32.1490597,20.1138725 30.4692889,18.0526841 28.9363907,15.9413331 C28.2779494,15.033434 27.5984941,13.9829556 26.9411827,12.9668227 C26.1374505,11.724054 25.3063775,10.4390311 24.4646844,9.3318372 C23.4490038,7.98354614 22.0555216,6.30603435 20.2986992,5.3149828 C19.5139475,4.87481672 18.6923647,4.58446076 17.8554168,4.4504677 C17.4421398,4.38200244 16.9814117,4.346753 16.4906312,4.346753 C14.8368456,4.346753 12.834181,4.75008793 10.9964657,5.45349502 C9.02882453,6.20661285 7.42520154,7.23065426 6.48137552,8.33671841 C6.01025336,8.8826328 5.61550496,9.51102185 5.2763422,10.2548754 C4.1232792,12.8850259 4.33839109,16.5771787 4.51147481,19.5437806 C4.52593612,19.7925603 4.53994551,20.0345613 4.5528251,20.2686537 L4.58152175,20.8193132 C4.63755931,21.8883202 4.69563048,22.9934806 4.7191301,24.0735595 C4.7781051,26.5647459 4.68501046,29.1072247 4.59507923,31.5658731 L4.56457491,32.4064367 C4.49249435,34.5112349 4.258402,36.5986344 4.00442536,38.7298698 L3.9827334,38.9065689 C3.76581385,40.6900549 3.54121172,42.5343237 3.46551584,44.3747512 C3.34688796,47.900147 3.90003282,50.8902485 5.2060693,53.7895149 C7.08084174,57.9681552 9.83888349,61.1968683 13.402917,63.3857229 C13.8503135,63.6604878 14.309234,63.917176 14.7785485,64.1553357 M16.0219946,0.0553596967 C12.126029,0.0553596967 6.51075004,1.90640719 3.85732678,5.00429062 C0.620028393,8.80038411 0.903153603,14.0579736 1.17678858,19.1424793 C1.23508571,20.2277553 1.29564242,21.3498625 1.31823821,22.4261001 C1.37269405,25.0725196 1.27282068,27.7284293 1.17633667,30.2968933 L1.15351492,30.9029125 C1.07081434,33.2036163 0.810962792,35.3633223 0.559471684,37.4516257 C-0.0937725157,42.8757461 -0.710637498,47.9991166 2.01735186,54.0708326 C4.16598523,58.8577516 7.32216475,62.5555534 11.3984447,65.0609751 C15.0625775,67.3133239 19.3982571,68.5036704 23.9366209,68.5036704 C27.8820713,68.5036704 31.8944051,67.6048097 35.5397834,65.9040242 C39.2461704,64.174994 42.4845985,61.6539812 44.9052852,58.6134911 C47.0643126,55.9022217 48.5459184,52.8459145 49.3092041,49.5295298 C50.1332724,45.949678 50.0944077,42.1483875 49.1939656,38.2311806 C47.7049032,31.743702 44.1212114,28.0305351 40.3271528,24.0995447 C38.8663352,22.5860784 37.3558068,21.0210936 35.9019939,19.2371557 C35.6419164,18.9162954 35.3789014,18.5931755 35.1145307,18.2684739 C33.6234348,16.4364069 32.0814983,14.5419755 30.6665501,12.5745597 C29.9371581,11.5688209 29.2500202,10.5615003 28.5854781,9.58739563 C25.4460195,4.98598803 22.734751,1.01183968 17.8188116,0.193420001 C17.2638591,0.101681076 16.6596477,0.0553596967 16.0219946,0.0553596967 M28.9870052,34.5015187 C29.9308313,34.5012928 31.230315,36.1962033 32.0060283,38.5070752 C32.8477214,41.0136267 32.7607276,43.3138786 31.8089931,43.6333831 C31.7506959,43.6530415 31.696692,43.6625317 31.6469813,43.6625317 C30.8857292,43.6625317 31.0721445,41.4386536 30.2824217,39.0859795 C29.4407286,36.5796539 27.8036639,34.8580804 28.7556244,34.5385758 C28.8297386,34.5134945 28.9072421,34.5015187 28.9870052,34.5015187 M24.6294077,53.1938898 C31.6198663,53.1938898 38.3165797,45.6862111 31.7658351,35.0223518 C28.7007166,30.0442723 24.9437151,27.751703 21.6652924,27.751703 C16.915884,27.751703 13.1706323,32.5632515 13.9883738,40.9910309 C14.8219324,49.6063555 19.7952651,53.1938898 24.6294077,53.1938898 M16.4906312,5.02462684 C16.93735,5.02462684 17.360569,5.05558308 17.7485387,5.11998109 C18.5319346,5.24516179 19.269913,5.51518154 19.9656373,5.90541091 C21.5480203,6.7979448 22.8425329,8.30508429 23.9250971,9.74195087 C25.4428561,11.7389672 26.9194907,14.3144359 28.387765,16.3396969 C30.0295748,18.601084 31.8017624,20.7594343 33.56333,22.9218519 C34.9179474,24.5733785 36.3923225,26.1259356 37.8739282,27.6642572 C39.1713783,29.0055436 40.4832897,30.3538347 41.6645974,31.8047106 C43.7230736,34.3259494 45.09396,36.90187 45.8312605,40.0788387 C49.3369969,55.3517882 36.764927,65.7148974 24.3657149,65.7148974 C16.9766666,65.7148974 9.64704526,62.0308791 5.82406408,53.5111347 C4.48413391,50.5366243 4.03334796,47.6518192 4.14271157,44.4027699 C4.21976321,42.5291267 4.45204789,40.6624881 4.67755385,38.8100848 C4.9304007,36.6892436 5.16901221,34.5616235 5.24222256,32.4306142 C5.34186998,29.6434229 5.46275744,26.8492269 5.39677775,24.0590982 C5.36921089,22.7855992 5.29600054,21.5157156 5.22979488,20.2318225 C5.07162437,17.3429502 4.71348115,13.2269003 5.89298123,10.536193 C6.18446688,9.89695802 6.53944669,9.30698182 6.99678542,8.77688448 C8.84941398,6.6061065 13.2910678,5.02462684 16.4906312,5.02462684 M24.0441768,66.851014 C37.5652698,66.851014 51.267129,55.5454341 47.4407584,38.879228 C46.6322812,35.3852402 45.1409593,32.5908183 42.894938,29.8264488 C41.6429055,28.3052999 40.2708893,26.8828947 38.9027144,25.4713354 C37.3894746,23.9083843 35.8938594,22.3275825 34.5143866,20.6371911 C32.710339,18.418736 30.8886667,16.2179056 29.2149967,13.8968656 C27.6866177,11.7974903 26.3057892,9.5779054 24.7385454,7.50361146 C23.5109163,5.88010362 22.06456,4.23558169 20.2772332,3.22351605 C19.4330546,2.74199967 18.5398432,2.43017771 17.5799741,2.26997352 C17.1129192,2.19134016 16.6079034,2.15383114 16.0766764,2.15383114 C12.4100581,2.15383114 7.50654637,3.94454786 5.35497554,6.44499848 C4.81651794,7.08491139 4.37364051,7.79826062 4.03312201,8.57171467 C2.71330209,11.5801188 2.92638036,15.474278 3.08861811,18.6912413 C3.16182846,19.9963744 3.23526477,21.3015075 3.27345165,22.6066405 C3.32903729,25.4708835 3.20476046,28.3251842 3.10511304,31.1828744 C3.02512395,33.3633686 2.78651244,35.526238 2.52304557,37.6857181 C2.2943762,39.6337015 2.04830808,41.5990838 1.97826114,43.56424 C1.84517196,47.1273709 2.34227927,50.2555327 3.8062603,53.5296633 C7.98376939,62.8303183 15.982226,66.851014 24.0441768,66.851014 M16.0219946,0.733233534 C16.6142302,0.733233534 17.1807066,0.775035754 17.7076403,0.862029563 C23.3538756,1.80224057 26.0400627,7.34905622 30.1161167,12.970438 C31.793402,15.302324 33.6290837,17.5101591 35.3766419,19.665346 C40.6396525,26.123676 46.5244993,29.6316731 48.5332647,38.3830243 C52.5663867,55.9270771 38.1586351,67.8257966 23.9366209,67.8257966 C15.4521289,67.8257966 7.03316463,63.5906668 2.63557259,53.7931303 C-1.04392536,45.6028326 1.53154244,39.2543182 1.83116257,30.9282198 C1.93442532,28.1516485 2.05508682,25.2869537 1.99611182,22.4118648 C1.87002732,16.4289503 0.631552244,9.83143022 4.37205881,5.44536053 C6.75275092,2.6660778 11.9931658,0.733233534 16.0219946,0.733233534" id="Shape" fill="#000000" fill-rule="nonzero"></path>
                            </g>
                            <g transform="translate(52.499277, 49.427533)">
                                <polygon id="Path" stroke="#000000" stroke-width="0.682393643" fill="#231F20" fill-rule="nonzero" points="17.6247138 0.218727291 11.6589741 0.218727291 1.69287636 5.32176154 0.193645894 10.7386514 2.33776011 11.2978973 8.90929282 10.9250667 14.1756929 7.10321398 17.6247138 4.45521281"></polygon>
                            </g>
                            <g transform="translate(88.197966, 56.012881) scale(-1, 1) rotate(41.773201) translate(-88.197966, -56.012881) translate(81.697966, 40.012881)">
                                <path d="M6.45806991,0.209152026 C6.45806991,0.209152026 0.195870823,7.28344644 0.195870823,16.0097201 C0.195870823,24.7362197 6.45806991,31.8102882 6.45806991,31.8102882 C6.45806991,31.8102882 12.720043,24.7364457 12.720269,16.0099461 C12.720495,7.28344644 6.45806991,0.209152026 6.45806991,0.209152026 Z" id="Path" stroke="#000000" stroke-width="0.682393937" fill="#FFFFFF" fill-rule="nonzero"></path>
                            </g>
                            <g transform="translate(58.660406, 39.667296) scale(-1, 1) rotate(103.399948) translate(-58.660406, -39.667296) translate(52.160406, 23.667296)">
                                <path d="M6.33175858,0.064026867 C6.33175858,0.064026867 0.0695627629,7.13831759 0.0695627629,15.8643607 C0.069336805,24.5910818 6.33175858,31.6653725 6.33175858,31.6653725 C6.33175858,31.6653725 12.5939544,24.5910818 12.5937284,15.8648127 C12.5941803,7.13809163 6.33175858,0.064026867 6.33175858,0.064026867 Z" id="Path" stroke="#000000" stroke-width="0.682393581" fill="#FFFFFF" fill-rule="nonzero"></path>
                            </g>
                            <g transform="translate(71.608760, 30.336798)">
                                <path d="M6.10086247,13.8713323 C6.10086247,13.8713323 6.66507926,13.9379899 7.60144867,14.1338955 C6.73490025,12.8895451 6.15079915,11.0642568 5.90043784,10.0375039 L9.72771222,3.1195754 L11.1388191,2.03294364 C11.2389185,1.95611794 11.3078356,1.83138915 11.3198114,1.70598249 C11.3317871,1.58057583 11.2852398,1.47347176 11.1975682,1.42489081 L8.77620364,0.0854121035 C8.68853198,0.0368311451 8.57306751,0.054229907 8.47319413,0.131055608 C8.37332075,0.20788131 8.3044036,0.332610096 8.29220188,0.458016756 L8.12137773,2.2308828 L7.27765105,3.75587297 C7.01124672,4.23761531 5.18415139,5.83694565 1.43053927,5.14054326 C1.95995856,5.3805106 2.25167017,5.53642158 2.25167017,5.53642158 C2.25167017,5.53642158 1.85872943,6.09521558 1.12029911,6.95114428 C2.92592845,7.2830765 4.40278908,7.16693412 5.56940956,6.8435883 L0.0680133186,16.7868677 C0.37011899,16.790483 0.65527782,16.844261 0.909706381,16.9658264 C0.93840303,16.9782541 0.96709968,16.9913596 0.995344413,17.0069507 C1.0238151,17.0227678 1.05025218,17.0399406 1.07601137,17.0577913 C1.31394501,17.2087312 1.51098027,17.4218095 1.67457377,17.6757863 L4.6590253,12.2812663 C5.0049668,13.2481403 5.50501156,14.3670841 6.18446688,15.3000644 C6.103348,14.4032373 6.10086247,13.8713323 6.10086247,13.8713323" id="Path" fill="#FFFFFF" fill-rule="nonzero"></path>
                            </g>
                            <g transform="translate(49.234864, 47.025600)">
                                <path d="M18.980461,5.69549598 C18.0400244,5.86880572 16.9594938,5.96438593 15.6771829,5.9876596 C15.4177833,5.99579409 15.1407589,6.01771201 14.8655422,6.05273549 C11.6921899,6.45381084 8.62029271,8.53262394 6.64813242,11.6128827 C6.38556938,12.0227704 5.85140498,12.153826 5.43157526,11.9215412 C5.4141765,11.911825 5.3970037,11.9018829 5.38028282,11.8908109 C4.95322245,11.6174018 4.82871966,11.0497955 5.10212868,10.6229609 C7.39808659,7.03678234 10.8728667,4.70692997 14.6352912,4.23128849 C14.9679012,4.18926031 15.3029967,4.16282323 15.6317654,4.15242917 C16.824597,4.1307372 17.8072877,4.04509914 18.6476251,3.89009199 C19.1463141,3.79812711 19.6248928,4.12779975 19.7166317,4.62648894 C19.8085966,5.12495217 19.47915,5.60353109 18.980461,5.69549598 M26.113499,23.4112768 C26.1684068,23.3123072 26.2215069,23.2131117 26.2730253,23.1136902 C28.7820614,18.3742223 28.9784188,12.9688563 27.0085181,8.72288053 C26.8306893,8.33897798 26.6350098,7.96501758 26.4219315,7.60167721 C24.9430373,5.14935562 24.8162749,4.11966527 24.6858972,2.91802091 C24.5286305,1.87115775 24.1797516,0.831977156 23.4496817,0.368989325 C23.4241485,0.351138648 23.3977114,0.333965844 23.3692407,0.318148787 L23.3690147,0.318148787 C23.34077,0.302557689 23.3122993,0.28922617 23.2833767,0.277024441 C22.5031442,-0.095580211 21.4377528,0.161108015 20.4670378,0.583649374 C19.3797286,1.11193905 18.4401957,1.55165321 15.5768576,1.60136396 C15.1556722,1.61401761 14.7347126,1.64700747 14.3151089,1.70010758 C9.67144871,2.28714633 5.19635312,5.32515091 2.51423321,9.96881265 C2.45729183,10.0652967 2.40148023,10.1629105 2.34679843,10.2618801 C2.34295714,10.2686588 2.33934182,10.2754376 2.33572649,10.2824423 C2.33165925,10.289447 2.32781797,10.2959998 2.32397668,10.3030044 C2.26929488,10.4017481 2.21619478,10.5011696 2.16490234,10.6005911 C-0.344359792,15.339833 -0.540717181,20.745199 1.42895756,24.9911747 C1.60701236,25.3748513 1.80269188,25.7490377 2.01577015,26.112604 C3.49489036,28.5649256 3.62142677,29.59439 3.75180446,30.7960344 C3.90929709,31.8426716 4.25795009,32.8820781 4.98824592,33.345066 C5.0135532,33.3629166 5.03999027,33.3803154 5.06846096,33.3959065 L5.06868692,33.3961325 C5.09715761,33.4117236 5.1256283,33.4248291 5.15432495,33.4368049 C5.93433152,33.8098615 6.99994883,33.5531732 7.97066383,33.13018 C9.0579731,32.6021162 9.99773188,32.162628 12.860844,32.1126913 C13.2820295,32.1000377 13.702989,32.0668219 14.1225928,32.0139477 C18.7662529,31.426909 23.2411226,28.3889044 25.9234684,23.7452426 C25.9804098,23.6489846 26.0362214,23.5511448 26.0909032,23.4521752 C26.0947445,23.4453964 26.0983598,23.4383917 26.1022011,23.431387 C26.1058164,23.4246083 26.1098837,23.4180555 26.113499,23.4112768" id="Shape" fill="#FFFFFF" fill-rule="nonzero"></path>
                            </g>
                            <g transform="translate(49.234864, 47.025600)">
                                <path d="M18.980461,5.69549598 C18.0400244,5.86880572 16.9594938,5.96438593 15.6771829,5.9876596 C15.4177833,5.99579409 15.1407589,6.01771201 14.8655422,6.05273549 C11.6921899,6.45381084 8.62029271,8.53262394 6.64813242,11.6128827 C6.38556938,12.0227704 5.85140498,12.153826 5.43157526,11.9215412 C5.4141765,11.911825 5.3970037,11.9018829 5.38028282,11.8908109 C4.95322245,11.6174018 4.82871966,11.0497955 5.10212868,10.6229609 C7.39808659,7.03678234 10.8728667,4.70692997 14.6352912,4.23128849 C14.9679012,4.18926031 15.3029967,4.16282323 15.6317654,4.15242917 C16.824597,4.1307372 17.8072877,4.04509914 18.6476251,3.89009199 C19.1463141,3.79812711 19.6248928,4.12779975 19.7166317,4.62648894 C19.8085966,5.12495217 19.47915,5.60353109 18.980461,5.69549598 Z M26.113499,23.4112768 C26.1684068,23.3123072 26.2215069,23.2131117 26.2730253,23.1136902 C28.7820614,18.3742223 28.9784188,12.9688563 27.0085181,8.72288053 C26.8306893,8.33897798 26.6350098,7.96501758 26.4219315,7.60167721 C24.9430373,5.14935562 24.8162749,4.11966527 24.6858972,2.91802091 C24.5286305,1.87115775 24.1797516,0.831977156 23.4496817,0.368989325 C23.4241485,0.351138648 23.3977114,0.333965844 23.3692407,0.318148787 L23.3690147,0.318148787 C23.34077,0.302557689 23.3122993,0.28922617 23.2833767,0.277024441 C22.5031442,-0.095580211 21.4377528,0.161108015 20.4670378,0.583649374 C19.3797286,1.11193905 18.4401957,1.55165321 15.5768576,1.60136396 C15.1556722,1.61401761 14.7347126,1.64700747 14.3151089,1.70010758 C9.67144871,2.28714633 5.19635312,5.32515091 2.51423321,9.96881265 C2.45729183,10.0652967 2.40148023,10.1629105 2.34679843,10.2618801 C2.34295714,10.2686588 2.33934182,10.2754376 2.33572649,10.2824423 C2.33165925,10.289447 2.32781797,10.2959998 2.32397668,10.3030044 C2.26929488,10.4017481 2.21619478,10.5011696 2.16490234,10.6005911 C-0.344359792,15.339833 -0.540717181,20.745199 1.42895756,24.9911747 C1.60701236,25.3748513 1.80269188,25.7490377 2.01577015,26.112604 C3.49489036,28.5649256 3.62142677,29.59439 3.75180446,30.7960344 C3.90929709,31.8426716 4.25795009,32.8820781 4.98824592,33.345066 C5.0135532,33.3629166 5.03999027,33.3803154 5.06846096,33.3959065 L5.06868692,33.3961325 C5.09715761,33.4117236 5.1256283,33.4248291 5.15432495,33.4368049 C5.93433152,33.8098615 6.99994883,33.5531732 7.97066383,33.13018 C9.0579731,32.6021162 9.99773188,32.162628 12.860844,32.1126913 C13.2820295,32.1000377 13.702989,32.0668219 14.1225928,32.0139477 C18.7662529,31.426909 23.2411226,28.3889044 25.9234684,23.7452426 C25.9804098,23.6489846 26.0362214,23.5511448 26.0909032,23.4521752 C26.0947445,23.4453964 26.0983598,23.4383917 26.1022011,23.431387 C26.1058164,23.4246083 26.1098837,23.4180555 26.113499,23.4112768 Z" id="Shape" stroke="#000000" stroke-width="0.682393643"></path>
                            </g>
                        </g>
                    </g>
                </g>
            </g>
        </g>
    </g>
</svg>