<?xml version="1.0" encoding="UTF-8"?>
<svg width="32px" height="26px" viewBox="0 0 32 26" version="1.1" xmlns="http://www.w3.org/2000/svg" xmlns:xlink="http://www.w3.org/1999/xlink">
    <!-- Generator: Sketch 59 (86127) - https://sketch.com -->
    <title>twitter-icon</title>
    <desc>Created with Sketch.</desc>
    <g id="Symbols" stroke="none" stroke-width="1" fill="none" fill-rule="evenodd">
        <g id="Contact-Bar" transform="translate(-1287.000000, -63.000000)" fill="#FFFFFF">
            <g id="Social-networks">
                <g transform="translate(1095.000000, 31.000000)">
                    <g id="Social-Media" transform="translate(0.000000, 29.000000)">
                        <path d="M224,6.078 C222.823,6.6 221.557,6.953 220.229,7.112 C221.585,6.299 222.626,5.013 223.116,3.48 C221.848,4.232 220.442,4.778 218.947,5.073 C217.749,3.797 216.043,3 214.155,3 C210.529,3 207.59,5.939 207.59,9.565 C207.59,10.079 207.648,10.58 207.76,11.061 C202.303,10.787 197.466,8.173 194.228,4.201 C193.663,5.171 193.339,6.299 193.339,7.502 C193.339,9.779 194.498,11.789 196.259,12.966 C195.183,12.932 194.171,12.637 193.286,12.145 C193.285,12.173 193.285,12.2 193.285,12.228 C193.285,15.409 195.548,18.062 198.552,18.665 C198.001,18.815 197.421,18.895 196.822,18.895 C196.399,18.895 195.988,18.854 195.587,18.778 C196.422,21.386 198.847,23.284 201.72,23.337 C199.473,25.098 196.642,26.147 193.566,26.147 C193.036,26.147 192.514,26.116 192,26.056 C194.905,27.918 198.356,29.005 202.064,29.005 C214.14,29.005 220.743,19.001 220.743,10.326 C220.743,10.041 220.737,9.758 220.724,9.476 C222.007,8.551 223.12,7.395 224,6.078" id="twitter-icon"></path>
                    </g>
                </g>
            </g>
        </g>
    </g>
</svg>